<?xml version="1.0" encoding="UTF-8" standalone="no"?>
<svg width="24px" height="23px" viewBox="0 0 24 23" version="1.1" xmlns="http://www.w3.org/2000/svg" xmlns:xlink="http://www.w3.org/1999/xlink">
    <!-- Generator: Sketch 3.6.1 (26313) - http://www.bohemiancoding.com/sketch -->
    <title>Shape</title>
    <desc>Created with Sketch.</desc>
    <defs></defs>
    <g id="Page-1" stroke="none" stroke-width="1" fill="none" fill-rule="evenodd">
        <path d="M19.619,20.671 C14.581,21.898 10.908,18.81 10.908,15.504 C10.908,12.329 14.018,10.037 17.454,10.037 C20.911,10.037 24,12.346 24,15.504 C24,16.624 23.597,17.724 22.883,18.577 C22.854,19.577 23.441,21.012 23.971,22.056 C22.552,21.799 20.533,21.232 19.619,20.671 L19.619,20.671 Z M8.908,15.504 C8.908,11.387 12.742,8.037 17.454,8.037 C18.34,8.037 19.194,8.156 19.998,8.375 C19.977,3.541 15.237,0.056 10,0.056 C4.719,0.056 1.77635684e-15,3.583 1.77635684e-15,8.408 C1.77635684e-15,10.118 0.615,11.799 1.705,13.103 C1.752,14.63 0.854,16.821 0.044,18.416 C2.212,18.025 5.296,17.158 6.693,16.301 C7.496,16.497 8.269,16.605 9.021,16.664 C8.954,16.285 8.908,15.899 8.908,15.504 L8.908,15.504 Z" id="Shape" fill="#A6A6A6"></path>
    </g>
</svg>