<?xml version="1.0" encoding="UTF-8" standalone="no"?>
<svg width="24px" height="24px" viewBox="0 0 24 24" version="1.1" xmlns="http://www.w3.org/2000/svg" xmlns:xlink="http://www.w3.org/1999/xlink" xmlns:sketch="http://www.bohemiancoding.com/sketch/ns">
    <!-- Generator: Sketch 3.5.2 (25235) - http://www.bohemiancoding.com/sketch -->
    <title>Shape</title>
    <desc>Created with Sketch.</desc>
    <defs></defs>
    <g id="Page-1" stroke="none" stroke-width="1" fill="none" fill-rule="evenodd" sketch:type="MSPage">
        <path d="M12,0 C5.373,0 0,5.373 0,12 C0,18.627 5.373,24 12,24 C18.627,24 24,18.627 24,12 C24,5.373 18.627,0 12,0 L12,0 Z M12,19 C11.279,19 10.582,18.891 9.927,18.688 C10.213,18.223 10.64,17.461 10.797,16.853 L11.234,15.189 C11.463,15.625 12.129,15.993 12.838,15.993 C14.949,15.993 16.471,14.052 16.471,11.639 C16.471,9.327 14.583,7.597 12.155,7.597 C9.134,7.597 7.53,9.624 7.53,11.832 C7.53,12.859 8.077,14.137 8.952,14.544 C9.084,14.606 9.155,14.578 9.186,14.45 L9.379,13.657 C9.396,13.586 9.388,13.525 9.33,13.455 C9.042,13.105 8.809,12.46 8.809,11.858 C8.809,10.314 9.978,8.82 11.97,8.82 C13.69,8.82 14.894,9.992 14.894,11.668 C14.894,13.562 13.937,14.873 12.693,14.873 C12.006,14.873 11.492,14.305 11.657,13.608 C11.854,12.775 12.237,11.878 12.237,11.277 C12.237,10.74 11.949,10.291 11.351,10.291 C10.649,10.291 10.083,11.018 10.083,11.991 C10.083,12.612 10.294,13.031 10.294,13.031 C10.294,13.031 9.6,15.965 9.473,16.51 C9.331,17.115 9.387,17.964 9.448,18.518 C6.845,17.498 5,14.965 5,12 C5,8.134 8.135,5 12,5 C15.865,5 19,8.134 19,12 C19,15.866 15.865,19 12,19 L12,19 Z" id="Shape" fill="#FFFFFF" sketch:type="MSShapeGroup"></path>
    </g>
</svg>