<?xml version="1.0" encoding="UTF-8" standalone="no"?>
<svg width="27px" height="27px" viewBox="0 0 27 27" version="1.1" xmlns="http://www.w3.org/2000/svg" xmlns:xlink="http://www.w3.org/1999/xlink">
    <!-- Generator: Sketch 3.6 (26304) - http://www.bohemiancoding.com/sketch -->
    <title>Search</title>
    <desc>Created with Sketch.</desc>
    <defs></defs>
    <g id="Page-1" stroke="none" stroke-width="1" fill="none" fill-rule="evenodd">
        <g id="Mobile-Portrait" transform="translate(-277.000000, -14.000000)">
            <g id="Top">
                <g id="Search" transform="translate(277.000000, 14.000000)">
                    <ellipse id="Oval" fill="#FFFFFF" cx="11.8909891" cy="11.735034" rx="9.61874838" ry="9.4997894"></ellipse>
                    <g id="magnifier-round">
                        <path d="M25.9446783,22.4172677 L20.35744,16.8548616 C21.4407602,15.1560758 22.0671776,13.1421204 22.0671776,10.986227 C22.0671776,4.92871427 17.1175827,-1.77635684e-15 11.0330275,-1.77635684e-15 C4.94847223,-1.77635684e-15 0,4.92871427 0,10.986227 C0,17.0437398 4.94847223,21.9724541 11.0341501,21.9724541 C13.0930199,21.9724541 15.0216667,21.4080548 16.6719059,20.4267825 L22.3085391,26.0383639 C24.7154185,28.4311932 28.3526803,24.8134499 25.9446783,22.4172677 L25.9446783,22.4172677 Z M3.42059775,10.986227 C3.42059775,6.80743732 6.83670506,3.40651272 11.0341501,3.40651272 C15.2315951,3.40651272 18.6477024,6.8063197 18.6477024,10.986227 C18.6477024,15.1661344 15.2315951,18.5659414 11.0341501,18.5659414 C6.83670506,18.5659414 3.42059775,15.1650168 3.42059775,10.986227 L3.42059775,10.986227 Z" id="Shape" fill="#D44319"></path>
                        <path d="M5.6770472,9.01474133 C7.90430875,3.87479645 15.4033547,4.47048913 16.8156002,9.85184042 C13.9709022,6.52803175 8.96517678,6.17039262 5.6770472,9.01474133 L5.6770472,9.01474133 Z" id="Path" fill="#A52101"></path>
                    </g>
                </g>
            </g>
        </g>
    </g>
</svg>