<?xml version="1.0" encoding="UTF-8" standalone="no"?>
<svg width="17px" height="17px" viewBox="0 0 17 17" version="1.1" xmlns="http://www.w3.org/2000/svg" xmlns:xlink="http://www.w3.org/1999/xlink">
    <!-- Generator: Sketch 3.6 (26304) - http://www.bohemiancoding.com/sketch -->
    <title>Search</title>
    <desc>Created with Sketch.</desc>
    <defs></defs>
    <g id="Page-1" stroke="none" stroke-width="1" fill="none" fill-rule="evenodd">
        <g id="Mobile-Portrait" transform="translate(-74.000000, -14.000000)">
            <g id="TopSearchOn">
                <g id="Input" transform="translate(74.000000, 13.000000)">
                    <g id="Search" transform="translate(0.000000, 1.000000)">
                        <ellipse id="Oval" fill="#FFFFFF" cx="7.48691905" cy="7.38872509" rx="6.05624898" ry="5.98134888"></ellipse>
                        <g id="magnifier-round">
                            <path d="M16.3355382,14.114576 L12.8176474,10.6123203 C13.4997379,9.54271438 13.8941488,8.27466841 13.8941488,6.91725406 C13.8941488,3.10326454 10.7777373,-1.77635684e-15 6.946721,-1.77635684e-15 C3.11570474,-1.77635684e-15 0,3.10326454 0,6.91725406 C0,10.7312436 3.11570474,13.8345081 6.94742783,13.8345081 C8.24375326,13.8345081 9.45808646,13.4791456 10.4971259,12.8613075 L14.0461172,16.3945254 C15.5615598,17.9011217 17.8516876,15.6232833 16.3355382,14.114576 L16.3355382,14.114576 Z M2.1537097,6.91725406 C2.1537097,4.28616424 4.30459207,2.14484134 6.94742783,2.14484134 C9.59026359,2.14484134 11.741146,4.28546055 11.741146,6.91725406 C11.741146,9.54904757 9.59026359,11.6896668 6.94742783,11.6896668 C4.30459207,11.6896668 2.1537097,9.54834388 2.1537097,6.91725406 L2.1537097,6.91725406 Z" id="Shape" fill="#D44319"></path>
                            <path d="M3.57443713,5.67594825 C4.97678699,2.43968666 9.69840851,2.81475242 10.5876001,6.20301064 C8.79649398,4.11024221 5.64474093,3.88506202 3.57443713,5.67594825 L3.57443713,5.67594825 Z" id="Path" fill="#A52101"></path>
                        </g>
                    </g>
                </g>
            </g>
        </g>
    </g>
</svg>