<?xml version="1.0" encoding="UTF-8" standalone="no"?>
<svg width="17px" height="15px" viewBox="0 0 17 15" version="1.1" xmlns="http://www.w3.org/2000/svg" xmlns:xlink="http://www.w3.org/1999/xlink">
    <!-- Generator: Sketch 3.6 (26304) - http://www.bohemiancoding.com/sketch -->
    <title>tag</title>
    <desc>Created with Sketch.</desc>
    <defs></defs>
    <g id="Page-1" stroke="none" stroke-width="1" fill="none" fill-rule="evenodd">
        <g id="Mobile-Portrait" transform="translate(-74.000000, -45.000000)">
            <g id="TopSearchOn">
                <g id="Category" transform="translate(74.000000, 42.000000)">
                    <g id="tag" transform="translate(0.000000, 3.000000)">
                        <path d="M17,7.93571429 L10.605875,14.3835714 L2.83333333,6.43857143 L2.83333333,0 L9.12120833,0 L17,7.93571429 L17,7.93571429 Z" id="Path" fill="#D44319"></path>
                        <path d="M8.21808333,13.9742857 L7.24908333,15 L0,7.67285714 L0,2.14285714 L1.41666667,2.14285714 L1.41666667,7.065 L8.21808333,13.9742857 L8.21808333,13.9742857 Z" id="Path" fill="#A52101"></path>
                        <path d="M6.89704167,4.09714286 C7.38154167,3.60857143 7.380125,2.81785714 6.89633333,2.32928571 C6.41183333,1.84071429 5.62770833,1.84071429 5.14320833,2.32928571 C4.65870833,2.81785714 4.65870833,3.60857143 5.14320833,4.09714286 C5.62770833,4.58571429 6.41325,4.58571429 6.89704167,4.09714286 L6.89704167,4.09714286 Z" id="Path" fill="#FFFFFF"></path>
                        <path d="M13.0340417,7.97714286 L9.52779167,4.44214286 L9.027,4.94714286 L12.53325,8.48214286 L13.0340417,7.97714286 L13.0340417,7.97714286 Z" id="Path" fill="#FFFFFF"></path>
                        <path d="M12.03175,8.98857143 L8.52620833,5.45214286 L8.02541667,5.95714286 L11.5309583,9.49357143 L12.03175,8.98857143 L12.03175,8.98857143 Z" id="Path" fill="#FFFFFF"></path>
                        <path d="M10.0285833,8.98857143 L7.524625,6.46214286 L7.02383333,6.96714286 L9.52779167,9.49357143 L10.0285833,8.98857143 L10.0285833,8.98857143 Z" id="Path" fill="#FFFFFF"></path>
                    </g>
                </g>
            </g>
        </g>
    </g>
</svg>