<?xml version="1.0" encoding="UTF-8" standalone="no"?>
<svg width="24px" height="21px" viewBox="0 0 24 21" version="1.1" xmlns="http://www.w3.org/2000/svg" xmlns:xlink="http://www.w3.org/1999/xlink">
    <!-- Generator: Sketch 3.6.1 (26313) - http://www.bohemiancoding.com/sketch -->
    <title>Shape</title>
    <desc>Created with Sketch.</desc>
    <defs></defs>
    <g id="Page-1" stroke="none" stroke-width="1" fill="none" fill-rule="evenodd">
        <path d="M12.876,0 L4,0 L4,9.015 L14.972,20.139 L24,11.111 L12.876,1.77635684e-15 L12.876,0 Z M9.737,5.737 C9.053,6.421 7.946,6.421 7.262,5.737 C6.578,5.053 6.578,3.946 7.262,3.263 C7.946,2.579 9.053,2.579 9.737,3.263 C10.421,3.946 10.421,5.054 9.737,5.737 L9.737,5.737 Z M11.603,19.564 L10.234,21 L0,10.743 L0,3 L2,3 L2,9.891 L11.603,19.564 L11.603,19.564 Z" id="Shape" fill="#A6A6A6"></path>
    </g>
</svg>