<?xml version="1.0" encoding="utf-8"?>
<!-- Generator: Adobe Illustrator 16.0.0, SVG Export Plug-In . SVG Version: 6.00 Build 0)  -->
<!DOCTYPE svg PUBLIC "-//W3C//DTD SVG 1.1//EN" "http://www.w3.org/Graphics/SVG/1.1/DTD/svg11.dtd">
<svg version="1.1" id="Layer_1" xmlns="http://www.w3.org/2000/svg" xmlns:xlink="http://www.w3.org/1999/xlink" x="0px" y="0px"
	 width="120px" height="120px" viewBox="0 0 120 120" enable-background="new 0 0 120 120" xml:space="preserve">
<g>
	<path fill="#FFFFFF" d="M14.11,47.592c0,0-9.675-2.062-7.613-14.592C9.67,16.504,41.075,3.18,70.261,3.18
		c65.507,0,52.342,77.721-7.932,86.446c-6.821,0.951-13.799,0.475-18.082-1.11c-2.379,9.991-3.172,15.858-3.014,23.631
		c-1.745,2.222-6.028,5.078-10.627,5.078c-13.166,0-17.13-11.896-15.227-26.806c1.111-16.021,13.482-42.351,17.131-55.674
		C24.58,37.917,15.38,45.373,14.11,47.592z M59.475,34.586L48.53,73.289c47.584-6.98,45.204-53.295,12.688-45.84
		C61.219,28.4,60.109,33,59.475,34.586z"/>
</g>
<g>
</g>
<g>
</g>
<g>
</g>
<g>
</g>
<g>
</g>
<g>
</g>
<g>
</g>
<g>
</g>
<g>
</g>
<g>
</g>
<g>
</g>
<g>
</g>
<g>
</g>
<g>
</g>
<g>
</g>
</svg>
