<?xml version="1.0" encoding="UTF-8" standalone="no"?>
<svg width="60px" height="67px" viewBox="0 0 60 67" version="1.1" xmlns="http://www.w3.org/2000/svg" xmlns:xlink="http://www.w3.org/1999/xlink" xmlns:sketch="http://www.bohemiancoding.com/sketch/ns">
    <!-- Generator: Sketch 3.5.2 (25235) - http://www.bohemiancoding.com/sketch -->
    <title>Logo</title>
    <desc>Created with Sketch.</desc>
    <defs></defs>
    <g id="Page-1" stroke="none" stroke-width="1" fill="none" fill-rule="evenodd" sketch:type="MSPage">
        <g id="Mobile-Portrait" sketch:type="MSArtboardGroup" transform="translate(-10.000000, -10.000000)">
            <g id="Logo" sketch:type="MSLayerGroup" transform="translate(10.000000, 10.000000)">
                <g id="maukasta" transform="translate(5.200000, 56.630952)" fill="#9E2200" sketch:type="MSShapeGroup">
                    <path d="M10.6424,0.446666667 L11.5132,0.446666667 C11.7596,0.446666667 11.9668,0.616958333 12.014,0.858238095 L13.75,9.73015476 C13.768,9.82307738 13.746,9.91001786 13.686,9.98260119 C13.6256,10.0555833 13.544,10.093869 13.4496,10.093869 L12.5772,10.093869 C12.3252,10.093869 12.114,9.91480357 12.0736,9.66674405 L11.8432,8.25615476 L10.2252,8.25615476 L9.9584,9.67870833 C9.9128,9.92158333 9.7048,10.093869 9.4568,10.093869 L8.6368,10.093869 C8.5416,10.093869 8.46,10.0551845 8.4,9.98180357 C8.3396,9.90842262 8.318,9.82108333 8.3368,9.72816071 L10.142,0.85425 C10.1912,0.614964286 10.3972,0.446666667 10.6424,0.446666667 L10.6424,0.446666667 Z M10.4052,7.04018452 L11.6488,7.04018452 L11.0192,3.24351786 L10.4052,7.04018452 L10.4052,7.04018452 Z" id="Fill-8"></path>
                    <path d="M15.0696,0.446666667 L16.1056,0.446666667 C16.2744,0.446666667 16.412,0.583857143 16.412,0.752154762 L16.412,6.78375 C16.412,7.31336905 16.2764,8.89066071 17.146,8.89066071 C18.0068,8.89066071 17.8652,7.3069881 17.8652,6.78375 L17.8652,0.752154762 C17.8652,0.583857143 18.0028,0.446666667 18.1712,0.446666667 L19.222,0.446666667 C19.3908,0.446666667 19.5284,0.583857143 19.5284,0.752154762 L19.5284,7.77000595 C19.5284,9.20173214 18.8484,10.215506 17.146,10.215506 C15.4636,10.215506 14.7636,9.18617857 14.7636,7.77000595 L14.7636,0.752154762 C14.7636,0.583857143 14.9012,0.446666667 15.0696,0.446666667" id="Fill-9"></path>
                    <path d="M21.5096,0.446666667 L22.5456,0.446666667 C22.7144,0.446666667 22.8516,0.583857143 22.8516,0.752154762 L22.8516,4.41920833 L23.0916,4.43236905 L24.5232,0.77089881 C24.6012,0.571494048 24.784,0.446666667 24.9984,0.446666667 L25.8608,0.446666667 C25.9672,0.446666667 26.0584,0.496119048 26.1168,0.584654762 C26.1752,0.673190476 26.184,0.776482143 26.1416,0.873791667 L24.3948,4.8786369 L26.432,9.66953571 C26.4736,9.76644643 26.464,9.86894048 26.4056,9.95707738 C26.3472,10.0452143 26.2564,10.093869 26.1504,10.093869 L25.2076,10.093869 C24.9932,10.093869 24.8104,9.96944048 24.7324,9.77083333 L23.1068,5.63517857 L22.8516,5.63517857 L22.8516,9.78877976 C22.8516,9.95667857 22.7144,10.093869 22.5456,10.093869 L21.5096,10.093869 C21.3412,10.093869 21.2036,9.95667857 21.2036,9.78877976 L21.2036,0.752154762 C21.2036,0.583857143 21.3412,0.446666667 21.5096,0.446666667" id="Fill-10"></path>
                    <path d="M29.6492,0.446666667 L30.5196,0.446666667 C30.766,0.446666667 30.9736,0.616958333 31.0204,0.858238095 L32.7568,9.73015476 C32.7752,9.82307738 32.7528,9.91001786 32.6924,9.98260119 C32.6324,10.0555833 32.5508,10.093869 32.4564,10.093869 L31.584,10.093869 C31.3316,10.093869 31.1208,9.91480357 31.08,9.66674405 L30.85,8.25615476 L29.232,8.25615476 L28.9652,9.67870833 C28.9196,9.92158333 28.7116,10.093869 28.4636,10.093869 L27.6432,10.093869 C27.5484,10.093869 27.4668,10.0551845 27.4068,9.98180357 C27.3464,9.90842262 27.3248,9.82108333 27.3432,9.72816071 L29.1492,0.85425 C29.1976,0.614964286 29.404,0.446666667 29.6492,0.446666667 L29.6492,0.446666667 Z M29.4116,7.04018452 L30.6556,7.04018452 L30.0256,3.24351786 L29.4116,7.04018452 L29.4116,7.04018452 Z" id="Fill-11"></path>
                    <path d="M35.206,7.3995119 C35.2064,7.99294048 35.26,8.86952381 35.9568,8.89145833 C36.1564,8.89145833 36.3212,8.81249405 36.4512,8.65496429 C36.5808,8.49703571 36.6208,8.25615476 36.5708,7.93192262 C36.5308,7.562625 36.366,7.15743452 36.0764,6.71595238 C35.9368,6.47267857 35.7368,6.189125 35.4768,5.86489286 C34.768,4.95480952 34.3108,4.31113095 34.1064,3.93266071 C33.9012,3.55419048 33.814,3.09954762 33.8436,2.56793452 C33.854,1.90152381 34.0436,1.36552381 34.4132,0.960333333 C34.7828,0.554744048 35.2524,0.34297619 35.822,0.325029762 C36.6108,0.289136905 37.1776,0.51885119 37.5224,1.01417262 C37.818,1.43930357 38.0124,1.99005952 38.106,2.6672381 C38.1184,2.75776786 38.0936,2.84032143 38.0336,2.90931548 C37.9732,2.97791071 37.894,3.01380357 37.8028,3.01380357 L36.9596,3.01380357 C36.8044,3.01380357 36.6752,2.90014286 36.656,2.74660119 C36.5952,2.26125 36.4716,1.541 35.9716,1.56811905 C35.652,1.58606548 35.4872,1.80700595 35.4768,2.23014286 C35.4472,2.74380952 35.7764,3.40104762 36.466,4.20305357 C36.586,4.35619643 36.6984,4.49577976 36.8032,4.62180357 C36.9084,4.74782738 37.0404,4.91891667 37.2,5.13507143 C37.52,5.54943452 37.772,5.9841369 37.9572,6.43917857 C38.1416,6.89382143 38.2192,7.37358929 38.1892,7.87808333 C38.1588,8.5803869 37.9268,9.14589881 37.492,9.57382143 C37.058,10.001744 36.5412,10.215506 35.9416,10.215506 C35.2124,10.215506 34.6356,9.90682738 34.2108,9.28986905 C33.8348,8.74310119 33.6724,8.10540476 33.724,7.37797619 C33.7352,7.21765476 33.868,7.09442262 34.0292,7.09442262 L34.8996,7.09442262 C35.0684,7.09442262 35.206,7.23121429 35.206,7.3995119" id="Fill-12"></path>
                    <path d="M43.6404,0.752154762 L43.6404,1.39822619 C43.6404,1.566125 43.5028,1.70331548 43.3344,1.70331548 L42.0372,1.70331548 L42.0372,9.78877976 C42.0372,9.95667857 41.8996,10.093869 41.7308,10.093869 L40.68,10.093869 C40.5112,10.093869 40.374,9.95667857 40.374,9.78877976 L40.374,1.70331548 L39.0916,1.70331548 C38.9236,1.70331548 38.7856,1.566125 38.7856,1.39822619 L38.7856,0.752154762 C38.7856,0.583857143 38.9236,0.446666667 39.0916,0.446666667 L43.3344,0.446666667 C43.5028,0.446666667 43.6404,0.583857143 43.6404,0.752154762" id="Fill-13"></path>
                    <path d="M46.0812,0.446666667 L46.952,0.446666667 C47.1984,0.446666667 47.4056,0.616958333 47.4528,0.858238095 L49.1888,9.73015476 C49.2072,9.82307738 49.1848,9.91001786 49.1248,9.98260119 C49.0644,10.0555833 48.9828,10.093869 48.8884,10.093869 L48.016,10.093869 C47.7636,10.093869 47.5528,9.91480357 47.512,9.66674405 L47.282,8.25615476 L45.664,8.25615476 L45.3972,9.67870833 C45.3516,9.92158333 45.1436,10.093869 44.8956,10.093869 L44.0756,10.093869 C43.9804,10.093869 43.8988,10.0551845 43.8388,9.98180357 C43.7784,9.90842262 43.7568,9.82108333 43.7756,9.72816071 L45.5808,0.85425 C45.6296,0.614964286 45.836,0.446666667 46.0812,0.446666667 L46.0812,0.446666667 Z M45.8436,7.04018452 L47.0876,7.04018452 L46.4584,3.24351786 L45.8436,7.04018452 L45.8436,7.04018452 Z" id="Fill-14"></path>
                    <path d="M2.5084,0.85464881 L3.6944,6.6960119 L4.8808,0.85464881 C4.9296,0.614964286 5.1356,0.446666667 5.3812,0.446666667 L6.9676,0.446666667 C7.136,0.446666667 7.274,0.583857143 7.274,0.752154762 L7.274,9.78877976 C7.274,9.95667857 7.136,10.093869 6.9676,10.093869 L6.0368,10.093869 C5.868,10.093869 5.7304,9.95667857 5.7304,9.78877976 L5.7304,3.24351786 L5.674,3.24351786 L4.4116,9.68269643 C4.3648,9.92397619 4.1576,10.093869 3.9108,10.093869 L3.478,10.093869 C3.2316,10.093869 3.0248,9.92397619 2.9772,9.68269643 L1.7156,3.24351786 L1.6584,3.24351786 L1.6584,9.78877976 C1.6584,9.95667857 1.5212,10.093869 1.3524,10.093869 L0.4216,10.093869 C0.2528,10.093869 0.1156,9.95667857 0.1156,9.78877976 L0.1156,0.752154762 C0.1156,0.583857143 0.2528,0.446666667 0.4216,0.446666667 L2.0084,0.446666667 C2.2532,0.446666667 2.4596,0.614964286 2.5084,0.85464881" id="Fill-15"></path>
                </g>
                <path d="M12.764,22.982994 L46.946,22.982994 C47.3472,22.982994 47.6752,23.309619 47.6752,23.709625 L47.6752,24.5710536 C47.6752,24.9706607 47.3472,25.2976845 46.946,25.2976845 L12.764,25.2976845 C12.3628,25.2976845 12.0348,24.9706607 12.0348,24.5710536 L12.0348,23.709625 C12.0348,23.309619 12.3628,22.982994 12.764,22.982994" id="kansi" fill="#9F2100" sketch:type="MSShapeGroup"></path>
                <path d="M29.8552,18.5733571 C31.734,18.5733571 33.2572,20.0920238 33.2572,21.9652321 L31.6372,21.9652321 C31.6372,20.9837619 30.8396,20.1885357 29.8552,20.1885357 C28.8708,20.1885357 28.0732,20.9837619 28.0732,21.9652321 L26.4532,21.9652321 C26.4532,20.0920238 27.976,18.5733571 29.8552,18.5733571" id="nuppi" fill="#C04C29" sketch:type="MSShapeGroup"></path>
                <g id="kattilanrunko" transform="translate(13.600000, 25.922619)" sketch:type="MSShapeGroup">
                    <path d="M0.2168,0.392827381 L32.2928,0.392827381 L32.2928,22.5742143 C32.2928,24.469756 30.738,26.0203274 28.8368,26.0203274 L3.6732,26.0203274 C1.7724,26.0203274 0.2168,24.469756 0.2168,22.5746131 L0.2168,0.392827381" id="Fill-18" fill="#D44319"></path>
                    <path d="M3.3276,3.29057738 C3.3276,2.72865476 3.7844,2.27281548 4.348,2.27281548 C4.9116,2.27281548 5.3684,2.72865476 5.3684,3.29057738 L5.3684,22.5746131 C5.3684,23.1361369 4.9116,23.5919762 4.348,23.5919762 C3.7844,23.5919762 3.3276,23.1361369 3.3276,22.5746131 L3.3276,3.29057738" id="Fill-19" fill="#E07C3E"></path>
                    <path d="M28.3656,3.29057738 L28.3656,4.53566071 L29.2972,4.53566071 C29.5792,4.53566071 29.808,4.76338095 29.808,5.04414286 C29.808,5.32530357 29.5792,5.552625 29.2972,5.552625 L28.3656,5.552625 L28.3656,6.79770833 L29.2972,6.79770833 C29.5792,6.79770833 29.808,7.02542857 29.808,7.30619048 C29.808,7.58735119 29.5792,7.81507143 29.2972,7.81507143 L28.3656,7.81507143 L28.3656,9.05975595 L29.2972,9.05975595 C29.5792,9.05975595 29.808,9.287875 29.808,9.5686369 C29.808,9.84939881 29.5792,10.0775179 29.2972,10.0775179 L28.3656,10.0775179 L28.3656,11.3218036 L29.2972,11.3218036 C29.5792,11.3218036 29.808,11.5499226 29.808,11.8306845 C29.808,12.1114464 29.5792,12.3395655 29.2972,12.3395655 L28.3656,12.3395655 L28.3656,13.58425 L29.2972,13.58425 C29.5792,13.58425 29.808,13.8119702 29.808,14.093131 C29.808,14.3738929 29.5792,14.6016131 29.2972,14.6016131 L28.3656,14.6016131 L28.3656,15.8462976 L29.2972,15.8462976 C29.5792,15.8462976 29.808,16.0740179 29.808,16.3547798 C29.808,16.6359405 29.5792,16.8636607 29.2972,16.8636607 L28.3656,16.8636607 L28.3656,18.1083452 L29.2972,18.1083452 C29.5792,18.1083452 29.808,18.3364643 29.808,18.6172262 C29.808,18.8979881 29.5792,19.1261071 29.2972,19.1261071 L28.3656,19.1261071 L28.3656,20.3707917 L29.2972,20.3707917 C29.5792,20.3707917 29.808,20.5985119 29.808,20.8792738 C29.808,21.1604345 29.5792,21.3881548 29.2972,21.3881548 L28.3656,21.3881548 L28.3656,22.5746131 C28.3656,22.593756 28.3648,22.6132976 28.3636,22.6328393 L29.2972,22.6328393 C29.5792,22.6328393 29.808,22.8605595 29.808,23.1417202 C29.808,23.4224821 29.5792,23.6502024 29.2972,23.6502024 L18.2056,23.6502024 C17.9236,23.6502024 17.6952,23.4224821 17.6952,23.1417202 C17.6952,22.8605595 17.9236,22.6328393 18.2056,22.6328393 L21.5456,22.6328393 C21.5448,22.6132976 21.544,22.593756 21.544,22.5746131 L21.544,21.3881548 L18.2056,21.3881548 C17.9236,21.3881548 17.6952,21.1604345 17.6952,20.8792738 C17.6952,20.5985119 17.9236,20.3707917 18.2056,20.3707917 L21.544,20.3707917 L21.544,19.1261071 L18.2056,19.1261071 C17.9236,19.1261071 17.6952,18.8979881 17.6952,18.6172262 C17.6952,18.3364643 17.9236,18.1083452 18.2056,18.1083452 L21.544,18.1083452 L21.544,16.8636607 L18.2056,16.8636607 C17.9236,16.8636607 17.6952,16.6359405 17.6952,16.3547798 C17.6952,16.0740179 17.9236,15.8462976 18.2056,15.8462976 L21.544,15.8462976 L21.544,14.6016131 L18.2056,14.6016131 C17.9236,14.6016131 17.6952,14.3738929 17.6952,14.093131 C17.6952,13.8119702 17.9236,13.58425 18.2056,13.58425 L21.544,13.58425 L21.544,12.3395655 L18.2056,12.3395655 C17.9236,12.3395655 17.6952,12.1114464 17.6952,11.8306845 C17.6952,11.5499226 17.9236,11.3218036 18.2056,11.3218036 L21.544,11.3218036 L21.544,10.0775179 L18.2056,10.0775179 C17.9236,10.0775179 17.6952,9.84939881 17.6952,9.5686369 C17.6952,9.287875 17.9236,9.05975595 18.2056,9.05975595 L21.544,9.05975595 L21.544,7.81507143 L18.2056,7.81507143 C17.9236,7.81507143 17.6952,7.58735119 17.6952,7.30619048 C17.6952,7.02542857 17.9236,6.79770833 18.2056,6.79770833 L21.544,6.79770833 L21.544,5.552625 L18.2056,5.552625 C17.9236,5.552625 17.6952,5.32530357 17.6952,5.04414286 C17.6952,4.76338095 17.9236,4.53566071 18.2056,4.53566071 L21.544,4.53566071 L21.544,3.29057738 L18.2056,3.29057738 C17.9236,3.29057738 17.6952,3.06245833 17.6952,2.78169643 C17.6952,2.50093452 17.9236,2.27281548 18.2056,2.27281548 L29.2972,2.27281548 C29.5792,2.27281548 29.808,2.50093452 29.808,2.78169643 C29.808,3.06245833 29.5792,3.29057738 29.2972,3.29057738 L28.3656,3.29057738" id="Fill-20" fill="#A52000"></path>
                </g>
                <path d="M21.4256,7.74767262 C21.2424,7.90041667 20.9692,7.8764881 20.816,7.69383333 C20.6624,7.51077976 20.6868,7.23839286 20.87,7.08564881 C21.016,6.9640119 21.0924,6.8300119 21.1132,6.70159524 C21.1248,6.62821429 21.1188,6.5532381 21.0976,6.48185119 C21.076,6.40847024 21.0368,6.33788095 20.9836,6.27447024 C20.8804,6.15083929 20.7248,6.0591131 20.5352,6.02920238 C20.3252,5.99610119 20.146,6.02720833 20.0008,6.10457738 C19.8244,6.19869643 19.6856,6.36539881 19.5936,6.5703869 C19.4928,6.79451786 19.4492,7.06251786 19.4704,7.33769643 C19.4972,7.68147024 19.6292,8.03042857 19.8828,8.31079167 C20.0768,8.52495238 20.3208,8.66972024 20.5868,8.74908333 C20.8996,8.84200595 21.2452,8.84519643 21.5808,8.76543452 C21.9196,8.684875 22.246,8.51936905 22.516,8.27689286 C22.784,8.0356131 22.9976,7.71576786 23.1148,7.32493452 C23.3488,6.54326786 23.2364,5.83697619 22.9096,5.2718631 L22.9088,5.2722619 C22.7284,4.96119048 22.4832,4.69 22.1948,4.47025595 C21.904,4.24851786 21.5692,4.07902381 21.2128,3.97333929 C20.486,3.75678571 19.6728,3.8062381 18.9632,4.21461905 C18.842,4.28441071 18.7296,4.35619643 18.626,4.42957738 C17.6184,5.14344643 17.2652,6.12770833 17.2992,7.16820238 C17.3348,8.26572619 17.7888,9.43583333 18.3728,10.4440238 C18.5452,10.7419345 18.728,11.0238929 18.9136,11.2843155 C19.89,12.6542262 20.552,14.2686071 20.52,15.8032262 C20.4924,17.1348512 19.9536,18.3962857 18.6696,19.381744 C17.6084,20.1961131 16.3112,20.4760774 15.0968,20.3153571 C14.4872,20.2347976 13.8992,20.0437679 13.3724,19.754631 C12.8408,19.4631012 12.3684,19.0702738 11.9964,18.5885119 C11.3528,17.755 11.012,16.6630595 11.1836,15.3757024 C11.278,14.6662202 11.5608,14.0524524 11.96,13.559125 C12.3596,13.065 12.8768,12.690119 13.4396,12.4580119 C14.0048,12.2247083 14.6184,12.1357738 15.208,12.2139405 C15.736,12.2837321 16.244,12.4863274 16.6808,12.8376786 C17.2388,13.2863393 17.5888,13.8969167 17.7408,14.5278333 C17.8616,15.0303333 17.8576,15.5471905 17.7332,16.006619 C17.6032,16.488381 17.3412,16.9139107 16.9528,17.2074345 C16.6168,17.4614762 16.196,17.6130238 15.6952,17.6130238 C15.1976,17.6130238 14.7548,17.434756 14.4272,17.1512024 C14.246,16.9932738 14.0992,16.802244 13.9976,16.5904762 C13.8944,16.3747202 13.838,16.1378274 13.838,15.8917619 C13.838,15.4977381 13.9816,15.085369 14.3104,14.708494 C14.4676,14.528631 14.7416,14.5094881 14.922,14.666619 C15.1024,14.8229524 15.1216,15.0961369 14.9644,15.276 C14.784,15.4825833 14.7052,15.6959464 14.7052,15.8917619 C14.7052,16.0062202 14.732,16.1174881 14.7804,16.2187857 C14.8304,16.3232738 14.9044,16.4189881 14.9968,16.4991488 C15.1732,16.6522917 15.4168,16.748006 15.6952,16.748006 C15.998,16.748006 16.2432,16.6634583 16.4308,16.521881 C16.6576,16.3503929 16.814,16.0879762 16.8964,15.7836845 C16.9848,15.4566607 16.9872,15.0877619 16.9004,14.7268393 C16.7908,14.2717976 16.5392,13.8319107 16.1384,13.5096726 C15.8296,13.2616131 15.47,13.1180417 15.096,13.0685893 C14.6576,13.0107619 14.1968,13.0789583 13.7684,13.2552321 C13.3376,13.4327024 12.9412,13.720244 12.6344,14.0995119 C12.3292,14.4767857 12.1128,14.9453869 12.0408,15.487369 C11.9024,16.5274643 12.1708,17.4008571 12.6808,18.0616845 C12.978,18.4461369 13.3584,18.761994 13.7892,18.9980893 C14.2248,19.2369762 14.7088,19.394506 15.2088,19.4607083 C16.2088,19.5931131 17.274,19.364994 18.1412,18.6989821 C19.1924,17.8917917 19.6336,16.8660536 19.656,15.7864762 C19.6836,14.4508631 19.0876,13.0171429 18.2088,11.7840238 C18.006,11.5000714 17.8084,11.1949821 17.624,10.8763333 C16.9784,9.76205952 16.476,8.45197024 16.4352,7.19532143 C16.392,5.88124405 16.842,4.6357619 18.1248,3.726875 C18.2528,3.63594643 18.3876,3.54940476 18.5292,3.46804762 C19.46,2.93204762 20.5188,2.86544643 21.46,3.14541071 C21.9156,3.28100595 22.3452,3.49915476 22.72,3.78470238 C23.0972,4.07224405 23.4196,4.42877976 23.6576,4.83995238 L23.6576,4.84194643 C24.098,5.60207738 24.2528,6.54247024 23.9448,7.57139881 C23.7796,8.12295238 23.4764,8.57560119 23.0952,8.91817857 C22.7148,9.26075595 22.2564,9.49366071 21.7804,9.60692262 C21.3012,9.72058333 20.8008,9.71380357 20.3392,9.5766131 C19.9256,9.45377976 19.5448,9.22605952 19.2388,8.88826786 C18.8496,8.45835119 18.6476,7.92554167 18.6068,7.40190476 C18.5744,6.98754167 18.6444,6.57397619 18.804,6.21903571 C18.972,5.84495238 19.24,5.53348214 19.594,5.34484524 C19.9,5.18173214 20.2628,5.1131369 20.6708,5.17814286 C21.0784,5.24275 21.4172,5.44534524 21.648,5.720125 C21.7764,5.87326786 21.872,6.04994048 21.9276,6.23857738 C21.9844,6.42920833 21.9996,6.63260119 21.9668,6.83679167 C21.9152,7.16261905 21.7436,7.48246429 21.4256,7.74767262" id="Fill-21" fill="#B1986B" sketch:type="MSShapeGroup"></path>
                <path d="M28.1336,13.9040952 C28.0048,13.703494 28.0632,13.4366905 28.2644,13.307875 C28.4656,13.1794583 28.7332,13.2376845 28.862,13.4378869 C29.086,13.7844524 29.1508,14.1373988 29.0984,14.4580417 C29.0672,14.649869 28.9936,14.8273393 28.8876,14.9824762 C28.7832,15.1340238 28.6472,15.2652321 28.4884,15.3673274 C28.1824,15.5639405 27.788,15.6552679 27.37,15.5874702 C26.9528,15.5196726 26.6248,15.336619 26.3844,15.0809821 C26.1168,14.796631 25.9644,14.4289286 25.9236,14.0349048 C25.884,13.661619 25.946,13.2616131 26.104,12.891119 C26.3024,12.4257083 26.654,12.0017738 27.1496,11.7277917 C27.5288,11.5184167 27.942,11.4262917 28.3552,11.433869 C28.85,11.4430417 29.3428,11.5949881 29.7732,11.8578036 C30.202,12.1198214 30.5736,12.4943036 30.8264,12.9501429 C31.0584,13.3665 31.1916,13.8498571 31.182,14.3770833 C31.1632,15.3553631 30.7888,16.1314464 30.2144,16.6857917 C29.8692,17.0195952 29.4524,17.2708452 28.9992,17.4355536 C28.5532,17.597869 28.0696,17.6760357 27.5832,17.6668631 C26.598,17.6485179 25.5956,17.2720417 24.8516,16.5055298 C24.3532,15.9922619 24.024,15.353369 23.8692,14.6869583 C23.7096,13.9998095 23.736,13.2775655 23.954,12.6298988 C24.0412,12.3706726 24.1384,12.0950952 24.2408,11.8043631 C24.8752,10.0045357 25.7232,7.59851786 25.454,5.51194643 C25.3632,4.80605357 25.1584,4.1328631 24.758,3.53066071 C24.3568,2.9272619 23.754,2.38727381 22.866,1.94459524 C22.6524,1.8381131 22.5664,1.57968452 22.6728,1.36672024 C22.7792,1.15415476 23.0388,1.0680119 23.252,1.17409524 C24.2892,1.69095238 24.9996,2.3322381 25.4796,3.05408333 C25.96,3.77672619 26.2044,4.57354762 26.3112,5.40386905 C26.6064,7.69303571 25.72,10.207131 25.0576,12.0883155 C24.9552,12.3774524 24.8588,12.6514345 24.774,12.9034821 C24.6072,13.3996012 24.5884,13.9579345 24.7128,14.4943333 C24.8332,15.0135833 25.0876,15.5089048 25.4716,15.904125 C26.0492,16.4991488 26.8292,16.7910774 27.5964,16.8058333 C27.9776,16.8126131 28.356,16.7515952 28.7044,16.6247738 C29.0448,16.5011429 29.356,16.3141012 29.6112,16.0676369 C30.0304,15.6628452 30.3044,15.0905536 30.318,14.3635238 C30.3252,13.9950238 30.232,13.6584286 30.0712,13.3692917 C29.8916,13.0466548 29.628,12.7810476 29.3224,12.594006 C29.0188,12.4085595 28.6772,12.3016786 28.3416,12.2952976 C28.0748,12.2905119 27.8096,12.3487381 27.57,12.4811429 C27.2532,12.6558214 27.028,12.9286071 26.9,13.2289107 C26.7996,13.4646071 26.7596,13.7158571 26.784,13.9471667 C26.806,14.1577381 26.8824,14.3495655 27.0148,14.4899464 C27.1296,14.6119821 27.2936,14.7009167 27.5092,14.7360119 C27.7052,14.7679167 27.8852,14.7280357 28.0208,14.6410952 C28.0824,14.6012143 28.134,14.5517619 28.1728,14.4955298 C28.2092,14.4424881 28.2344,14.3826667 28.2444,14.3196548 C28.264,14.2000119 28.2332,14.0576369 28.1336,13.9040952" id="Fill-22" fill="#B1986B" sketch:type="MSShapeGroup"></path>
                <path d="M44.9324,13.9300179 C44.7256,14.0484643 44.4616,13.9774762 44.3428,13.7708929 C44.2244,13.5651071 44.2952,13.3018929 44.5024,13.1834464 C44.7184,13.0594167 44.85,12.8986964 44.9084,12.7296012 C44.942,12.6310952 44.9524,12.5282024 44.9412,12.4277024 L44.9412,12.4261071 C44.9288,12.3204226 44.894,12.2163333 44.8396,12.1214167 C44.7332,11.9379643 44.5512,11.7832262 44.3092,11.7002738 C44.0472,11.6101429 43.8084,11.6105417 43.602,11.6779405 C43.354,11.7588988 43.1396,11.9399583 42.9764,12.1796429 C42.8004,12.4392679 42.6868,12.7611071 42.6536,13.1028869 C42.6116,13.5363929 42.6984,13.9986131 42.9516,14.4010119 C43.1472,14.7116845 43.4192,14.9457857 43.732,15.102119 C44.0976,15.2847738 44.5232,15.3633393 44.954,15.3374167 C45.3876,15.311494 45.8236,15.1786905 46.2076,14.9386071 C46.5912,14.6989226 46.924,14.3519583 47.152,13.8973155 C47.5904,13.0239226 47.6196,12.1728631 47.3712,11.4362619 C47.2264,11.006744 46.988,10.6135179 46.6812,10.2757262 C46.3712,9.93434524 45.9916,9.64879762 45.5696,9.43822619 C44.7288,9.01867857 43.7204,8.89744048 42.752,9.22207143 C42.1256,9.43184524 41.6016,9.82148214 41.1852,10.3088274 C40.7064,10.8699524 40.3676,11.5642798 40.178,12.2689762 C39.864,13.4382857 39.964,15.0761964 40.744,16.6207857 C41.3636,17.8483214 42.4128,19.0140417 44.0252,19.8359881 C44.238,19.9444643 44.322,20.2040893 44.2136,20.4158571 C44.1052,20.6272262 43.8444,20.711375 43.6324,20.6032976 C41.8368,19.687631 40.6656,18.3843214 39.9716,17.009625 C39.0892,15.2608452 38.9796,13.3904286 39.3412,12.0460417 C39.5604,11.228881 39.9588,10.4177024 40.5276,9.75129167 C41.0416,9.1494881 41.6936,8.66692857 42.4772,8.4041131 C43.6752,8.00330952 44.9204,8.15126786 45.956,8.668125 C46.4736,8.92615476 46.9396,9.27710714 47.3216,9.69825 C47.7076,10.1229821 48.0084,10.6191012 48.1916,11.1626786 C48.5084,12.1042679 48.4752,13.1846429 47.9244,14.2825655 C47.6204,14.8879583 47.178,15.349381 46.6684,15.6684286 C46.1576,15.987875 45.5788,16.1641488 45.0048,16.1988452 C44.4276,16.2335417 43.8504,16.1242679 43.3456,15.8722202 C42.894,15.6472917 42.5024,15.3095 42.2196,14.8604405 C41.8584,14.2861548 41.734,13.6321071 41.7928,13.0215298 C41.8404,12.5329881 42.0044,12.0707679 42.2584,11.6966845 C42.5252,11.3030595 42.8932,11.0015595 43.3344,10.8571905 C43.714,10.7331607 44.1396,10.7275774 44.5904,10.8827143 C45.0376,11.036256 45.3812,11.3341667 45.5884,11.6922976 C45.7032,11.8917024 45.776,12.1086548 45.8016,12.329994 C45.8276,12.5565179 45.8048,12.7882262 45.728,13.0099643 C45.606,13.364506 45.3472,13.6919286 44.9324,13.9300179" id="Fill-23" fill="#B1986B" sketch:type="MSShapeGroup"></path>
                <path d="M32.9696,7.39552381 C33.208,7.41107738 33.3888,7.6168631 33.3728,7.85455357 C33.3572,8.09264286 33.1504,8.27250595 32.912,8.25655357 C32.4984,8.2286369 32.176,8.06871429 31.9516,7.83341667 C31.8192,7.69582738 31.7228,7.53191667 31.6628,7.35484524 C31.6048,7.18216071 31.5816,6.99830952 31.5944,6.81366071 C31.62,6.43997619 31.7904,6.055125 32.1088,5.75202976 C32.4252,5.45092857 32.7812,5.29658929 33.1408,5.26109524 C33.5272,5.22241071 33.9084,5.32370833 34.2428,5.52710119 C34.5616,5.720125 34.8396,6.00846429 35.0364,6.35582738 C35.2888,6.8005 35.412,7.34647024 35.3232,7.91796429 C35.256,8.349875 35.0736,8.7391131 34.8124,9.06773214 L34.8124,9.06932738 C34.4968,9.46614286 34.0636,9.77482143 33.5776,9.96385714 C33.0952,10.1508988 32.5576,10.219494 32.0288,10.1377381 C31.5708,10.06675 31.1204,9.88329762 30.72,9.56664286 L30.7184,9.56664286 C29.9728,8.97760119 29.5856,8.22983333 29.4836,7.45175595 C29.4196,6.95882738 29.4708,6.45792262 29.6188,5.97975 C29.7648,5.50875595 30.0056,5.05810119 30.322,4.66008929 C30.9432,3.877625 31.8608,3.29616071 32.93,3.157375 C33.9164,3.02935714 34.796,3.2538869 35.5352,3.71770238 C36.3352,4.22020238 36.9632,5.00266667 37.3756,5.91793452 C38.1752,7.69183929 37.5952,9.79396429 36.9916,11.9794405 C36.2984,14.490744 35.572,17.1216905 37.07,19.2194286 C37.2752,19.5069702 37.5264,19.7470536 37.8276,19.8810536 C38.0788,19.9927202 38.3752,20.0341964 38.7224,19.9715833 C38.9232,19.9352917 39.0944,19.8399762 39.2112,19.699994 C39.322,19.5675893 39.3876,19.3873274 39.3876,19.1711726 C39.3876,18.9235119 39.2624,18.7679762 39.1156,18.7037679 C39.0572,18.6778452 38.9976,18.6650833 38.9444,18.6650833 C38.9032,18.6650833 38.8664,18.6730595 38.8396,18.6878155 L38.84,18.6882143 C38.8148,18.7021726 38.8004,18.745244 38.81,18.8222143 C38.8392,19.0591071 38.67,19.2748631 38.4324,19.3035774 C38.1948,19.3326905 37.9784,19.1635952 37.9496,18.9271012 C37.8892,18.4465357 38.0952,18.1143274 38.4164,17.9348631 L38.418,17.9348631 C38.5736,17.8483214 38.7544,17.8044524 38.9412,17.8036548 C39.1164,17.8028571 39.2972,17.8395476 39.4644,17.9129286 C39.892,18.1007679 40.2548,18.5227083 40.2548,19.1711726 C40.2548,19.5963036 40.114,19.9652024 39.8752,20.25075 C39.6276,20.5474643 39.2776,20.746869 38.8748,20.8194524 C38.342,20.9155655 37.8776,20.847369 37.4752,20.6683036 C37.018,20.4649107 36.6532,20.1223333 36.3652,19.7191369 C34.6296,17.2891905 35.4116,14.4568452 36.1584,11.7529167 C36.72,9.7193869 37.2596,7.76322619 36.5864,6.26968452 C36.2416,5.50476786 35.7252,4.85630357 35.0744,4.44752381 C34.4992,4.08660119 33.8132,3.91192262 33.0416,4.01202381 C32.208,4.1205 31.4892,4.57753571 30.9992,5.19369643 C30.75,5.50755952 30.5604,5.86210119 30.4456,6.23299405 C30.3332,6.59710714 30.2932,6.97438095 30.3412,7.34008929 C30.4148,7.90520238 30.7016,8.45236905 31.2572,8.89145833 L31.2564,8.89225595 C31.5332,9.11040476 31.8444,9.237625 32.1608,9.28627976 C32.5352,9.34410714 32.9192,9.29425595 33.266,9.15985714 C33.6092,9.02665476 33.914,8.80970238 34.1348,8.53252976 L34.1356,8.53332738 C34.3072,8.31717262 34.4256,8.06432738 34.4692,7.78595833 C34.526,7.41905357 34.4468,7.06810119 34.284,6.78135714 C34.1592,6.5616131 33.9876,6.38175 33.7924,6.26330357 C33.6136,6.15482738 33.4172,6.10019048 33.2252,6.11893452 C33.052,6.13608333 32.8736,6.21704167 32.7052,6.37696429 C32.5516,6.52332738 32.47,6.70159524 32.4584,6.87108929 C32.4532,6.94566667 32.4612,7.01705357 32.4828,7.0808631 C32.5028,7.1394881 32.5344,7.19332738 32.578,7.23919048 C32.6596,7.3241369 32.7896,7.38316071 32.9696,7.39552381" id="Fill-24" fill="#B1986B" sketch:type="MSShapeGroup"></path>
                <path d="M29.3756,3.592875 C29.2784,3.81022619 29.0228,3.90753571 28.8048,3.810625 C28.5868,3.71371429 28.4892,3.458875 28.586,3.24152381 C29.0824,2.13323214 29.9284,1.34119643 30.9332,0.857839286 C31.7096,0.484553571 32.582,0.296714286 33.4584,0.291130952 C34.3312,0.28514881 35.21,0.460625 36.004,0.813571429 C37.0844,1.2941369 38.0088,2.10252381 38.5544,3.22955952 C38.6584,3.44411905 38.568,3.70214881 38.3528,3.80583929 C38.138,3.90913095 37.8788,3.819 37.7752,3.60483929 C37.3244,2.67322024 36.554,2.00202381 35.6512,1.60082143 C34.9704,1.29772619 34.214,1.147375 33.462,1.15216071 C32.714,1.15694643 31.9704,1.31726786 31.3092,1.63511905 C30.4796,2.03392857 29.782,2.68518452 29.3756,3.592875" id="Fill-25" fill="#B1986B" sketch:type="MSShapeGroup"></path>
                <path d="M39.8348,8.51019643 C39.7112,8.71478571 39.4452,8.78058929 39.2404,8.65735714 C39.0356,8.53452381 38.9696,8.26891667 39.0928,8.06432738 C39.2584,7.79034524 39.4476,7.5375 39.6564,7.30619048 C40.5828,6.27845833 41.8868,5.69141071 43.2188,5.519125 C44.5468,5.3472381 45.9108,5.58971429 46.9616,6.22023214 C47.1968,6.36141071 47.4176,6.52292857 47.6196,6.7039881 C47.7972,6.8635119 47.8116,7.13669643 47.6516,7.31376786 C47.4916,7.49083929 47.2176,7.50519643 47.0404,7.34607143 C46.8808,7.20289881 46.7044,7.07408333 46.5144,6.96002381 C45.6292,6.42880952 44.4672,6.22621429 43.3268,6.37377381 C42.19,6.52093452 41.0812,7.01705357 40.3,7.88406548 C40.1284,8.07389881 39.9724,8.282875 39.8348,8.51019643" id="Fill-26" fill="#B1986B" sketch:type="MSShapeGroup"></path>
                <path d="M35.8052,21.1285298 C35.9896,21.2796786 36.016,21.5512679 35.8644,21.735119 C35.7132,21.9189702 35.4408,21.9452917 35.2564,21.7941429 C33.9752,20.7436786 33.066,19.080244 32.7564,17.2066369 C32.4724,15.4905595 32.6896,13.5922262 33.5828,11.8239048 C33.6908,11.6109405 33.9508,11.5255952 34.164,11.632875 C34.3772,11.7401548 34.4632,11.9997798 34.3556,12.2123452 C33.55,13.8067857 33.354,15.5196726 33.61,17.06825 C33.886,18.7372679 34.6844,20.2096726 35.8052,21.1285298" id="Fill-27" fill="#B1986B" sketch:type="MSShapeGroup"></path>
                <path d="M22.1664,17.4227917 C22.2076,17.187494 22.432,17.0303631 22.6676,17.0710417 C22.9036,17.112119 23.0612,17.33625 23.0204,17.5711488 C22.8596,18.4760476 22.3936,19.3721726 21.7612,20.0944167 C21.1276,20.818256 20.3204,21.3753929 19.4776,21.6023155 C19.2464,21.6637321 19.0088,21.5269405 18.9472,21.2964286 C18.8856,21.0659167 19.0228,20.8294226 19.254,20.7676071 C19.9276,20.5861488 20.5848,20.1275179 21.1104,19.5273095 C21.6424,18.9195238 22.0332,18.171756 22.1664,17.4227917" id="Fill-28" fill="#B1986B" sketch:type="MSShapeGroup"></path>
                <path d="M23.0188,10.4571845 C23.1104,10.3164048 23.2996,10.2765238 23.4408,10.3678512 C23.5824,10.4591786 23.6224,10.6478155 23.5308,10.7885952 L23.5216,10.8029524 L23.5204,10.8041488 C23.2836,11.161881 22.7868,11.4849167 22.2144,11.6233036 C21.6436,11.7616905 20.9876,11.7253988 20.4252,11.3708571 L20.4232,11.3696607 L20.3956,11.3521131 C20.254,11.2611845 20.2124,11.0729464 20.3036,10.931369 C20.3948,10.7897917 20.5836,10.7487143 20.7256,10.839244 L20.7532,10.8571905 C21.1592,11.1120298 21.6444,11.1355595 22.0708,11.0322679 C22.4956,10.9289762 22.8524,10.7088333 23.01,10.4715417 L23.0096,10.4715417 L23.0188,10.4571845" id="Fill-29" fill="#B1986B" sketch:type="MSShapeGroup"></path>
                <path d="M24.4148,18.5582024 C24.4608,18.3974821 24.6296,18.3037619 24.7916,18.349625 C24.9532,18.3958869 25.0472,18.5637857 25.0008,18.7253036 C24.8536,19.2349821 24.6248,19.7303036 24.3356,20.1781667 C24.0452,20.6284226 23.6916,21.036006 23.296,21.3678155 C23.1672,21.4758929 22.9752,21.4591429 22.8668,21.3307262 C22.7584,21.2027083 22.7752,21.010881 22.904,20.9028036 C23.2496,20.612869 23.5616,20.2515476 23.8212,19.8491488 C24.0812,19.4463512 24.2856,19.0060655 24.4148,18.5582024" id="Fill-30" fill="#B1986B" sketch:type="MSShapeGroup"></path>
                <path d="M22.0484,13.2368869 C22.4084,13.2368869 22.7,13.5280179 22.7,13.8869464 C22.7,14.2462738 22.4084,14.5374048 22.0484,14.5374048 C21.688,14.5374048 21.396,14.2462738 21.396,13.8869464 C21.396,13.5280179 21.688,13.2368869 22.0484,13.2368869" id="Fill-31" fill="#B1986B" sketch:type="MSShapeGroup"></path>
                <path d="M27.968,8.7478869 C28.328,8.7478869 28.62,9.03901786 28.62,9.39834524 C28.62,9.75727381 28.328,10.0484048 27.968,10.0484048 C27.6076,10.0484048 27.3156,9.75727381 27.3156,9.39834524 C27.3156,9.03901786 27.6076,8.7478869 27.968,8.7478869" id="Fill-32" fill="#B1986B" sketch:type="MSShapeGroup"></path>
                <path d="M31.9764,10.9780298 C32.214,10.9780298 32.4072,11.170256 32.4072,11.4071488 C32.4072,11.6444405 32.214,11.8366667 31.9764,11.8366667 C31.7388,11.8366667 31.5456,11.6444405 31.5456,11.4071488 C31.5456,11.170256 31.7388,10.9780298 31.9764,10.9780298" id="Fill-33" fill="#B1986B" sketch:type="MSShapeGroup"></path>
                <path d="M37.8212,15.5978393 C38.0588,15.5978393 38.2516,15.7900655 38.2516,16.0273571 C38.2516,16.26425 38.0588,16.4564762 37.8212,16.4564762 C37.5832,16.4564762 37.3908,16.26425 37.3908,16.0273571 C37.3908,15.7900655 37.5832,15.5978393 37.8212,15.5978393" id="Fill-34" fill="#B1986B" sketch:type="MSShapeGroup"></path>
                <path d="M15.5168,10.0484048 C15.8768,10.0484048 16.1688,10.3395357 16.1688,10.6984643 C16.1688,11.0577917 15.8768,11.3489226 15.5168,11.3489226 C15.1568,11.3489226 14.8644,11.0577917 14.8644,10.6984643 C14.8644,10.3395357 15.1568,10.0484048 15.5168,10.0484048" id="Fill-35" fill="#B1986B" sketch:type="MSShapeGroup"></path>
                <path d="M39.8212,4.69279167 C40.0588,4.69279167 40.252,4.88501786 40.252,5.12191071 C40.252,5.35920238 40.0588,5.55142857 39.8212,5.55142857 C39.5836,5.55142857 39.3908,5.35920238 39.3908,5.12191071 C39.3908,4.88501786 39.5836,4.69279167 39.8212,4.69279167" id="Fill-36" fill="#B1986B" sketch:type="MSShapeGroup"></path>
                <path d="M27.072,1.11267857 C27.432,1.11267857 27.724,1.40380952 27.724,1.7631369 C27.724,2.12206548 27.432,2.41319643 27.072,2.41319643 C26.7116,2.41319643 26.4196,2.12206548 26.4196,1.7631369 C26.4196,1.40380952 26.7116,1.11267857 27.072,1.11267857" id="Fill-37" fill="#B1986B" sketch:type="MSShapeGroup"></path>
                <path d="M28.1896,5.226 C28.4272,5.226 28.62,5.41822619 28.62,5.65511905 C28.62,5.89241071 28.4272,6.0842381 28.1896,6.0842381 C27.9516,6.0842381 27.7588,5.89241071 27.7588,5.65511905 C27.7588,5.41822619 27.9516,5.226 28.1896,5.226" id="Fill-38" fill="#B1986B" sketch:type="MSShapeGroup"></path>
                <path d="M17.15,21.1065952 C17.388,21.1065952 17.5808,21.2988214 17.5808,21.5361131 C17.5808,21.773006 17.388,21.9652321 17.15,21.9652321 C16.9124,21.9652321 16.7196,21.773006 16.7196,21.5361131 C16.7196,21.2988214 16.9124,21.1065952 17.15,21.1065952" id="Fill-39" fill="#B1986B" sketch:type="MSShapeGroup"></path>
                <path d="M41.414,20.7668095 C41.7744,20.7668095 42.0664,21.0575417 42.0664,21.416869 C42.0664,21.7757976 41.7744,22.0669286 41.414,22.0669286 C41.054,22.0669286 40.762,21.7757976 40.762,21.416869 C40.762,21.0575417 41.054,20.7668095 41.414,20.7668095" id="Fill-40" fill="#B1986B" sketch:type="MSShapeGroup"></path>
                <g id="vasenkasi" transform="translate(0.000000, 26.720238)" sketch:type="MSShapeGroup">
                    <path d="M8.4004,2.60741667 C9.9696,2.60741667 10.1348,0.0151547619 8.4004,0.0147559524 C0.75,0.0135595238 -1.8184,8.18716071 1.3712,12.9321964 C2.9896,15.3398095 5.2668,16.823381 10.126,17.0901845 C11.4864,17.1647619 12.2652,16.0963512 11.8352,15.215381 C13.6532,15.3633393 14.6208,13.7912321 13.9276,12.782244 C15.7864,12.8093631 16.4764,10.5102262 14.7708,9.555875 C15.7464,8.34429167 14.9944,6.76819643 13.4372,6.76819643 C12.596,6.76819643 9.4796,6.51216071 7.7084,5.63477976 C5.6388,4.60864286 6.2956,2.60741667 8.4004,2.60741667" id="Fill-42" fill="#F7CDAF"></path>
                    <path d="M11.9268,15.9651429 C11.9808,15.719875 11.9548,15.46025 11.8352,15.215381 C10.842,15.0861667 9.8844,14.9760952 8.8984,14.7443869 C7.8112,14.48875 6.7644,14.1314167 5.856,13.657631 C5.6692,13.5607202 5.4388,13.632506 5.3416,13.81875 C5.244,14.0045952 5.3164,14.2343095 5.5028,14.3312202 C6.4756,14.8389048 7.5828,15.2177738 8.7252,15.4865714 C9.7836,15.7354286 10.8784,15.8905655 11.9268,15.9651429" id="Fill-43" fill-opacity="0.227694746" fill="#E7991D"></path>
                    <path d="M14.152,13.5451667 C14.1592,13.2815536 14.0892,13.0199345 13.9316,12.7878274 C12.4472,12.805375 10.9108,12.6374762 9.496,12.3148393 C7.9364,11.9587024 6.5316,11.417119 5.5176,10.730369 C5.3436,10.6127202 5.1068,10.6581845 4.9888,10.8316667 C4.8704,11.0051488 4.916,11.2416429 5.0904,11.3592917 C6.1856,12.1010774 7.68,12.6813452 9.3252,13.056625 C10.8636,13.4075774 12.5412,13.582256 14.152,13.5451667" id="Fill-44" fill-opacity="0.227694746" fill="#E7991D"></path>
                    <path d="M15.506,10.2438214 C15.3464,9.98140476 15.1048,9.74251786 14.7708,9.555875 L14.7836,9.539125 C13.3144,9.64002381 11.8076,9.59256548 10.4092,9.37641071 C8.8128,9.12954762 7.36,8.6641369 6.2736,7.95066667 C6.0976,7.83541071 5.8612,7.88406548 5.7456,8.05954167 C5.6304,8.23461905 5.6788,8.47031548 5.8548,8.58557143 C7.0376,9.36205357 8.5948,9.86495238 10.2928,10.127369 C11.9668,10.3865952 13.7804,10.4145119 15.506,10.2438214" id="Fill-45" fill-opacity="0.227694746" fill="#E7991D"></path>
                </g>
                <g id="kattilankahvat" transform="translate(6.400000, 29.113095)" fill="#9F2100" sketch:type="MSShapeGroup">
                    <path d="M2.0004,0.214559524 L7.4168,0.214559524 L7.4168,4.40883929 L7.4116,4.40764286 L7.4056,4.40684524 L7.366,4.40046429 L7.36,4.39926786 L7.3544,4.39847024 L7.3488,4.39767262 L7.3428,4.396875 L7.3372,4.39607738 L7.3312,4.39527976 L7.308,4.39208929 L7.3024,4.39129167 L7.2964,4.39089286 L7.2908,4.39009524 L7.2848,4.38929762 L7.2788,4.38889881 L7.2732,4.38810119 L7.2672,4.38770238 L7.2436,4.38491071 L7.2376,4.3845119 L7.232,4.3841131 L7.2196,4.38291667 L7.214,4.38251786 L7.202,4.38172024 L7.196,4.38092262 L7.19,4.38092262 L7.184,4.38052381 L7.1808,4.380125 L7.178,4.380125 L7.172,4.37972619 L7.166,4.37932738 L7.1172,4.37693452 L7.1112,4.37653571 L7.1052,4.37653571 C7.0828,4.3757381 7.0604,4.37533929 7.0372,4.37533929 C6.196,4.37533929 3.0796,4.11930357 1.3084,3.24192262 C-0.7276,2.23253571 -0.1248,0.279565476 1.8988,0.216154762 C1.9324,0.215357143 1.966,0.214559524 2.0004,0.214559524" id="Fill-41"></path>
                    <path d="M44.9096,0.214559524 L39.4928,0.214559524 L39.4928,4.40883929 L39.4988,4.40764286 L39.5044,4.40684524 L39.5444,4.40046429 L39.55,4.39926786 L39.556,4.39847024 L39.5616,4.39767262 L39.5672,4.396875 L39.5732,4.39607738 L39.5788,4.39527976 L39.602,4.39208929 L39.608,4.39129167 L39.6136,4.39089286 L39.6196,4.39009524 L39.6252,4.38929762 L39.6312,4.38889881 L39.6372,4.38810119 L39.6428,4.38770238 L39.6664,4.38491071 L39.6728,4.3845119 L39.6784,4.3841131 L39.6904,4.38291667 L39.696,4.38251786 L39.7084,4.38172024 L39.714,4.38092262 L39.7204,4.38092262 L39.726,4.38052381 L39.7292,4.380125 L39.7324,4.380125 L39.7384,4.37972619 L39.744,4.37932738 L39.7924,4.37693452 L39.7988,4.37653571 L39.8052,4.37653571 C39.8272,4.3757381 39.85,4.37533929 39.8732,4.37533929 C40.714,4.37533929 43.8304,4.11930357 45.602,3.24192262 C47.638,2.23253571 47.0348,0.279565476 45.0112,0.216154762 C44.9776,0.215357143 44.944,0.214559524 44.9096,0.214559524" id="Fill-46"></path>
                </g>
                <g id="oikeakasi" transform="translate(43.600000, 26.720238)" sketch:type="MSShapeGroup">
                    <path d="M7.7096,2.60741667 C6.1404,2.60741667 5.9752,0.0151547619 7.7096,0.0147559524 C15.3604,0.0135595238 17.9288,8.18716071 14.7392,12.9321964 C13.1208,15.3398095 10.8428,16.823381 5.984,17.0901845 C4.6236,17.1647619 3.8452,16.0963512 4.2752,15.215381 C2.4568,15.3633393 1.4896,13.7912321 2.1824,12.782244 C0.3236,12.8093631 -0.366,10.5102262 1.3396,9.555875 C0.3636,8.34429167 1.116,6.76819643 2.6732,6.76819643 C3.514,6.76819643 6.6304,6.51216071 8.402,5.63477976 C10.4716,4.60864286 9.8144,2.60741667 7.7096,2.60741667" id="Fill-47" fill="#F7CDAF"></path>
                    <path d="M4.1832,15.9651429 C4.1292,15.719875 4.1556,15.46025 4.2752,15.215381 C5.268,15.0861667 6.2256,14.9760952 7.2116,14.7443869 C8.2992,14.48875 9.3456,14.1314167 10.2544,13.657631 C10.4412,13.5607202 10.6716,13.632506 10.7688,13.81875 C10.866,14.0045952 10.7936,14.2343095 10.6076,14.3312202 C9.6344,14.8389048 8.5272,15.2177738 7.3852,15.4865714 C6.3264,15.7354286 5.2316,15.8905655 4.1832,15.9651429" id="Fill-48" fill-opacity="0.227694746" fill="#E7991D"></path>
                    <path d="M1.9584,13.5451667 C1.9508,13.2815536 2.0212,13.0199345 2.1784,12.7878274 C3.6628,12.805375 5.1992,12.6374762 6.614,12.3148393 C8.1736,11.9587024 9.5784,11.417119 10.592,10.730369 C10.7664,10.6127202 11.0036,10.6581845 11.1216,10.8316667 C11.24,11.0051488 11.194,11.2416429 11.02,11.3592917 C9.9244,12.1010774 8.43,12.6813452 6.7848,13.056625 C5.2464,13.4075774 3.5692,13.582256 1.9584,13.5451667" id="Fill-49" fill-opacity="0.227694746" fill="#E7991D"></path>
                    <path d="M1.3396,9.555875 L1.326,9.539125 C2.7956,9.64002381 4.3028,9.59256548 5.7008,9.37641071 C7.2972,9.12954762 8.75,8.6641369 9.8368,7.95066667 C10.0124,7.83541071 10.2488,7.88406548 10.3644,8.05954167 C10.4796,8.23461905 10.4312,8.47031548 10.2556,8.58557143 C9.0728,9.36205357 7.5152,9.86495238 5.8172,10.127369 C4.1432,10.3865952 2.3296,10.4145119 0.604,10.2438214 C0.7636,9.98140476 1.0056,9.74251786 1.3396,9.555875 Z" id="Fill-50" fill-opacity="0.227694746" fill="#E7991D"></path>
                </g>
            </g>
        </g>
    </g>
</svg>