<?xml version="1.0" encoding="UTF-8" standalone="no"?>
<svg width="34px" height="29px" viewBox="0 0 34 29" version="1.1" xmlns="http://www.w3.org/2000/svg" xmlns:xlink="http://www.w3.org/1999/xlink">
    <!-- Generator: Sketch 3.6 (26304) - http://www.bohemiancoding.com/sketch -->
    <title>Logo</title>
    <desc>Created with Sketch.</desc>
    <defs></defs>
    <g id="Page-1" stroke="none" stroke-width="1" fill="none" fill-rule="evenodd">
        <g id="Mobile-Portrait" transform="translate(-20.000000, -10.000000)">
            <g id="Top">
                <g id="Logo" transform="translate(20.000000, 10.000000)">
                    <g id="kattilanrunko" transform="translate(5.884158, 10.248202)">
                        <path d="M1.77877602,4.3807059 L19.5684441,4.3807059 L19.5684441,16.7114664 C19.5684441,17.7652089 18.7061366,18.6271805 17.6517122,18.6271805 L3.69572978,18.6271805 C2.64152722,18.6271805 1.77877602,17.7652089 1.77877602,16.7116881 L1.77877602,4.3807059" id="Fill-18" fill="#D44319"></path>
                        <path d="M3.50405659,5.99158179 C3.50405659,5.67920577 3.7574024,5.42580209 4.06998056,5.42580209 C4.38255871,5.42580209 4.63590453,5.67920577 4.63590453,5.99158179 L4.63590453,16.7116881 C4.63590453,17.0238424 4.38255871,17.2772461 4.06998056,17.2772461 C3.7574024,17.2772461 3.50405659,17.0238424 3.50405659,16.7116881 L3.50405659,5.99158179" id="Fill-19" fill="#E07C3E"></path>
                        <path d="M17.39038,5.99158179 L17.39038,6.68373077 L17.9070546,6.68373077 C18.0634546,6.68373077 18.1903494,6.81032176 18.1903494,6.96639892 C18.1903494,7.12269777 18.0634546,7.24906706 17.9070546,7.24906706 L17.39038,7.24906706 L17.39038,7.94121605 L17.9070546,7.94121605 C18.0634546,7.94121605 18.1903494,8.06780704 18.1903494,8.22388419 C18.1903494,8.38018305 18.0634546,8.50677404 17.9070546,8.50677404 L17.39038,8.50677404 L17.39038,9.19870132 L17.9070546,9.19870132 C18.0634546,9.19870132 18.1903494,9.32551401 18.1903494,9.48159117 C18.1903494,9.63766833 18.0634546,9.76448102 17.9070546,9.76448102 L17.39038,9.76448102 L17.39038,10.4561866 L17.9070546,10.4561866 C18.0634546,10.4561866 18.1903494,10.5829993 18.1903494,10.7390764 C18.1903494,10.8951536 18.0634546,11.0219663 17.9070546,11.0219663 L17.39038,11.0219663 L17.39038,11.7138936 L17.9070546,11.7138936 C18.0634546,11.7138936 18.1903494,11.8404846 18.1903494,11.9967834 C18.1903494,12.1528606 18.0634546,12.2794516 17.9070546,12.2794516 L17.39038,12.2794516 L17.39038,12.9713788 L17.9070546,12.9713788 C18.0634546,12.9713788 18.1903494,13.0979698 18.1903494,13.254047 C18.1903494,13.4103459 18.0634546,13.5369368 17.9070546,13.5369368 L17.39038,13.5369368 L17.39038,14.2288641 L17.9070546,14.2288641 C18.0634546,14.2288641 18.1903494,14.3556768 18.1903494,14.511754 C18.1903494,14.6678311 18.0634546,14.7946438 17.9070546,14.7946438 L17.39038,14.7946438 L17.39038,15.4865711 L17.9070546,15.4865711 C18.0634546,15.4865711 18.1903494,15.6131621 18.1903494,15.7692392 C18.1903494,15.9255381 18.0634546,16.0521291 17.9070546,16.0521291 L17.39038,16.0521291 L17.39038,16.7116881 C17.39038,16.7223297 17.3899363,16.7331931 17.3892708,16.7440564 L17.9070546,16.7440564 C18.0634546,16.7440564 18.1903494,16.8706474 18.1903494,17.0269462 C18.1903494,17.1830234 18.0634546,17.3096144 17.9070546,17.3096144 L11.7555431,17.3096144 C11.5991431,17.3096144 11.4724702,17.1830234 11.4724702,17.0269462 C11.4724702,16.8706474 11.5991431,16.7440564 11.7555431,16.7440564 L13.6079403,16.7440564 C13.6074966,16.7331931 13.6070529,16.7223297 13.6070529,16.7116881 L13.6070529,16.0521291 L11.7555431,16.0521291 C11.5991431,16.0521291 11.4724702,15.9255381 11.4724702,15.7692392 C11.4724702,15.6131621 11.5991431,15.4865711 11.7555431,15.4865711 L13.6070529,15.4865711 L13.6070529,14.7946438 L11.7555431,14.7946438 C11.5991431,14.7946438 11.4724702,14.6678311 11.4724702,14.511754 C11.4724702,14.3556768 11.5991431,14.2288641 11.7555431,14.2288641 L13.6070529,14.2288641 L13.6070529,13.5369368 L11.7555431,13.5369368 C11.5991431,13.5369368 11.4724702,13.4103459 11.4724702,13.254047 C11.4724702,13.0979698 11.5991431,12.9713788 11.7555431,12.9713788 L13.6070529,12.9713788 L13.6070529,12.2794516 L11.7555431,12.2794516 C11.5991431,12.2794516 11.4724702,12.1528606 11.4724702,11.9967834 C11.4724702,11.8404846 11.5991431,11.7138936 11.7555431,11.7138936 L13.6070529,11.7138936 L13.6070529,11.0219663 L11.7555431,11.0219663 C11.5991431,11.0219663 11.4724702,10.8951536 11.4724702,10.7390764 C11.4724702,10.5829993 11.5991431,10.4561866 11.7555431,10.4561866 L13.6070529,10.4561866 L13.6070529,9.76448102 L11.7555431,9.76448102 C11.5991431,9.76448102 11.4724702,9.63766833 11.4724702,9.48159117 C11.4724702,9.32551401 11.5991431,9.19870132 11.7555431,9.19870132 L13.6070529,9.19870132 L13.6070529,8.50677404 L11.7555431,8.50677404 C11.5991431,8.50677404 11.4724702,8.38018305 11.4724702,8.22388419 C11.4724702,8.06780704 11.5991431,7.94121605 11.7555431,7.94121605 L13.6070529,7.94121605 L13.6070529,7.24906706 L11.7555431,7.24906706 C11.5991431,7.24906706 11.4724702,7.12269777 11.4724702,6.96639892 C11.4724702,6.81032176 11.5991431,6.68373077 11.7555431,6.68373077 L13.6070529,6.68373077 L13.6070529,5.99158179 L11.7555431,5.99158179 C11.5991431,5.99158179 11.4724702,5.8647691 11.4724702,5.70869194 C11.4724702,5.55261478 11.5991431,5.42580209 11.7555431,5.42580209 L17.9070546,5.42580209 C18.0634546,5.42580209 18.1903494,5.55261478 18.1903494,5.70869194 C18.1903494,5.8647691 18.0634546,5.99158179 17.9070546,5.99158179 L17.39038,5.99158179" id="Fill-20" fill="#A52000"></path>
                        <path d="M1.19488268,2.52817647 L20.1525593,2.52817647 C20.3750688,2.52817647 20.5569808,2.70974918 20.5569808,2.93211479 L20.5569808,3.41098789 C20.5569808,3.6331318 20.3750688,3.81492621 20.1525593,3.81492621 L1.19488268,3.81492621 C0.972373181,3.81492621 0.790461124,3.6331318 0.790461124,3.41098789 L0.790461124,2.93211479 C0.790461124,2.70974918 0.972373181,2.52817647 1.19488268,2.52817647" id="kansi" fill="#9F2100"></path>
                        <path d="M10.6738319,0.076833963 C11.715833,0.076833963 12.5606149,0.921069493 12.5606149,1.96239677 L11.6621468,1.96239677 C11.6621468,1.41679183 11.2197899,0.974721016 10.6738319,0.974721016 C10.1278739,0.974721016 9.68551701,1.41679183 9.68551701,1.96239677 L8.78704893,1.96239677 C8.78704893,0.921069493 9.63160893,0.076833963 10.6738319,0.076833963" id="nuppi" fill="#C04C29"></path>
                    </g>
                    <g id="Höyryt" transform="translate(5.804878, 0.000000)" fill="#7D7D7D">
                        <path d="M6.07797245,4.30697575 C5.97636791,4.39188704 5.82484848,4.37858501 5.73988223,4.27704618 C5.65469415,4.17528565 5.66822663,4.0238642 5.76983117,3.93895291 C5.85080422,3.87133425 5.89317642,3.79684288 5.90471231,3.72545532 C5.91114578,3.68466243 5.90781812,3.64298273 5.89606039,3.60329834 C5.88408082,3.56250545 5.86234011,3.52326446 5.83283486,3.48801408 C5.77559911,3.41928692 5.68930181,3.3682958 5.58414777,3.35166826 C5.46767968,3.33326712 5.36829358,3.35055976 5.28776422,3.39356966 C5.18993103,3.44589098 5.11295117,3.53856179 5.06192706,3.65251585 C5.00602238,3.77711154 4.98184138,3.92609428 4.99359911,4.07906763 C5.00846266,4.27017346 5.08167117,4.46416141 5.22232025,4.62001686 C5.32991458,4.73907004 5.4652394,4.81954732 5.61276564,4.86366572 C5.78624762,4.91532194 5.97792082,4.91709554 6.16404791,4.87275544 C6.35194975,4.82797194 6.53297443,4.73596623 6.68271911,4.60117232 C6.83135458,4.46704351 6.94981926,4.28923971 7.01481954,4.07197321 C7.14459826,3.63744022 7.08226011,3.24480862 6.90101358,2.930659 L6.90056989,2.9308807 C6.80051826,2.75795431 6.66452791,2.60719796 6.50457841,2.48504098 C6.34329784,2.3617755 6.15761443,2.26755279 5.95995145,2.20880215 C5.55686096,2.08841878 5.10585216,2.11590964 4.71230096,2.34293096 C4.64508223,2.38172855 4.58274408,2.42163464 4.52528649,2.46242753 C3.96646153,2.85927144 3.7705733,3.40642829 3.78943004,3.98484491 C3.80917415,4.59496471 4.06096706,5.24543399 4.38485926,5.80589288 C4.48047401,5.97150316 4.5818567,6.12824541 4.68479231,6.27301584 C5.22631344,7.03455709 5.59346521,7.93200074 5.5757177,8.78510429 C5.56041046,9.52536228 5.26158663,10.226601 4.54946748,10.7744229 C3.96091543,11.2271354 3.24147543,11.3827691 2.56795713,11.2934238 C2.22986692,11.2486403 1.90375628,11.1424458 1.61158777,10.9817129 C1.31675713,10.8196498 1.0547594,10.6012748 0.848444504,10.3334606 C0.491497554,9.87010657 0.30248649,9.26309058 0.397657554,8.54744135 C0.450012731,8.15303614 0.606856419,7.81183906 0.828256703,7.53759554 C1.04987883,7.26290861 1.33672309,7.05451013 1.64885755,6.92548044 C1.96232309,6.79578564 2.30263174,6.74634643 2.62962975,6.78979973 C2.9224638,6.82859731 3.20420564,6.94122117 3.44645926,7.13653932 C3.7559316,7.38595239 3.95004507,7.72537587 4.03434578,8.07610607 C4.10134266,8.35544871 4.09912422,8.64277256 4.03013075,8.89817155 C3.95803145,9.16598576 3.81272365,9.4025402 3.59731316,9.56571177 C3.41096422,9.706935 3.17758436,9.79118119 2.89983571,9.79118119 C2.62386181,9.79118119 2.37828053,9.69208106 2.19659032,9.534452 C2.096095,9.4466586 2.01467826,9.34046406 1.95832989,9.22274109 C1.90109415,9.10280112 1.86981415,8.97111101 1.86981415,8.8343218 C1.86981415,8.6152817 1.94945614,8.38604338 2.13181188,8.1765364 C2.21899656,8.07654947 2.37095968,8.06590784 2.47101131,8.15325784 C2.57106294,8.24016444 2.58171145,8.39202929 2.49452677,8.49201622 C2.39447514,8.60685708 2.35077188,8.72546685 2.35077188,8.8343218 C2.35077188,8.89794985 2.36563543,8.95980429 2.39247855,9.01611622 C2.42020904,9.07420175 2.46125018,9.12740987 2.51249614,9.17197167 C2.61032933,9.25710467 2.74543231,9.31031279 2.89983571,9.31031279 C3.0677716,9.31031279 3.20376195,9.26331228 3.30780677,9.1846086 C3.43359231,9.08927738 3.5203333,8.94339845 3.56603316,8.77424096 C3.61506067,8.59244655 3.61639174,8.38737358 3.5682516,8.18673462 C3.50746635,7.93377434 3.36792649,7.68923868 3.14563883,7.51010467 C2.97437528,7.37220696 2.77493755,7.29239478 2.56751344,7.26490391 C2.32437245,7.23275734 2.06880819,7.27066813 1.8312133,7.36865975 C1.59228734,7.46731648 1.37243997,7.62716254 1.20228564,7.83799972 C1.03301869,8.0477284 0.9130011,8.3082265 0.873069185,8.60951749 C0.796311171,9.18771241 0.945168476,9.67323652 1.22801954,10.0405943 C1.39284961,10.2543135 1.60382323,10.4299004 1.84274919,10.5611471 C2.08433727,10.6939457 2.35276848,10.7815174 2.63007344,10.8183196 C3.18468337,10.8919242 3.77545387,10.7651115 4.2564116,10.3948717 C4.83941755,9.94614984 5.08411145,9.37593614 5.09653472,8.77579287 C5.11184195,8.03331787 4.78129443,7.23630455 4.29390323,6.55080658 C4.18142833,6.39295582 4.07183741,6.22335493 3.96956734,6.04621623 C3.61151117,5.42678501 3.33287514,4.69849884 3.31024706,3.99992055 C3.28628791,3.26941738 3.53586238,2.57704669 4.24731599,2.07179124 C4.31830606,2.02124352 4.39306748,1.97313451 4.47160025,1.92790761 C4.98783117,1.62994213 5.57505216,1.59291814 6.09705103,1.7485519 C6.34973131,1.82393007 6.58799174,1.94520025 6.79585954,2.10393781 C7.00505841,2.26378388 7.18386465,2.46198413 7.31586181,2.69055735 L7.31586181,2.69166586 C7.56011202,3.11422702 7.64596564,3.63699682 7.47514578,4.20898412 C7.38352422,4.51559593 7.21536649,4.767226 7.00394919,4.95766674 C6.79297557,5.14810747 6.53874238,5.27758057 6.27474805,5.34054351 C6.00897897,5.40372816 5.73145216,5.39995925 5.47544422,5.32369427 C5.24605755,5.25541052 5.03486209,5.12881953 4.86515145,4.9410392 C4.64929727,4.70204605 4.53726606,4.40585417 4.51463798,4.11476141 C4.49666862,3.88441458 4.53549131,3.65451116 4.62400706,3.45719771 C4.71718153,3.24924263 4.86581699,3.07609453 5.0621489,2.97123019 C5.23185954,2.88055469 5.43307202,2.8424222 5.65935287,2.87855938 C5.88541188,2.91447486 6.07331372,3.02709872 6.2013177,3.17985037 C6.27252961,3.26498337 6.32555032,3.36319669 6.35638663,3.46806103 C6.38788848,3.57403387 6.39631855,3.68710113 6.37812734,3.80061179 C6.34950947,3.98174111 6.25433841,4.15954491 6.07797245,4.30697575" id="Fill-21"></path>
                        <path d="M9.79829585,7.72936647 C9.72686209,7.61785112 9.75925131,7.46953348 9.87083883,7.39792422 C9.98242635,7.32653665 10.13084,7.35890493 10.2022737,7.47019858 C10.3265063,7.66285632 10.3624451,7.85906127 10.3333835,8.03730848 C10.3160797,8.14394642 10.2752604,8.24260315 10.2164717,8.32884465 C10.1585705,8.41309084 10.0831435,8.48603031 9.99507145,8.54278563 C9.82536082,8.65208398 9.60662266,8.7028534 9.37479571,8.66516431 C9.14341245,8.62747523 8.96150039,8.5257147 8.82817216,8.38360467 C8.67975855,8.22553221 8.59523599,8.02112434 8.57260791,7.80208424 C8.55064536,7.59457257 8.58503117,7.37220696 8.67265954,7.16624719 C8.78269415,6.9075227 8.977695,6.67185506 9.25255968,6.51954681 C9.46286777,6.40315404 9.69203259,6.35194123 9.92119741,6.35615353 C10.1956184,6.36125265 10.4689302,6.44572054 10.7076343,6.59182117 C10.945451,6.73747841 11.1515441,6.94565518 11.2917495,7.19905886 C11.420419,7.43051419 11.494293,7.69921521 11.4889688,7.99230328 C11.4785421,8.53613462 11.2708961,8.96756381 10.9523282,9.27572751 C10.7608768,9.46129084 10.5297154,9.60096215 10.2783662,9.69252446 C10.0310102,9.78275657 9.76280082,9.82620987 9.49303855,9.82111076 C8.94663684,9.81091253 8.39069585,9.60162726 7.97806606,9.17551888 C7.70164848,8.89019033 7.51907089,8.53502612 7.43321727,8.16456457 C7.34470153,7.7825746 7.35934323,7.38107498 7.48024819,7.02103336 C7.52861018,6.87692803 7.58251826,6.72373298 7.63931032,6.56211331 C7.99115486,5.56157892 8.46146408,4.22405976 8.31216309,3.06412271 C8.2618045,2.67171281 8.14822039,2.29748235 7.92615458,1.96271459 C7.70364507,1.62728172 7.36932621,1.32709923 6.87683259,1.08101167 C6.75836791,1.02181764 6.71067145,0.878155708 6.76968195,0.759767637 C6.82869245,0.641601267 6.97266919,0.593713958 7.09091202,0.652686293 C7.66615344,0.94001015 8.06014833,1.29650456 8.3263611,1.69778248 C8.59279571,2.0995038 8.72834238,2.54246141 8.78757472,3.00404187 C8.95129557,4.27660278 8.45968933,5.67420278 8.09231571,6.71996407 C8.03552365,6.88069693 7.98205926,7.03300518 7.93502833,7.1731199 C7.8425194,7.44891533 7.83209273,7.75929604 7.90108621,8.05748323 C7.96786124,8.34613729 8.10895401,8.62148931 8.32192422,8.84119452 C8.64226692,9.17197167 9.07486266,9.33425644 9.5003594,9.34245936 C9.7117767,9.34622827 9.9216411,9.31230809 10.1148672,9.24180733 C10.3036564,9.17308018 10.476251,9.06910264 10.6177875,8.93209173 C10.85028,8.70706571 11.0022431,8.38892548 11.0097858,7.98476546 C11.013779,7.77991419 10.9620893,7.59279896 10.8729081,7.43206609 C10.7733001,7.25271038 10.6271049,7.10505785 10.4576161,7.00108031 C10.2892366,6.89798957 10.0997818,6.83857384 9.91365472,6.83502663 C9.76568479,6.83236622 9.61860223,6.8647345 9.4857177,6.93833907 C9.31001727,7.03544389 9.18511911,7.18708703 9.11412904,7.35402752 C9.05844621,7.48505252 9.03626181,7.62472384 9.04979429,7.75331013 C9.06199571,7.870368 9.10436791,7.97700594 9.17779826,8.05504452 C9.24146748,8.12288487 9.33242351,8.17232409 9.45199741,8.19183373 C9.56070096,8.20956977 9.66053075,8.18739972 9.73573585,8.13906901 C9.76989982,8.11689896 9.7985177,8.0894081 9.82003656,8.05814833 C9.84022436,8.02866216 9.85420053,7.99540708 9.85974663,7.9603784 C9.87061699,7.89386825 9.853535,7.81472117 9.79829585,7.72936647" id="Fill-22"></path>
                        <path d="M19.1150771,7.74377701 C19.0003838,7.80962206 18.8539668,7.77015937 18.7880791,7.65531851 C18.7224133,7.54092104 18.7616797,7.39459871 18.8765949,7.32875366 C18.9963906,7.2598048 19.0693773,7.1704595 19.1017665,7.07645848 C19.1204014,7.02169846 19.1261693,6.96449973 19.1199577,6.9086312 L19.1199577,6.9077444 C19.1130805,6.84899376 19.0937801,6.79112993 19.0636093,6.73836521 C19.0045988,6.63638298 18.9036598,6.55036318 18.7694442,6.50424947 C18.6241364,6.45414516 18.4916956,6.45436686 18.3772241,6.49183424 C18.2396808,6.53683945 18.1207724,6.63749148 18.0302601,6.77073348 C17.9326488,6.91506051 17.8696451,7.09397282 17.851232,7.28397016 C17.8279384,7.52495861 17.8760785,7.78190949 18.0165058,8.00560531 C18.1249875,8.17831 18.2758414,8.3084482 18.4493234,8.3953548 C18.6520888,8.49689363 18.8881307,8.54056863 19.1270567,8.5261581 C19.3675356,8.51174756 19.6093455,8.4379213 19.8223157,8.30445759 C20.0350641,8.17121559 20.2196383,7.97833614 20.3460893,7.72559757 C20.5892303,7.24007346 20.6054249,6.76696457 20.4676598,6.35748374 C20.3873523,6.11871229 20.2551333,5.90011559 20.084979,5.71233526 C19.9130499,5.52255963 19.70252,5.36382207 19.4684746,5.2467642 C19.0021585,5.01353526 18.4428899,4.94613831 17.9058056,5.12660252 C17.558398,5.24321699 17.2677824,5.45981838 17.0368428,5.7307364 C16.7712956,6.04266902 16.5833937,6.4286496 16.4782397,6.8203944 C16.3040922,7.47042028 16.3595532,8.38094426 16.7921489,9.23959033 C17.1357852,9.92198449 17.717682,10.5700151 18.611935,11.0269398 C18.729956,11.0872424 18.7765432,11.2315694 18.7164235,11.3492924 C18.6563038,11.4667936 18.5116615,11.5135724 18.3940842,11.4534916 C17.3982266,10.9444672 16.7486675,10.21995 16.3637682,9.45574832 C15.8743804,8.4835916 15.8135951,7.44381622 16.0141421,6.69646381 C16.1357126,6.24219947 16.3566692,5.79126064 16.6721313,5.4207991 C16.9572008,5.08625303 17.3188065,4.81799542 17.7533988,4.67189478 C18.4178215,4.44908577 19.1084218,4.53133666 19.6827759,4.81866052 C19.969842,4.96210075 20.2282902,5.15719719 20.4401512,5.39131293 C20.6542306,5.62742397 20.8210573,5.9032194 20.9226618,6.20539719 C21.0983622,6.72883209 21.0799492,7.32941876 20.77447,7.93976026 C20.6058686,8.27630163 20.3605092,8.53280911 20.07788,8.71016952 C19.7945852,8.88775162 19.473577,8.98574325 19.1552309,9.00503119 C18.83511,9.02431914 18.5149892,8.9635732 18.2350221,8.82345848 C17.9845602,8.69841939 17.767375,8.51063906 17.6105313,8.26100429 C17.4102062,7.94175556 17.3412127,7.57816673 17.3738238,7.23874325 C17.4002232,6.96716013 17.4911793,6.71020924 17.6320502,6.50225417 C17.7800201,6.28343577 17.9841166,6.11583019 18.2288105,6.0355746 C18.4393404,5.96662574 18.6753824,5.96352194 18.9254005,6.04976343 C19.1734221,6.13511813 19.3639861,6.30072841 19.4789012,6.49981546 C19.5425705,6.61066572 19.5829461,6.73127079 19.5971441,6.85431457 C19.6115639,6.98024046 19.5989188,7.10904846 19.5563248,7.23231394 C19.4886624,7.42940569 19.3451293,7.61142181 19.1150771,7.74377701" id="Fill-23"></path>
                        <path d="M12.4803895,4.1112142 C12.6126085,4.11986052 12.712882,4.23425798 12.7040082,4.36639148 C12.6953563,4.49874669 12.5806629,4.59873362 12.4484439,4.5898656 C12.2190573,4.57434656 12.040251,4.48544466 11.9157966,4.35464136 C11.8423662,4.27815468 11.7889018,4.18703577 11.7556252,4.08860075 C11.7234578,3.99260443 11.7105909,3.8904005 11.7176899,3.78775316 C11.7318879,3.58001979 11.8263934,3.3660788 12.0029812,3.19758641 C12.1784598,3.03020253 12.375901,2.94440443 12.5753387,2.92467309 C12.78964,2.90316814 13.0010573,2.95948007 13.1865188,3.07254733 C13.3633285,3.17985037 13.51751,3.34013984 13.6266573,3.53324098 C13.7666408,3.78043704 13.8349688,4.08394504 13.7857194,4.40164187 C13.7484496,4.64174351 13.6472888,4.85812321 13.5024246,5.04080443 L13.5024246,5.04169123 C13.3273898,5.26228323 13.0871327,5.43387943 12.8175923,5.53896547 C12.5500485,5.642943 12.2518902,5.68107549 11.9586124,5.63562689 C11.7046011,5.5961642 11.4548048,5.49418196 11.232739,5.31815176 L11.2318516,5.31815176 C10.8183344,4.99070011 10.6035895,4.57501166 10.5470193,4.14247397 C10.5115242,3.86845215 10.5399202,3.58999631 10.6220025,3.3241774 C10.7029756,3.0623491 10.8365256,2.81182753 11.0120042,2.59057042 C11.3565279,2.15559403 11.865438,1.83235469 12.4584269,1.75520291 C13.0054941,1.68403705 13.493329,1.80885444 13.9032967,2.06669213 C14.3469846,2.34603476 14.6952797,2.78101116 14.9240008,3.28981382 C15.3674669,4.27593768 15.0457932,5.44452105 14.7110306,6.65943983 C14.326575,8.05548792 13.9237063,9.51804616 14.754512,10.6841908 C14.868318,10.8440369 15.007636,10.9775006 15.1746845,11.051992 C15.3140025,11.1140681 15.4783889,11.137125 15.6709495,11.102318 C15.7823151,11.0821432 15.8772644,11.0291568 15.9420428,10.9513399 C16.0034936,10.8777354 16.039876,10.7775267 16.039876,10.6573651 C16.039876,10.5196891 15.9704388,10.4332259 15.8890221,10.3975321 C15.8566329,10.3831215 15.8235781,10.3760271 15.7940729,10.3760271 C15.7712229,10.3760271 15.7508133,10.3804611 15.7359498,10.3886641 L15.7361716,10.3888858 C15.7221954,10.3966453 15.714209,10.4205889 15.7195333,10.4633771 C15.7357279,10.5950672 15.6418879,10.7150072 15.5101126,10.7309696 C15.3783373,10.7471538 15.2583197,10.6531528 15.2423469,10.5216844 C15.2088485,10.2545352 15.3230981,10.0698587 15.5012388,9.9700935 L15.5021262,9.9700935 C15.5884235,9.92198449 15.688697,9.89759743 15.7922981,9.89715403 C15.8894658,9.89671063 15.9897393,9.91710708 16.08247,9.95789997 C16.3196212,10.0623209 16.5208337,10.29688 16.5208337,10.6573651 C16.5208337,10.8936978 16.4427446,11.0987708 16.3103038,11.2575083 C16.1729824,11.4224535 15.9788689,11.5333038 15.755472,11.5736533 C15.4599759,11.6270831 15.202415,11.5891723 14.97924,11.4896288 C14.7256723,11.3765615 14.5233506,11.1861208 14.3636229,10.9619816 C13.401042,9.61116038 13.8347469,8.03664338 14.2489296,6.53351394 C14.5603985,5.40306306 14.8596661,4.31562207 14.4863027,3.48535367 C14.2950732,3.0601321 14.0086726,2.69964707 13.6477324,2.47240405 C13.3287208,2.27176509 12.9482584,2.17466027 12.5203214,2.2303071 C12.0579985,2.29060964 11.6593449,2.54467842 11.3875861,2.8872057 C11.2493773,3.061684 11.1442232,3.25877575 11.080554,3.46495722 C11.0182159,3.66736979 10.9960315,3.87709847 11.0226527,4.08039783 C11.063472,4.39454745 11.2225341,4.69872054 11.5306754,4.9428128 L11.5302317,4.9432562 C11.6837478,5.06452638 11.8563424,5.13524884 12.031821,5.1622963 C12.2394669,5.19444288 12.4524371,5.16673031 12.6447759,5.09201724 C12.835118,5.01796927 13.0041631,4.8973642 13.126621,4.74328235 L13.1270646,4.74372575 C13.2222357,4.62356407 13.2879015,4.48300595 13.3120825,4.328259 C13.3435844,4.12429453 13.2996593,3.92919808 13.2093688,3.76979542 C13.1401534,3.64763844 13.0449824,3.54765151 12.9367225,3.48180646 C12.8375583,3.42150392 12.7286329,3.39113095 12.6221478,3.40155088 C12.5260893,3.411084 12.4271469,3.4560892 12.3337506,3.54499111 C12.2485625,3.62635519 12.2033063,3.72545532 12.1968729,3.81967803 C12.1939889,3.86113603 12.1984258,3.90082042 12.2104054,3.9362925 C12.2214976,3.96888248 12.2390232,3.99881204 12.2632042,4.0243076 C12.3084604,4.07152981 12.3805597,4.10434149 12.4803895,4.1112142" id="Fill-24"></path>
                        <path d="M10.4871214,1.99729987 C10.4332133,2.11812664 10.291455,2.17222157 10.17055,2.11834834 C10.0496451,2.06447512 9.99551514,1.9228085 10.0492014,1.80198172 C10.3245098,1.18587601 10.7937098,0.745578805 11.3509818,0.47687779 C11.781581,0.269366116 12.2654227,0.164945177 12.7514828,0.16184137 C13.2355463,0.158515862 13.7229376,0.256064086 14.1632978,0.452269034 C14.7624984,0.719418145 15.2751798,1.16880507 15.577775,1.79533071 C15.6354544,1.91460558 15.5853177,2.05804581 15.4659656,2.11568794 C15.3468354,2.17310837 15.2030805,2.12300405 15.1456229,2.00395088 C14.8956048,1.4860585 14.4683333,1.11293654 13.9676315,0.889905835 C13.590053,0.72141345 13.1705461,0.637832359 12.7534794,0.640492765 C12.3386312,0.643153171 11.9262232,0.732276775 11.5595151,0.908972079 C11.0994107,1.13067259 10.7125149,1.49270951 10.4871214,1.99729987" id="Fill-25"></path>
                        <path d="M16.2878976,4.73086712 C16.2193478,4.84459948 16.0718215,4.88118006 15.9582374,4.81267461 C15.8446533,4.74439085 15.808049,4.59673831 15.876377,4.48300595 C15.9682204,4.3306977 16.0731526,4.19013958 16.1889551,4.06155329 C16.7027458,3.49023108 17.4259571,3.16388793 18.1646976,3.06811332 C18.9012195,2.9725604 19.6577075,3.10735431 20.2404916,3.45786281 C20.3709359,3.53634479 20.4933937,3.62613349 20.6054249,3.72678552 C20.7039237,3.81546572 20.71191,3.96733057 20.6231724,4.0657656 C20.5344349,4.16420062 20.3824717,4.17218184 20.2841949,4.08372334 C20.1956791,4.00413286 20.0978459,3.93252359 19.99247,3.86911725 C19.5015293,3.57381217 18.8570726,3.46118831 18.2245954,3.5432175 C17.5941149,3.62502499 16.9791634,3.90082042 16.5459021,4.38279732 C16.450731,4.48832676 16.3642119,4.60449783 16.2878976,4.73086712" id="Fill-26"></path>
                        <path d="M14.0530414,11.7454712 C14.1553115,11.8294957 14.1699532,11.9804737 14.0858743,12.0826776 C14.0020173,12.1848816 13.8509415,12.1995138 13.7486715,12.1154893 C13.0381052,11.5315302 12.5338539,10.6068174 12.3621466,9.56526837 C12.2046374,8.61129109 12.3250987,7.55599668 12.8204763,6.57297663 C12.8803741,6.45458856 13.0245727,6.40714465 13.1428156,6.46678209 C13.2610584,6.52641952 13.3087549,6.67074655 13.2490788,6.78891292 C12.8022851,7.67527155 12.6935815,8.62747523 12.8355617,9.4883383 C12.988634,10.4161549 13.4314346,11.2346732 14.0530414,11.7454712" id="Fill-27"></path>
                        <path d="M6.48882748,9.68543005 C6.51167741,9.55462675 6.63613188,9.46727675 6.76679798,9.4898902 C6.89768592,9.51272535 6.98509245,9.63732104 6.96246436,9.76790264 C6.87328309,10.2709411 6.61483486,10.7691021 6.26409954,11.1706017 C5.91269869,11.5729882 5.46501755,11.8827038 4.99759231,12.0088514 C4.86936649,12.0429932 4.73759117,11.96695 4.7034272,11.8388071 C4.66926323,11.7106642 4.74535571,11.5791958 4.87358153,11.5448322 C5.24716677,11.4439585 5.61165642,11.1890029 5.9031594,10.8553436 C6.19821188,10.5174721 6.41495344,10.1017836 6.48882748,9.68543005" id="Fill-28"></path>
                        <path d="M6.96157699,5.81320899 C7.01237926,5.73494871 7.11731145,5.71277866 7.19562238,5.76354808 C7.27415514,5.8143175 7.29633954,5.91918184 7.24553727,5.99744211 L7.24043486,6.00542333 L7.23976933,6.00608843 C7.1084377,6.20495379 6.83290748,6.3845312 6.51544876,6.46146128 C6.19887741,6.53839135 5.8350533,6.51821661 5.52314067,6.32112485 L5.52203145,6.32045975 L5.50672422,6.31070493 C5.42819145,6.26015722 5.40511968,6.15551458 5.45570011,6.0768109 C5.50628053,5.99810722 5.61099089,5.97527206 5.6897455,6.02559808 L5.70505273,6.0355746 C5.93022436,6.17724123 6.1993211,6.19032156 6.43580677,6.13290112 C6.67140507,6.07548069 6.86928989,5.95310201 6.95669642,5.82119021 L6.95647458,5.82119021 L6.96157699,5.81320899" id="Fill-29"></path>
                        <path d="M7.73581245,10.3166114 C7.7613245,10.2272661 7.85494266,10.1751665 7.94478947,10.200662 C8.03441443,10.2263793 8.08654777,10.3197152 8.06081387,10.4095039 C7.97917528,10.6928372 7.85228053,10.9681892 7.69188734,11.2171589 C7.53082862,11.4674587 7.33471855,11.6940366 7.11531486,11.8784915 C7.0438811,11.9385723 6.93739599,11.9292609 6.87727628,11.8578733 C6.81715656,11.7867075 6.82647401,11.6800695 6.89790777,11.6199887 C7.08958096,11.4588124 7.26261926,11.2579517 7.40659599,11.0342559 C7.55079458,10.8103384 7.66415684,10.5655811 7.73581245,10.3166114" id="Fill-30"></path>
                        <path d="M6.42338351,7.35846153 C6.62304309,7.35846153 6.78476734,7.5203029 6.78476734,7.71983335 C6.78476734,7.91958551 6.62304309,8.08142688 6.42338351,8.08142688 C6.22350209,8.08142688 6.06155599,7.91958551 6.06155599,7.71983335 C6.06155599,7.5203029 6.22350209,7.35846153 6.42338351,7.35846153" id="Fill-31"></path>
                        <path d="M9.70645245,4.86300062 C9.90611202,4.86300062 10.0680581,5.02484199 10.0680581,5.22459415 C10.0680581,5.4241246 9.90611202,5.58596597 9.70645245,5.58596597 C9.50657103,5.58596597 9.34462493,5.4241246 9.34462493,5.22459415 C9.34462493,5.02484199 9.50657103,4.86300062 9.70645245,4.86300062" id="Fill-32"></path>
                        <path d="M11.9482007,6.10274986 C12.090262,6.10274986 12.2057764,6.21854658 12.2057764,6.36125042 C12.2057764,6.50419451 12.090262,6.61999123 11.9482007,6.61999123 C11.8061394,6.61999123 11.6906249,6.50419451 11.6906249,6.36125042 C11.6906249,6.21854658 11.8061394,6.10274986 11.9482007,6.10274986" id="Fill-33"></path>
                        <path d="M15.1900066,8.67092853 C15.3322,8.67092853 15.4475824,8.78672525 15.4475824,8.92966934 C15.4475824,9.07237318 15.3322,9.18816991 15.1900066,9.18816991 C15.047574,9.18816991 14.9324309,9.07237318 14.9324309,8.92966934 C14.9324309,8.78672525 15.047574,8.67092853 15.1900066,8.67092853" id="Fill-34"></path>
                        <path d="M2.8008933,5.58596597 C3.00055287,5.58596597 3.16249897,5.74780734 3.16249897,5.9473378 C3.16249897,6.14708996 3.00055287,6.30893133 2.8008933,6.30893133 C2.60123372,6.30893133 2.43906578,6.14708996 2.43906578,5.9473378 C2.43906578,5.74780734 2.60123372,5.58596597 2.8008933,5.58596597" id="Fill-35"></path>
                        <path d="M16.2991069,2.60874987 C16.4412341,2.60874987 16.5568023,2.72454659 16.5568023,2.86725043 C16.5568023,3.01019452 16.4412341,3.12599124 16.2991069,3.12599124 C16.1569796,3.12599124 16.0416507,3.01019452 16.0416507,2.86725043 C16.0416507,2.72454659 16.1569796,2.60874987 16.2991069,2.60874987" id="Fill-36"></path>
                        <path d="M9.20952195,0.618544414 C9.40918153,0.618544414 9.57112762,0.780385785 9.57112762,0.980137941 C9.57112762,1.1796684 9.40918153,1.34150977 9.20952195,1.34150977 C9.00964053,1.34150977 8.84769443,1.1796684 8.84769443,0.980137941 C8.84769443,0.780385785 9.00964053,0.618544414 9.20952195,0.618544414" id="Fill-37"></path>
                        <path d="M9.84812344,2.90516344 C9.99025071,2.90516344 10.1055796,3.02101398 10.1055796,3.16378413 C10.1055796,3.30679464 9.99025071,3.42240482 9.84812344,3.42240482 C9.70575691,3.42240482 9.59042805,3.30679464 9.59042805,3.16378413 C9.59042805,3.02101398 9.70575691,2.90516344 9.84812344,2.90516344" id="Fill-38"></path>
                        <path d="M3.72543424,11.7332776 C3.86780078,11.7332776 3.98312964,11.8490744 3.98312964,11.9920184 C3.98312964,12.1347223 3.86780078,12.250519 3.72543424,12.250519 C3.58330698,12.250519 3.46797812,12.1347223 3.46797812,11.9920184 C3.46797812,11.8490744 3.58330698,11.7332776 3.72543424,11.7332776" id="Fill-39"></path>
                        <path d="M17.1637376,11.5443888 C17.363619,11.5443888 17.5255651,11.7060085 17.5255651,11.9057606 C17.5255651,12.1052911 17.363619,12.2671325 17.1637376,12.2671325 C16.964078,12.2671325 16.8021319,12.1052911 16.8021319,11.9057606 C16.8021319,11.7060085 16.964078,11.5443888 17.1637376,11.5443888" id="Fill-40"></path>
                    </g>
                    <g id="vasenkasi" transform="translate(0.000000, 14.853934)">
                        <path d="M4.65894525,1.44947791 C5.52923915,1.44947791 5.62086071,0.00842461926 4.65894525,0.00820291876 C0.415957447,0.00753781724 -1.0085027,4.55128971 0.760481135,7.18908234 C1.65806184,8.5274883 2.92101957,9.35221419 5.61598014,9.50053182 C6.37047149,9.54198982 6.8024017,8.94805416 6.56391943,8.45831774 C7.57220028,8.54056863 8.10884085,7.66662523 7.72438525,7.10572295 C8.75529418,7.12079858 9.13797504,5.84269516 8.19203234,5.31216585 C8.73310979,4.63863971 8.31604312,3.7624793 7.45240454,3.7624793 C6.98586667,3.7624793 5.25748028,3.62014758 4.27515518,3.13240646 C3.12733447,2.56197106 3.49160227,1.44947791 4.65894525,1.44947791" id="Fill-42" fill="#F7CDAF"></path>
                        <path d="M6.6147217,8.87511469 C6.64467064,8.73876888 6.63025078,8.59444185 6.56391943,8.45831774 C6.01308085,8.38648678 5.48198638,8.32529744 4.93514099,8.19648944 C4.33216908,8.05437942 3.7516034,7.85573576 3.24779574,7.59235556 C3.14419461,7.53848234 3.01641248,7.57838843 2.9625044,7.68192257 C2.90837447,7.785235 2.94852823,7.91293449 3.05190752,7.96680772 C3.59143206,8.24903246 4.20549617,8.45964794 4.83908255,8.60907409 C5.4260817,8.7474152 6.03326865,8.8336567 6.6147217,8.87511469" id="Fill-43" fill-opacity="0.227694746" fill="#E7991D"></path>
                        <path d="M7.84883972,7.52983602 C7.85283291,7.38329198 7.81401021,7.23785645 7.72660369,7.10882676 C6.90334071,7.11858158 6.05123801,7.02524566 5.26657589,6.84588995 C4.40160624,6.6479114 3.62249021,6.34684211 3.06011574,5.96507384 C2.96361362,5.89967219 2.83228199,5.92494605 2.76683801,6.02138577 C2.7011722,6.11782549 2.72646241,6.24929389 2.82318638,6.31469554 C3.43059518,6.72705848 4.25940426,7.04963272 5.17184851,7.2582529 C6.02506043,7.45334934 6.95547404,7.55045417 7.84883972,7.52983602" id="Fill-44" fill-opacity="0.227694746" fill="#E7991D"></path>
                        <path d="M8.59978156,5.69459922 C8.51126582,5.54872029 8.37727206,5.41592168 8.19203234,5.31216585 L8.19913135,5.30285443 C7.38429844,5.35894465 6.5486122,5.33256229 5.77304567,5.21240062 C4.88766638,5.07516801 4.08192908,4.81644351 3.47940085,4.41982131 C3.3817895,4.35574986 3.25067972,4.38279732 3.18656681,4.48034555 C3.12267574,4.57767207 3.14951887,4.70869707 3.24713021,4.77276851 C3.90312284,5.2044194 4.76676142,5.48398374 5.70848908,5.62986267 C6.6369061,5.773968 7.64274667,5.78948704 8.59978156,5.69459922" id="Fill-45" fill-opacity="0.227694746" fill="#E7991D"></path>
                    </g>
                    <g id="kattilankahvat" transform="translate(3.549504, 16.184137)" fill="#9F2100">
                        <path d="M1.1094417,0.119274873 L4.11343092,0.119274873 L4.11343092,2.4508991 L4.11054695,2.450234 L4.10721929,2.4497906 L4.08525674,2.44624339 L4.08192908,2.44557829 L4.07882326,2.44513489 L4.07571745,2.44469149 L4.07238979,2.44424809 L4.06928397,2.44380469 L4.06595631,2.44336129 L4.05308936,2.44158768 L4.04998355,2.44114428 L4.04665589,2.44092258 L4.04355007,2.44047918 L4.04022241,2.44003578 L4.03689475,2.43981408 L4.03378894,2.43937068 L4.03046128,2.43914898 L4.01737248,2.43759707 L4.01404482,2.43737537 L4.01093901,2.43715367 L4.00406184,2.43648857 L4.00095603,2.43626687 L3.99430071,2.43582347 L3.99097305,2.43538007 L3.98764539,2.43538007 L3.98431773,2.43515837 L3.98254298,2.43493667 L3.98099007,2.43493667 L3.97766241,2.43471497 L3.97433475,2.43449327 L3.94726979,2.43316306 L3.94394213,2.43294136 L3.94061447,2.43294136 C3.92819121,2.43249796 3.91576794,2.43227626 3.90290099,2.43227626 C3.43636312,2.43227626 1.70797674,2.28994454 0.725651631,1.80220342 C-0.403534184,1.24107944 -0.0692153191,0.155412055 1.05309333,0.120161675 C1.07172823,0.119718274 1.09036312,0.119274873 1.1094417,0.119274873" id="Fill-41"></path>
                        <path d="M24.9073101,0.119274873 L21.903099,0.119274873 L21.903099,2.4508991 L21.9064267,2.450234 L21.9095325,2.4497906 L21.9317169,2.44624339 L21.9348227,2.44557829 L21.9381504,2.44513489 L21.9412562,2.44469149 L21.944362,2.44424809 L21.9476896,2.44380469 L21.9507955,2.44336129 L21.9636624,2.44158768 L21.9669901,2.44114428 L21.9700959,2.44092258 L21.9734235,2.44047918 L21.9765294,2.44003578 L21.979857,2.43981408 L21.9831847,2.43937068 L21.9862905,2.43914898 L21.9993793,2.43759707 L22.0029288,2.43737537 L22.0060346,2.43715367 L22.0126899,2.43648857 L22.0157957,2.43626687 L22.0226729,2.43582347 L22.0257787,2.43538007 L22.0293282,2.43538007 L22.032434,2.43515837 L22.0342088,2.43493667 L22.0359835,2.43493667 L22.0393112,2.43471497 L22.042417,2.43449327 L22.0692601,2.43316306 L22.0728096,2.43294136 L22.0763591,2.43294136 C22.0885606,2.43249796 22.1012057,2.43227626 22.1140726,2.43227626 C22.5803887,2.43227626 24.308775,2.28994454 25.291322,1.80220342 C26.4205078,1.24107944 26.0859671,0.155412055 24.9636584,0.120161675 C24.9450235,0.119718274 24.9263887,0.119274873 24.9073101,0.119274873" id="Fill-46"></path>
                    </g>
                    <g id="oikeakasi" transform="translate(24.180993, 14.853934)">
                        <path d="M4.27582071,1.44947791 C3.40552681,1.44947791 3.31390525,0.00842461926 4.27582071,0.00820291876 C8.51903035,0.00753781724 9.9434905,4.55128971 8.17450667,7.18908234 C7.27692596,8.5274883 6.01352454,9.35221419 3.31878582,9.50053182 C2.56429447,9.54198982 2.1325861,8.94805416 2.37106837,8.45831774 C1.36256567,8.54056863 0.82614695,7.66662523 1.21038071,7.10572295 C0.179471773,7.12079858 -0.202987234,5.84269516 0.742955461,5.31216585 C0.20165617,4.63863971 0.618944681,3.7624793 1.48258326,3.7624793 C1.94889929,3.7624793 3.67728567,3.62014758 4.65983262,3.13240646 C5.80765333,2.56197106 5.44316369,1.44947791 4.27582071,1.44947791" id="Fill-47" fill="#F7CDAF"></path>
                        <path d="M2.32004426,8.87511469 C2.29009532,8.73876888 2.30473702,8.59444185 2.37106837,8.45831774 C2.92168511,8.38648678 3.45277957,8.32529744 3.99962496,8.19648944 C4.60281872,8.05437942 5.18316255,7.85573576 5.68719206,7.59235556 C5.79079319,7.53848234 5.91857532,7.57838843 5.9724834,7.68192257 C6.02639149,7.785235 5.98623773,7.91293449 5.88308028,7.96680772 C5.3433339,8.24903246 4.72926979,8.45964794 4.09590525,8.60907409 C3.50868426,8.7474152 2.9014973,8.8336567 2.32004426,8.87511469" id="Fill-48" fill-opacity="0.227694746" fill="#E7991D"></path>
                        <path d="M1.08614809,7.52983602 C1.08193305,7.38329198 1.12097759,7.23785645 1.20816227,7.10882676 C2.03142525,7.11858158 2.88352794,7.02524566 3.66819007,6.84588995 C4.53315972,6.6479114 5.31227574,6.34684211 5.87442837,5.96507384 C5.97115234,5.89967219 6.10270582,5.92494605 6.16814979,6.02138577 C6.2338156,6.11782549 6.20830355,6.24929389 6.11180142,6.31469554 C5.50417078,6.72705848 4.6753617,7.04963272 3.76291745,7.2582529 C2.90970553,7.45334934 1.97951376,7.55045417 1.08614809,7.52983602" id="Fill-49" fill-opacity="0.227694746" fill="#E7991D"></path>
                        <path d="M0.742955461,5.31216585 L0.735412766,5.30285443 C1.55046752,5.35894465 2.3863756,5.33256229 3.16172028,5.21240062 C4.04709957,5.07516801 4.85283688,4.81644351 5.45558695,4.41982131 C5.55297645,4.35574986 5.68408624,4.38279732 5.74819915,4.48034555 C5.81209021,4.57767207 5.78524709,4.70869707 5.68785759,4.77276851 C5.03186496,5.2044194 4.16800454,5.48398374 3.22627688,5.62986267 C2.29785986,5.773968 1.29201929,5.78948704 0.334984397,5.69459922 C0.423500142,5.54872029 0.557715745,5.41592168 0.742955461,5.31216585 Z" id="Fill-50" fill-opacity="0.227694746" fill="#E7991D"></path>
                    </g>
                </g>
            </g>
        </g>
    </g>
</svg>