<?xml version="1.0" encoding="UTF-8" standalone="no"?>
<svg width="104px" height="22px" viewBox="0 0 104 22" version="1.1" xmlns="http://www.w3.org/2000/svg" xmlns:xlink="http://www.w3.org/1999/xlink">
    <!-- Generator: Sketch 3.6 (26304) - http://www.bohemiancoding.com/sketch -->
    <title>maukasta</title>
    <desc>Created with Sketch.</desc>
    <defs></defs>
    <g id="Page-1" stroke="none" stroke-width="1" fill="none" fill-rule="evenodd">
        <g id="Mobile-Portrait" transform="translate(-108.000000, -14.000000)" fill="#4A4A4A">
            <g id="Top">
                <g id="maukasta" transform="translate(108.000000, 14.000000)">
                    <path d="M22.4311509,0.937438424 L24.2665495,0.937438424 C24.7858906,0.937438424 25.2226093,1.29483682 25.3220934,1.80122097 L28.9810875,20.4210917 C29.0190263,20.6161123 28.9726566,20.798578 28.8461937,20.9509118 C28.7188877,21.1040825 28.5468981,21.1844344 28.3479297,21.1844344 L26.5091588,21.1844344 C25.9780145,21.1844344 25.532865,20.808622 25.4477133,20.2880089 L24.9620956,17.3275449 L21.551812,17.3275449 L20.9894736,20.3131188 C20.8933617,20.822851 20.4549569,21.1844344 19.9322435,21.1844344 L18.2039168,21.1844344 C18.0032623,21.1844344 17.8312727,21.1032455 17.7048098,20.9492378 C17.5775038,20.79523 17.5319771,20.6119273 17.5716022,20.4169067 L21.3764501,1.79285099 C21.4801497,1.29065183 21.9143391,0.937438424 22.4311509,0.937438424 L22.4311509,0.937438424 Z M21.9312008,14.7755362 L24.5523558,14.7755362 L23.2253381,6.80730955 L21.9312008,14.7755362 L21.9312008,14.7755362 Z" id="Fill-8"></path>
                    <path d="M31.7624288,0.937438424 L33.946022,0.937438424 C34.3018044,0.937438424 34.591826,1.22536594 34.591826,1.57857935 L34.591826,14.2373461 C34.591826,15.3488802 34.3060198,18.6592096 36.1388891,18.6592096 C37.9532106,18.6592096 37.6547581,15.3354882 37.6547581,14.2373461 L37.6547581,1.57857935 C37.6547581,1.22536594 37.9447797,0.937438424 38.299719,0.937438424 L40.5145064,0.937438424 C40.8702888,0.937438424 41.1603104,1.22536594 41.1603104,1.57857935 L41.1603104,16.3072436 C41.1603104,19.3120685 39.7270639,21.4397189 36.1388891,21.4397189 C32.5928687,21.4397189 31.1174679,19.2794256 31.1174679,16.3072436 L31.1174679,1.57857935 C31.1174679,1.22536594 31.4074895,0.937438424 31.7624288,0.937438424" id="Fill-9"></path>
                    <path d="M45.3361163,0.937438424 L47.5197095,0.937438424 C47.8754919,0.937438424 48.1646704,1.22536594 48.1646704,1.57857935 L48.1646704,9.2747814 L48.6705221,9.30240236 L51.6879276,1.61791828 C51.8523294,1.19941898 52.2376198,0.937438424 52.689514,0.937438424 L54.5072078,0.937438424 C54.7314687,0.937438424 54.9236923,1.04122625 55.0467829,1.22703994 C55.1698735,1.41285362 55.1884214,1.62963626 55.0990543,1.83386392 L51.4172969,10.2390038 L55.7111348,20.2938679 C55.7988158,20.4972585 55.7785817,20.7123672 55.6554911,20.8973439 C55.5324006,21.0823205 55.34102,21.1844344 55.1176022,21.1844344 L53.130448,21.1844344 C52.6785538,21.1844344 52.2932635,20.9232908 52.1288617,20.5064655 L48.7025594,11.8267901 L48.1646704,11.8267901 L48.1646704,20.5441305 C48.1646704,20.8965069 47.8754919,21.1844344 47.5197095,21.1844344 L45.3361163,21.1844344 C44.981177,21.1844344 44.6911554,20.8965069 44.6911554,20.5441305 L44.6911554,1.57857935 C44.6911554,1.22536594 44.981177,0.937438424 45.3361163,0.937438424" id="Fill-10"></path>
                    <path d="M62.492077,0.937438424 L64.3266325,0.937438424 C64.8459736,0.937438424 65.2835353,1.29483682 65.3821764,1.80122097 L69.0420135,20.4210917 C69.0807955,20.6161123 69.0335827,20.798578 68.9062767,20.9509118 C68.7798137,21.1040825 68.6078241,21.1844344 68.4088558,21.1844344 L66.5700848,21.1844344 C66.0380975,21.1844344 65.5937911,20.808622 65.5077963,20.2880089 L65.0230217,17.3275449 L61.6127381,17.3275449 L61.0503996,20.3131188 C60.9542878,20.822851 60.515883,21.1844344 59.9931696,21.1844344 L58.2639998,21.1844344 C58.0641884,21.1844344 57.8921988,21.1032455 57.7657359,20.9492378 C57.6384298,20.79523 57.5929032,20.6119273 57.6316852,20.4169067 L61.4382193,1.79285099 C61.5402327,1.29065183 61.9752652,0.937438424 62.492077,0.937438424 L62.492077,0.937438424 Z M61.9912838,14.7755362 L64.6132818,14.7755362 L63.2854211,6.80730955 L61.9912838,14.7755362 L61.9912838,14.7755362 Z" id="Fill-11"></path>
                    <path d="M74.2042302,15.5296719 C74.2050733,16.7751258 74.3180469,18.6148487 75.786703,18.6608836 C76.207403,18.6608836 76.5547545,18.4951579 76.8287575,18.1645435 C77.1019174,17.833092 77.186226,17.3275449 77.0808403,16.647065 C76.9965316,15.8720043 76.6491801,15.0216137 76.0387857,14.0950563 C75.7445487,13.5844872 75.3230056,12.9893812 74.7749996,12.3089013 C73.2810508,10.3988705 72.3174033,9.04795479 71.8865863,8.25364312 C71.4540831,7.45933146 71.2702903,6.50515306 71.3326787,5.38943394 C71.3545989,3.99080929 71.7542218,2.86588318 72.5332334,2.01549261 C73.312245,1.16426504 74.3020282,0.71981879 75.5025829,0.682153853 C77.1651489,0.60682398 78.359802,1.08893517 79.0865423,2.12848742 C79.709583,3.02072792 80.1193229,4.17662298 80.316605,5.59784659 C80.3427407,5.78784527 80.2904694,5.96110398 80.1640064,6.10590473 C80.0367004,6.24986849 79.8697694,6.32519836 79.6775457,6.32519836 L77.90032,6.32519836 C77.5732026,6.32519836 77.3008858,6.08665376 77.2604176,5.76440931 C77.1322685,4.74578202 76.8717549,3.23416256 75.8178972,3.29107847 C75.1442713,3.3287434 74.7969198,3.79244062 74.7749996,4.68049613 C74.7126112,5.75855032 75.4064711,7.137924 76.8599517,8.82112817 C77.1128775,9.14253563 77.3497848,9.43548513 77.5706733,9.69997669 C77.792405,9.96446824 78.0706234,10.3235406 78.4070148,10.7771939 C79.0814838,11.6468354 79.6126281,12.5591639 80.002977,13.5141793 C80.3916397,14.4683577 80.5551984,15.475267 80.491967,16.5340702 C80.4278924,18.0080247 79.9389024,19.1948887 79.0224677,20.0929882 C78.1077192,20.9910877 77.0184519,21.4397189 75.7546657,21.4397189 C74.2177196,21.4397189 73.0019893,20.791882 72.1066318,19.4970452 C71.3141308,18.3495201 70.9718378,17.0111594 71.0805959,15.484474 C71.1042023,15.1480005 71.3841069,14.889368 71.7238707,14.889368 L73.5584262,14.889368 C73.9142086,14.889368 74.2042302,15.1764585 74.2042302,15.5296719" id="Fill-12"></path>
                    <path d="M91.9815454,1.57857935 L91.9815454,2.93451707 C91.9815454,3.28689347 91.6915238,3.57482099 91.3365845,3.57482099 L88.602456,3.57482099 L88.602456,20.5441305 C88.602456,20.8965069 88.3124344,21.1844344 87.956652,21.1844344 L85.7418646,21.1844344 C85.3860822,21.1844344 85.0969037,20.8965069 85.0969037,20.5441305 L85.0969037,3.57482099 L82.3939694,3.57482099 C82.0398732,3.57482099 81.7490085,3.28689347 81.7490085,2.93451707 L81.7490085,1.57857935 C81.7490085,1.22536594 82.0398732,0.937438424 82.3939694,0.937438424 L91.3365845,0.937438424 C91.6915238,0.937438424 91.9815454,1.22536594 91.9815454,1.57857935" id="Fill-13"></path>
                    <path d="M97.1260573,0.937438424 L98.9614559,0.937438424 C99.480797,0.937438424 99.9175157,1.29483682 100.017,1.80122097 L103.675994,20.4210917 C103.714776,20.6161123 103.667563,20.798578 103.5411,20.9509118 C103.413794,21.1040825 103.241804,21.1844344 103.042836,21.1844344 L101.204065,21.1844344 C100.672078,21.1844344 100.227771,20.808622 100.141777,20.2880089 L99.657002,17.3275449 L96.2467184,17.3275449 L95.6843799,20.3131188 C95.5882681,20.822851 95.1498633,21.1844344 94.6271499,21.1844344 L92.8988232,21.1844344 C92.6981687,21.1844344 92.5261791,21.1032455 92.3997162,20.9492378 C92.2724102,20.79523 92.2268835,20.6119273 92.2665086,20.4169067 L96.0713565,1.79285099 C96.174213,1.29065183 96.6092455,0.937438424 97.1260573,0.937438424 L97.1260573,0.937438424 Z M96.6252641,14.7755362 L99.2472621,14.7755362 L97.9210876,6.80730955 L96.6252641,14.7755362 L96.6252641,14.7755362 Z" id="Fill-14"></path>
                    <path d="M5.28699344,1.79368798 L7.78674397,14.0532064 L10.2873376,1.79368798 C10.3901941,1.29065183 10.8243835,0.937438424 11.3420384,0.937438424 L14.6857182,0.937438424 C15.0406575,0.937438424 15.3315222,1.22536594 15.3315222,1.57857935 L15.3315222,20.5441305 C15.3315222,20.8965069 15.0406575,21.1844344 14.6857182,21.1844344 L12.7238566,21.1844344 C12.3680743,21.1844344 12.0780526,20.8965069 12.0780526,20.5441305 L12.0780526,6.80730955 L11.9591775,6.80730955 L9.29839749,20.3214888 C9.19975641,20.827873 8.76303776,21.1844344 8.24285359,21.1844344 L7.33063434,21.1844344 C6.81129326,21.1844344 6.3754177,20.827873 6.27509044,20.3214888 L3.61599663,6.80730955 L3.49543531,6.80730955 L3.49543531,20.5441305 C3.49543531,20.8965069 3.20625675,21.1844344 2.85047438,21.1844344 L0.888612835,21.1844344 C0.532830466,21.1844344 0.243651906,20.8965069 0.243651906,20.5441305 L0.243651906,1.57857935 C0.243651906,1.22536594 0.532830466,0.937438424 0.888612835,0.937438424 L4.23313571,0.937438424 C4.74910446,0.937438424 5.18413693,1.29065183 5.28699344,1.79368798" id="Fill-15"></path>
                </g>
            </g>
        </g>
    </g>
</svg>