<?xml version="1.0" encoding="UTF-8" standalone="no"?>
<svg width="154px" height="135px" viewBox="0 0 154 135" version="1.1" xmlns="http://www.w3.org/2000/svg" xmlns:xlink="http://www.w3.org/1999/xlink">
    <!-- Generator: Sketch 3.6.1 (26313) - http://www.bohemiancoding.com/sketch -->
    <title>maukasta-logo</title>
    <desc>Created with Sketch.</desc>
    <defs></defs>
    <g id="Page-1" stroke="none" stroke-width="1" fill="none" fill-rule="evenodd">
        <g id="maukasta-logo">
            <g id="Page-1">
                <g id="Mobile-Portrait">
                    <g id="Logo">
                        <path d="M32.7609333,59.3441488 L120.494733,59.3441488 C121.52448,59.3441488 122.366347,60.1875238 122.366347,61.220375 L122.366347,63.4446607 C122.366347,64.4764821 121.52448,65.3208869 120.494733,65.3208869 L32.7609333,65.3208869 C31.7311867,65.3208869 30.88932,64.4764821 30.88932,63.4446607 L30.88932,61.220375 C30.88932,60.1875238 31.7311867,59.3441488 32.7609333,59.3441488" id="kansi" fill="#9F2100"></path>
                        <path d="M76.6283467,47.9580714 C81.4506,47.9580714 85.3601467,51.8794048 85.3601467,56.7161964 L81.2021467,56.7161964 C81.2021467,54.1819524 79.1549733,52.1286071 76.6283467,52.1286071 C74.10172,52.1286071 72.0545467,54.1819524 72.0545467,56.7161964 L67.8965467,56.7161964 C67.8965467,51.8794048 71.8050667,47.9580714 76.6283467,47.9580714" id="nuppi" fill="#C04C29"></path>
                        <g id="kattilanrunko" transform="translate(34.906667, 67.934524)">
                            <path d="M0.556453333,0.01431548 L82.8848533,0.01431548 L82.8848533,57.2886429 C82.8848533,62.1831012 78.8942,66.1868155 74.0144533,66.1868155 L9.42788,66.1868155 C4.54916,66.1868155 0.556453333,62.1831012 0.556453333,57.2896726 L0.556453333,0.01431548" id="Fill-18" fill="#D44319"></path>
                            <path d="M8.54084,7.49656548 C8.54084,6.04563095 9.71329333,4.8686131 11.1598667,4.8686131 C12.60644,4.8686131 13.7788933,6.04563095 13.7788933,7.49656548 L13.7788933,57.2896726 C13.7788933,58.7395774 12.60644,59.9165952 11.1598667,59.9165952 C9.71329333,59.9165952 8.54084,58.7395774 8.54084,57.2896726 L8.54084,7.49656548" id="Fill-19" fill="#E07C3E"></path>
                            <path d="M72.80504,7.49656548 L72.80504,10.7114821 L75.1961467,10.7114821 C75.9199467,10.7114821 76.5072,11.2994762 76.5072,12.0244286 C76.5072,12.7504107 75.9199467,13.337375 75.1961467,13.337375 L72.80504,13.337375 L72.80504,16.5522917 L75.1961467,16.5522917 C75.9199467,16.5522917 76.5072,17.1402857 76.5072,17.8652381 C76.5072,18.5912202 75.9199467,19.1792143 75.1961467,19.1792143 L72.80504,19.1792143 L72.80504,22.3931012 L75.1961467,22.3931012 C75.9199467,22.3931012 76.5072,22.982125 76.5072,23.7070774 C76.5072,24.4320298 75.9199467,25.0210536 75.1961467,25.0210536 L72.80504,25.0210536 L72.80504,28.2339107 L75.1961467,28.2339107 C75.9199467,28.2339107 76.5072,28.8229345 76.5072,29.5478869 C76.5072,30.2728393 75.9199467,30.8618631 75.1961467,30.8618631 L72.80504,30.8618631 L72.80504,34.07575 L75.1961467,34.07575 C75.9199467,34.07575 76.5072,34.663744 76.5072,35.3897262 C76.5072,36.1146786 75.9199467,36.7026726 75.1961467,36.7026726 L72.80504,36.7026726 L72.80504,39.9165595 L75.1961467,39.9165595 C75.9199467,39.9165595 76.5072,40.5045536 76.5072,41.229506 C76.5072,41.9554881 75.9199467,42.5434821 75.1961467,42.5434821 L72.80504,42.5434821 L72.80504,45.757369 L75.1961467,45.757369 C75.9199467,45.757369 76.5072,46.3463929 76.5072,47.0713452 C76.5072,47.7962976 75.9199467,48.3853214 75.1961467,48.3853214 L72.80504,48.3853214 L72.80504,51.5992083 L75.1961467,51.5992083 C75.9199467,51.5992083 76.5072,52.1872024 76.5072,52.9121548 C76.5072,53.6381369 75.9199467,54.226131 75.1961467,54.226131 L72.80504,54.226131 L72.80504,57.2896726 C72.80504,57.3391012 72.8029867,57.3895595 72.7999067,57.4400179 L75.1961467,57.4400179 C75.9199467,57.4400179 76.5072,58.0280119 76.5072,58.753994 C76.5072,59.4789464 75.9199467,60.0669405 75.1961467,60.0669405 L46.7277067,60.0669405 C46.0039067,60.0669405 45.41768,59.4789464 45.41768,58.753994 C45.41768,58.0280119 46.0039067,57.4400179 46.7277067,57.4400179 L55.3003733,57.4400179 C55.29832,57.3895595 55.2962667,57.3391012 55.2962667,57.2896726 L55.2962667,54.226131 L46.7277067,54.226131 C46.0039067,54.226131 45.41768,53.6381369 45.41768,52.9121548 C45.41768,52.1872024 46.0039067,51.5992083 46.7277067,51.5992083 L55.2962667,51.5992083 L55.2962667,48.3853214 L46.7277067,48.3853214 C46.0039067,48.3853214 45.41768,47.7962976 45.41768,47.0713452 C45.41768,46.3463929 46.0039067,45.757369 46.7277067,45.757369 L55.2962667,45.757369 L55.2962667,42.5434821 L46.7277067,42.5434821 C46.0039067,42.5434821 45.41768,41.9554881 45.41768,41.229506 C45.41768,40.5045536 46.0039067,39.9165595 46.7277067,39.9165595 L55.2962667,39.9165595 L55.2962667,36.7026726 L46.7277067,36.7026726 C46.0039067,36.7026726 45.41768,36.1146786 45.41768,35.3897262 C45.41768,34.663744 46.0039067,34.07575 46.7277067,34.07575 L55.2962667,34.07575 L55.2962667,30.8618631 L46.7277067,30.8618631 C46.0039067,30.8618631 45.41768,30.2728393 45.41768,29.5478869 C45.41768,28.8229345 46.0039067,28.2339107 46.7277067,28.2339107 L55.2962667,28.2339107 L55.2962667,25.0210536 L46.7277067,25.0210536 C46.0039067,25.0210536 45.41768,24.4320298 45.41768,23.7070774 C45.41768,22.982125 46.0039067,22.3931012 46.7277067,22.3931012 L55.2962667,22.3931012 L55.2962667,19.1792143 L46.7277067,19.1792143 C46.0039067,19.1792143 45.41768,18.5912202 45.41768,17.8652381 C45.41768,17.1402857 46.0039067,16.5522917 46.7277067,16.5522917 L55.2962667,16.5522917 L55.2962667,13.337375 L46.7277067,13.337375 C46.0039067,13.337375 45.41768,12.7504107 45.41768,12.0244286 C45.41768,11.2994762 46.0039067,10.7114821 46.7277067,10.7114821 L55.2962667,10.7114821 L55.2962667,7.49656548 L46.7277067,7.49656548 C46.0039067,7.49656548 45.41768,6.90754167 45.41768,6.18258929 C45.41768,5.4576369 46.0039067,4.8686131 46.7277067,4.8686131 L75.1961467,4.8686131 C75.9199467,4.8686131 76.5072,5.4576369 76.5072,6.18258929 C76.5072,6.90754167 75.9199467,7.49656548 75.1961467,7.49656548 L72.80504,7.49656548" id="Fill-20" fill="#A52000"></path>
                        </g>
                        <path d="M54.9923733,20.0051845 C54.52216,20.3995833 53.8209467,20.3377976 53.4277333,19.8661667 C53.0334933,19.393506 53.09612,18.6901786 53.5663333,18.2957798 C53.9410667,17.9817024 54.13716,17.6357024 54.1905467,17.304119 C54.22032,17.1146429 54.20492,16.9210476 54.1505067,16.7367202 C54.0950667,16.547244 53.9944533,16.3649762 53.8579067,16.201244 C53.5930267,15.8820179 53.1936533,15.6451726 52.7070133,15.5679405 C52.1680133,15.4824702 51.7080667,15.5627917 51.3353867,15.7625655 C50.8826267,16.0055893 50.5263733,16.4360298 50.29024,16.9653274 C50.03152,17.5440536 49.9196133,18.2360536 49.9740267,18.9465893 C50.0428133,19.834244 50.3816133,20.7352857 51.03252,21.4592083 C51.5304533,22.0121905 52.15672,22.385994 52.8394533,22.5909167 C53.6423067,22.8308512 54.5293467,22.8390893 55.39072,22.6331369 C56.2603067,22.425125 57.0980667,21.9977738 57.7910667,21.3716786 C58.4789333,20.7486726 59.0271733,19.9228036 59.3279867,18.9136369 C59.9285867,16.8953036 59.6400933,15.0715952 58.8013067,13.6124226 L58.7992533,13.6134524 C58.3362267,12.8102381 57.70688,12.11 56.9666533,11.5426012 C56.2202667,10.9700536 55.3609467,10.5324048 54.4461867,10.2595179 C52.5807333,9.70035714 50.49352,9.82804762 48.6722133,10.8825238 C48.3611333,11.0627321 48.07264,11.2480893 47.8067333,11.4375655 C45.22056,13.2808393 44.3140133,15.8222917 44.40128,18.5089405 C44.4926533,21.3428452 45.65792,24.3641667 47.1568533,26.9674048 C47.5993467,27.7366369 48.0685333,28.4646786 48.5449067,29.1371131 C51.051,32.6743452 52.7501333,36.8428214 52.668,40.8053452 C52.59716,44.2437202 51.21424,47.5008571 47.91864,50.0453988 C45.1948933,52.1481726 41.8654133,52.8710655 38.7484533,52.4560714 C37.1838133,52.2480595 35.6746133,51.7548036 34.3224933,51.0082262 C32.9580533,50.2554702 31.74556,49.2411548 30.79076,47.9972024 C29.1388533,45.845 28.2641333,43.0255119 28.7045733,39.7014405 C28.9468667,37.869494 29.67272,36.2846905 30.6973333,35.010875 C31.7229733,33.735 33.0504533,32.7670238 34.4949733,32.1677024 C35.9456533,31.5652917 37.52056,31.3356548 39.0338667,31.5374881 C40.3890667,31.7176964 41.6929333,32.2408155 42.8140533,33.1480357 C44.2462533,34.3065179 45.1445867,35.8830833 45.53472,37.5121667 C45.8447733,38.8096667 45.8345067,40.1442381 45.5152133,41.3305238 C45.1815467,42.5744762 44.50908,43.6732321 43.5121867,44.4311369 C42.6497867,45.0870952 41.5697333,45.4784048 40.2843467,45.4784048 C39.0071733,45.4784048 37.8706533,45.0181012 37.0298133,44.2859405 C36.5647333,43.8781548 36.1879467,43.3848988 35.9271733,42.8380952 C35.6622933,42.280994 35.5175333,41.6693155 35.5175333,41.0339524 C35.5175333,40.0165476 35.8861067,38.9517738 36.7300267,37.9786488 C37.1335067,37.5142262 37.8367733,37.4647976 38.2998,37.8705238 C38.7628267,38.2741905 38.8121067,38.9795774 38.4086267,39.444 C37.9456,39.9774167 37.7433467,40.5283393 37.7433467,41.0339524 C37.7433467,41.329494 37.8121333,41.6167976 37.93636,41.8783571 C38.0646933,42.1481548 38.2546267,42.3952976 38.4917867,42.6022798 C38.9445467,42.9977083 39.5697867,43.2448512 40.2843467,43.2448512 C41.0615333,43.2448512 41.69088,43.0265417 42.1723867,42.6609762 C42.7545067,42.2181786 43.1559333,41.5405952 43.3674267,40.7548869 C43.59432,39.9104821 43.60048,38.9579524 43.3776933,38.0260179 C43.0963867,36.8510595 42.4506133,35.7152321 41.4218933,34.8831845 C40.6293067,34.2426726 39.7063333,33.8719583 38.7464,33.7442679 C37.6211733,33.5949524 36.4384533,33.7710417 35.3388933,34.2261964 C34.2331733,34.6844405 33.2157467,35.4268988 32.4282933,36.4062024 C31.6449467,37.3803571 31.08952,38.5903274 30.90472,39.9897738 C30.5494933,42.6753929 31.2383867,44.9305714 32.5473867,46.6368869 C33.3102,47.6295774 34.28656,48.4451488 35.39228,49.0547679 C36.51032,49.6715952 37.7525867,50.0783512 39.03592,50.2492917 C41.6025867,50.5911726 44.3366,50.0021488 46.5624133,48.2824464 C49.2604933,46.1982083 50.3929067,43.5496607 50.4504,40.7620952 C50.52124,37.3134226 48.9915067,33.6114286 46.73592,30.4274048 C46.2154,29.6942143 45.7082267,28.9064464 45.2349333,28.0836667 C43.5778933,25.2065119 42.2884,21.823744 42.18368,18.5789643 C42.0728,15.1858988 43.2278,11.9699524 46.52032,9.623125 C46.8488533,9.38833929 47.19484,9.16488095 47.55828,8.95480952 C49.9473333,7.57080952 52.66492,7.39883929 55.0806667,8.12173214 C56.25004,8.47185119 57.35268,9.03513095 58.3146667,9.77244048 C59.2828133,10.5148988 60.1103067,11.435506 60.7211733,12.4971905 L60.7211733,12.5023393 C61.8515333,14.4650655 62.2488533,16.893244 61.45832,19.5500298 C61.0343067,20.9741905 60.2560933,22.1429702 59.27768,23.0275357 C58.30132,23.9121012 57.12476,24.5134821 55.9030267,24.8059345 C54.67308,25.0994167 53.38872,25.0819107 52.2039467,24.7276726 C51.1423733,24.410506 50.1649867,23.8225119 49.3795867,22.9503036 C48.38064,21.8402202 47.8621733,20.4644583 47.7574533,19.112381 C47.6742933,18.0424583 47.85396,16.9745952 48.2636,16.0581071 C48.6948,15.0921905 49.3826667,14.2879464 50.2912667,13.800869 C51.0766667,13.3796964 52.0078533,13.2025774 53.0550533,13.3704286 C54.1012267,13.53725 54.9708133,14.060369 55.5632,14.769875 C55.89276,15.1653036 56.1381333,15.6214881 56.28084,16.1085655 C56.4266267,16.6007917 56.46564,17.1259702 56.3814533,17.6532083 C56.2490133,18.4945238 55.8085733,19.3203929 54.9923733,20.0051845" id="Fill-21" fill="#FFFFFF"></path>
                        <path d="M72.2095733,35.901619 C71.8789867,35.3836488 72.02888,34.6947381 72.5452933,34.362125 C73.0617067,34.0305417 73.7485467,34.1808869 74.0791333,34.6978274 C74.6540667,35.5926905 74.8203867,36.5040298 74.6858933,37.3319583 C74.6058133,37.8272738 74.4169067,38.2855179 74.14484,38.6860952 C73.87688,39.0774048 73.5278133,39.4161964 73.1202267,39.6798155 C72.3348267,40.1874881 71.3225333,40.4233036 70.2496667,40.248244 C69.1788533,40.0731845 68.3369867,39.6005238 67.71996,38.9404464 C67.03312,38.2062262 66.64196,37.2567857 66.53724,36.239381 C66.4356,35.2755238 66.5947333,34.2426726 67.0002667,33.2860238 C67.5094933,32.0842917 68.4119333,30.9896548 69.6839733,30.2822083 C70.6572533,29.7415833 71.7178,29.5037083 72.7783467,29.5232738 C74.0483333,29.5469583 75.3131867,29.9392976 76.41788,30.6179107 C77.5184667,31.2944643 78.47224,32.2614107 79.1210933,33.4384286 C79.71656,34.5135 80.05844,35.7615714 80.0338,37.1229167 C79.9855467,39.6489226 79.0245867,41.6528393 77.5502933,43.0842083 C76.66428,43.946119 75.5944933,44.594869 74.43128,45.0201607 C73.2865467,45.4392738 72.0453067,45.6411071 70.79688,45.6174226 C68.2682,45.5700536 65.6953733,44.5979583 63.7857733,42.618756 C62.5065467,41.2934524 61.6616,39.6437738 61.26428,37.9230417 C60.85464,36.1487619 60.9224,34.2838631 61.4819333,32.6115298 C61.7057467,31.9421845 61.9552267,31.230619 62.2180533,30.4799226 C63.8463467,25.8326071 66.02288,19.6200536 65.3319333,14.2323393 C65.09888,12.4096607 64.5732267,10.6714226 63.5455333,9.11648214 C62.5157867,7.55845238 60.9686,6.16415476 58.6894,5.02111905 C58.14116,4.74617262 57.9204267,4.0788869 58.19352,3.52899405 C58.4666133,2.98013095 59.13292,2.75770238 59.6801333,3.03161905 C62.34228,4.36619048 64.16564,6.02204762 65.39764,7.88591667 C66.6306667,9.75184524 67.25796,11.8093095 67.53208,13.9532738 C68.28976,19.8641071 66.0146667,26.3557262 64.3145067,31.2131131 C64.05168,31.9596905 63.8042533,32.6671369 63.5866,33.3179464 C63.15848,34.5989702 63.1102267,36.0406369 63.42952,37.4256667 C63.7385467,38.7664167 64.3915067,40.045381 65.3771067,41.065875 C66.8596133,42.6022798 68.8616133,43.3560655 70.83076,43.3941667 C71.8091733,43.4116726 72.7804,43.254119 73.6746267,42.9266548 C74.54832,42.6074286 75.3470667,42.1244702 76.00208,41.4880774 C77.0780267,40.442869 77.7812933,38.9651607 77.8162,37.0879048 C77.83468,36.1364048 77.5954667,35.2672857 77.1827467,34.5207083 C76.7217733,33.687631 76.0452,33.0018095 75.2608267,32.5188512 C74.4815867,32.0400119 73.6048133,31.7640357 72.74344,31.7475595 C72.0586533,31.7352024 71.3779733,31.8855476 70.763,32.2274286 C69.94988,32.6784643 69.3718667,33.3828214 69.0433333,34.1582321 C68.78564,34.7668214 68.6829733,35.4155714 68.7456,36.0128333 C68.8020667,36.5565476 68.99816,37.0518631 69.3379867,37.4143393 C69.63264,37.7294464 70.0535733,37.9590833 70.6069467,38.0497024 C71.1100133,38.1320833 71.5720133,38.0291071 71.9200533,37.804619 C72.07816,37.7016429 72.2106,37.5739524 72.3101867,37.428756 C72.4036133,37.2917976 72.4682933,37.1373333 72.49396,36.974631 C72.5442667,36.6657024 72.4652133,36.2980774 72.2095733,35.901619" id="Fill-22" fill="#FFFFFF"></path>
                        <path d="M115.326493,35.9685536 C114.795707,36.2743929 114.118107,36.0910952 113.813187,35.5576786 C113.509293,35.0263214 113.691013,34.3466786 114.222827,34.0408393 C114.777227,33.7205833 115.115,33.3055893 115.264893,32.8689702 C115.351133,32.614619 115.377827,32.3489405 115.34908,32.0894405 L115.34908,32.0853214 C115.317253,31.8124345 115.227933,31.5436667 115.088307,31.2985833 C114.815213,30.8248929 114.34808,30.4253452 113.726947,30.2111548 C113.05448,29.9784286 112.44156,29.9794583 111.9118,30.1534881 C111.275267,30.3625298 110.724973,30.8300417 110.306093,31.4489286 C109.85436,32.1193036 109.562787,32.9503214 109.477573,33.8328274 C109.369773,34.9521786 109.59256,36.1456726 110.24244,37.1847024 C110.74448,37.9868869 111.442613,38.5913571 112.245467,38.9950238 C113.18384,39.4666548 114.276213,39.6695179 115.381933,39.6025833 C116.49484,39.5356488 117.613907,39.1927381 118.599507,38.5728214 C119.58408,37.9539345 120.438267,37.0580417 121.023467,35.8841131 C122.148693,33.6289345 122.22364,31.4314226 121.58608,29.5294524 C121.214427,28.4203988 120.602533,27.4050536 119.81508,26.5328452 C119.019413,25.651369 118.045107,24.9140595 116.961973,24.3703452 C114.80392,23.2870357 112.215693,22.9739881 109.730133,23.8122143 C108.122373,24.353869 106.77744,25.3599464 105.70868,26.6183155 C104.47976,28.0671905 103.610173,29.860006 103.123533,31.6795952 C102.3176,34.6988571 102.574267,38.9280893 104.576267,42.9163571 C106.166573,46.0859643 108.85952,49.0959583 112.998013,51.2182976 C113.5442,51.4983929 113.7598,52.1687679 113.481573,52.7155714 C113.203347,53.2613452 112.53396,53.478625 111.989827,53.1995595 C107.38112,50.8352262 104.37504,47.4699643 102.593773,43.920375 C100.328947,39.404869 100.04764,34.5752857 100.975747,31.1039583 C101.53836,28.9939762 102.56092,26.8994405 104.02084,25.1787083 C105.340107,23.6247976 107.013573,22.3787857 109.024813,21.7001726 C112.09968,20.6652619 115.295693,21.0473036 117.953733,22.381875 C119.28224,23.048131 120.478307,23.9543214 121.458773,25.04175 C122.449507,26.1384464 123.22156,27.4194702 123.691773,28.8230357 C124.504893,31.2543036 124.41968,34.0439286 123.00596,36.8788631 C122.225693,38.4420417 121.0902,39.6334762 119.782227,40.4572857 C118.471173,41.282125 116.985587,41.7372798 115.51232,41.826869 C114.03084,41.9164583 112.54936,41.6343036 111.253707,40.983494 C110.0946,40.4027083 109.089493,39.5305 108.36364,38.3709881 C107.43656,36.888131 107.117267,35.1993214 107.268187,33.622756 C107.39036,32.3612976 107.811293,31.1678036 108.463227,30.2018869 C109.148013,29.1855119 110.092547,28.4070119 111.22496,28.0342381 C112.199267,27.7139821 113.29164,27.6995655 114.448693,28.1001429 C115.596507,28.4966012 116.478413,29.2658333 117.010227,30.1905595 C117.30488,30.7054405 117.491733,31.265631 117.55744,31.8371488 C117.624173,32.4220536 117.565653,33.0203452 117.368533,33.5928929 C117.0554,34.5083512 116.391147,35.3537857 115.326493,35.9685536" id="Fill-23" fill="#FFFFFF"></path>
                        <path d="M84.6219733,19.0959048 C85.2338667,19.1360655 85.69792,19.6674226 85.6568533,20.2811607 C85.6168133,20.8959286 85.0860267,21.3603512 84.4741333,21.3191607 C83.41256,21.2470774 82.5850667,20.8341429 82.0091067,20.2265833 C81.66928,19.8713155 81.4218533,19.4480833 81.2678533,18.990869 C81.1189867,18.5449821 81.05944,18.0702619 81.0922933,17.5934821 C81.158,16.6285952 81.59536,15.634875 82.4125867,14.852256 C83.22468,14.0747857 84.1384133,13.6762679 85.0613867,13.584619 C86.0531467,13.4847321 87.03156,13.7462917 87.8898533,14.2714702 C88.7081067,14.769875 89.42164,15.5143929 89.92676,16.4113155 C90.5745867,17.5595 90.8908,18.969244 90.66288,20.4448929 C90.4904,21.560125 90.02224,22.5651726 89.3518267,23.4136964 L89.3518267,23.4178155 C88.5417867,24.4424286 87.4299067,25.2394643 86.1825067,25.7275714 C84.9443467,26.2105298 83.5645067,26.3876488 82.2072533,26.1765476 C81.03172,25.99325 79.8756933,25.5195595 78.848,24.7019286 L78.8438933,24.7019286 C76.9301867,23.1809702 75.9363733,21.2501667 75.6745733,19.2411012 C75.5103067,17.9683155 75.64172,16.6749345 76.0215867,15.44025 C76.39632,14.2241012 77.0143733,13.0604702 77.8264667,12.0327679 C79.42088,10.012375 81.7760533,8.51098214 84.5203333,8.152625 C87.0520933,7.82207143 89.3097333,8.40182738 91.2070133,9.59944048 C93.2603467,10.8969405 94.8722133,12.9173333 95.9307067,15.2806369 C97.9830133,19.8610179 96.4943467,25.2888929 94.9451067,30.9319881 C93.1658933,37.4163988 91.3014667,44.2097381 95.1463333,49.6262857 C95.6730133,50.368744 96.31776,50.9886607 97.09084,51.3346607 C97.7355867,51.622994 98.4963467,51.7300893 99.3874933,51.5684167 C99.90288,51.4747083 100.342293,51.2285952 100.64208,50.8671488 C100.926467,50.5252679 101.09484,50.0598155 101.09484,49.5016845 C101.09484,48.8622024 100.773493,48.4605952 100.396707,48.2948036 C100.246813,48.227869 100.09384,48.1949167 99.9572933,48.1949167 C99.8515467,48.1949167 99.7570933,48.2155119 99.6883067,48.2536131 L99.6893333,48.2546429 C99.6246533,48.2906845 99.5876933,48.4018988 99.6123333,48.6006429 C99.68728,49.2123214 99.253,49.7694226 98.64316,49.8435655 C98.03332,49.9187381 97.4778933,49.482119 97.4039733,48.8714702 C97.2489467,47.6306071 97.77768,46.7728155 98.6020933,46.3094226 L98.6062,46.3094226 C99.0055733,46.0859643 99.4696267,45.9726905 99.94908,45.970631 C100.39876,45.9685714 100.862813,46.0633095 101.29196,46.2527857 C102.389467,46.7378036 103.320653,47.8272917 103.320653,49.5016845 C103.320653,50.5994107 102.959267,51.5519405 102.346347,52.28925 C101.71084,53.0553929 100.812507,53.5702738 99.7786533,53.7576905 C98.4111333,54.0058631 97.2191733,53.8297738 96.1863467,53.3674107 C95.0128667,52.8422321 94.0765467,51.9576667 93.3373467,50.9165774 C88.88264,44.6422381 90.8897733,37.328869 92.80656,30.3470833 C94.248,25.0963274 95.6329733,20.0453452 93.9050933,16.1888869 C93.0201067,14.2138036 91.69468,12.5394107 90.0242933,11.4839048 C88.5479467,10.5519702 86.7872133,10.1009345 84.8067733,10.3594048 C82.6672,10.6395 80.82228,11.8196071 79.5646133,13.4105893 C78.925,14.2210119 78.43836,15.1364702 78.1437067,16.0941488 C77.8552133,17.0343214 77.7525467,18.0084762 77.8757467,18.9527679 C78.0646533,20.4119405 78.8007733,21.8247738 80.2268133,22.9585417 L80.22476,22.9606012 C80.9352133,23.523881 81.73396,23.852375 82.5460533,23.978006 C83.5070133,24.1273214 84.4926133,23.9986012 85.3827333,23.6515714 C86.2636133,23.307631 87.0459333,22.7474405 87.6126533,22.031756 L87.6147067,22.0338155 C88.0551467,21.4756845 88.35904,20.8228155 88.4709467,20.1040417 C88.6167333,19.1566607 88.4134533,18.2504702 87.9956,17.5100714 C87.67528,16.9426726 87.23484,16.47825 86.7338267,16.1724107 C86.2749067,15.8923155 85.7708133,15.7512381 85.2780133,15.7996369 C84.8334667,15.8439167 84.3755733,16.0529583 83.9433467,16.4658929 C83.5491067,16.8438155 83.3396667,17.304119 83.3098933,17.7417679 C83.2965467,17.9343333 83.31708,18.1186607 83.37252,18.2834226 C83.4238533,18.4347976 83.50496,18.5738155 83.6168667,18.6922381 C83.8263067,18.9115774 84.1599733,19.0639821 84.6219733,19.0959048" id="Fill-24" fill="#FFFFFF"></path>
                        <path d="M75.3973733,9.277125 C75.1478933,9.83834524 74.4918533,10.0896071 73.93232,9.839375 C73.3727867,9.58914286 73.12228,8.931125 73.3707333,8.36990476 C74.6448267,5.50819643 76.8162267,3.46308929 79.3952133,2.21501786 C81.3879733,1.25116071 83.6271333,0.766142857 85.87656,0.75172619 C88.1167467,0.736279762 90.3723333,1.189375 92.4102667,2.10071429 C95.1832933,3.34157738 97.55592,5.42890476 98.9562933,8.3390119 C99.2232267,8.89302381 98.9912,9.55927976 98.4388533,9.82701786 C97.8875333,10.0937262 97.2222533,9.861 96.9563467,9.30801786 C95.7992933,6.90249405 93.8219333,5.16940476 91.5047467,4.13346429 C89.75736,3.35084524 87.8159333,2.962625 85.8858,2.97498214 C83.9659333,2.98733929 82.05736,3.40130357 80.36028,4.22202381 C78.2309733,5.25178571 76.4404667,6.9333869 75.3973733,9.277125" id="Fill-25" fill="#FFFFFF"></path>
                        <path d="M102.242653,21.9740893 C101.925413,22.5023571 101.24268,22.6722679 100.717027,22.3540714 C100.191373,22.0369048 100.021973,21.3510833 100.338187,20.8228155 C100.763227,20.115369 101.24884,19.4625 101.78476,18.8652381 C104.16252,16.2115417 107.509453,14.6957321 110.928253,14.250875 C114.336787,13.8070476 117.83772,14.4331429 120.534773,16.0611964 C121.138453,16.4257321 121.705173,16.8427857 122.22364,17.3102976 C122.67948,17.7222024 122.71644,18.4275893 122.305773,18.8848036 C121.895107,19.3420179 121.19184,19.3790893 120.737027,18.9682143 C120.327387,18.5985298 119.874627,18.2659167 119.38696,17.9714048 C117.114947,16.5997619 114.13248,16.0766429 111.205453,16.4576548 C108.287667,16.8376369 105.441747,18.1186607 103.436667,20.3573631 C102.996227,20.8475298 102.595827,21.387125 102.242653,21.9740893" id="Fill-26" fill="#FFFFFF"></path>
                        <path d="M91.9000133,54.555756 C92.3733067,54.9460357 92.4410667,55.6473036 92.05196,56.1220238 C91.66388,56.596744 90.96472,56.6647083 90.4914267,56.2744286 C87.2030133,53.5620357 84.8694,49.2668988 84.07476,44.4290774 C83.3458267,39.9980119 83.9033067,35.0963452 86.1958533,30.530381 C86.4730533,29.9804881 87.1403867,29.760119 87.6876,30.037125 C88.2348133,30.314131 88.4555467,30.984506 88.1793733,31.533369 C86.1116667,35.6503571 85.6086,40.0731845 86.2656667,44.07175 C86.9740667,48.3813036 89.0232933,52.1831845 91.9000133,54.555756" id="Fill-27" fill="#FFFFFF"></path>
                        <path d="M56.89376,44.9872083 C56.9995067,44.3796488 57.5754667,43.9739226 58.1801733,44.0789583 C58.7859067,44.1850238 59.1904133,44.76375 59.0856933,45.3702798 C58.6729733,47.7068095 57.4769067,50.0206845 55.8537467,51.8855833 C54.2275067,53.7546012 52.1556933,55.1931786 49.9925067,55.7791131 C49.3990933,55.9376964 48.7892533,55.5844881 48.6311467,54.9892857 C48.47304,54.3940833 48.8251867,53.7834345 49.4186,53.6238214 C51.1475067,53.1552798 52.83432,51.9710536 54.18336,50.4212619 C55.5488267,48.8519048 56.55188,46.9211012 56.89376,44.9872083" id="Fill-28" fill="#FFFFFF"></path>
                        <path d="M59.0815867,27.0013869 C59.3166933,26.637881 59.8023067,26.5349048 60.16472,26.7707202 C60.52816,27.0065357 60.6308267,27.4936131 60.39572,27.857119 L60.3721067,27.8941905 L60.3690267,27.8972798 C59.76124,28.8209762 58.48612,29.6550833 57.01696,30.0124107 C55.5519067,30.3697381 53.8681733,30.2760298 52.42468,29.3605714 L52.4195467,29.3574821 L52.3487067,29.3121726 C51.9852667,29.0773869 51.8784933,28.5913393 52.1125733,28.2257738 C52.3466533,27.8602083 52.83124,27.7541429 53.1957067,27.9878988 L53.2665467,28.0342381 C54.3086133,28.692256 55.55396,28.7530119 56.6483867,28.4863036 C57.7387067,28.2195952 58.6544933,27.6511667 59.059,27.0384583 L59.0579733,27.0384583 L59.0815867,27.0013869" id="Fill-29" fill="#FFFFFF"></path>
                        <path d="M62.6646533,47.9189405 C62.78272,47.5039464 63.2159733,47.2619524 63.6317733,47.380375 C64.0465467,47.4998274 64.2878133,47.9333571 64.16872,48.3504107 C63.7909067,49.6664464 63.2036533,50.9454107 62.4613733,52.1018333 C61.7160133,53.2644345 60.80844,54.3168512 59.7930667,55.1736131 C59.46248,55.4526786 58.96968,55.4094286 58.6914533,55.0778452 C58.4132267,54.7472917 58.4563467,54.2519762 58.7869333,53.9729107 C59.6739733,53.2242738 60.4747733,52.2913095 61.14108,51.2522798 C61.8084133,50.2122202 62.33304,49.0753631 62.6646533,47.9189405" id="Fill-30" fill="#FFFFFF"></path>
                        <path d="M56.5908933,34.1788274 C57.5148933,34.1788274 58.2633333,34.9305536 58.2633333,35.8573393 C58.2633333,36.7851548 57.5148933,37.536881 56.5908933,37.536881 C55.6658667,37.536881 54.9164,36.7851548 54.9164,35.8573393 C54.9164,34.9305536 55.6658667,34.1788274 56.5908933,34.1788274" id="Fill-31" fill="#FFFFFF"></path>
                        <path d="M71.7845333,22.5878274 C72.7085333,22.5878274 73.458,23.3395536 73.458,24.267369 C73.458,25.1941548 72.7085333,25.945881 71.7845333,25.945881 C70.8595067,25.945881 70.11004,25.1941548 70.11004,24.267369 C70.11004,23.3395536 70.8595067,22.5878274 71.7845333,22.5878274" id="Fill-32" fill="#FFFFFF"></path>
                        <path d="M82.07276,28.346256 C82.6826,28.346256 83.17848,28.8426012 83.17848,29.4542798 C83.17848,30.0669881 82.6826,30.5633333 82.07276,30.5633333 C81.46292,30.5633333 80.96704,30.0669881 80.96704,29.4542798 C80.96704,28.8426012 81.46292,28.346256 82.07276,28.346256" id="Fill-33" fill="#FFFFFF"></path>
                        <path d="M97.0744133,40.2750179 C97.6842533,40.2750179 98.1791067,40.7713631 98.1791067,41.3840714 C98.1791067,41.99575 97.6842533,42.4920952 97.0744133,42.4920952 C96.4635467,42.4920952 95.96972,41.99575 95.96972,41.3840714 C95.96972,40.7713631 96.4635467,40.2750179 97.0744133,40.2750179" id="Fill-34" fill="#FFFFFF"></path>
                        <path d="M39.8264533,25.945881 C40.7504533,25.945881 41.49992,26.6976071 41.49992,27.6243929 C41.49992,28.5522083 40.7504533,29.3039345 39.8264533,29.3039345 C38.9024533,29.3039345 38.15196,28.5522083 38.15196,27.6243929 C38.15196,26.6976071 38.9024533,25.945881 39.8264533,25.945881" id="Fill-35" fill="#FFFFFF"></path>
                        <path d="M102.207747,12.1172083 C102.817587,12.1172083 103.313467,12.6135536 103.313467,13.2252321 C103.313467,13.8379405 102.817587,14.3342857 102.207747,14.3342857 C101.597907,14.3342857 101.103053,13.8379405 101.103053,13.2252321 C101.103053,12.6135536 101.597907,12.1172083 102.207747,12.1172083" id="Fill-36" fill="#FFFFFF"></path>
                        <path d="M69.4848,2.87303571 C70.4088,2.87303571 71.1582667,3.6247619 71.1582667,4.55257738 C71.1582667,5.4793631 70.4088,6.23108929 69.4848,6.23108929 C68.5597733,6.23108929 67.8103067,5.4793631 67.8103067,4.55257738 C67.8103067,3.6247619 68.5597733,2.87303571 69.4848,2.87303571" id="Fill-37" fill="#FFFFFF"></path>
                        <path d="M72.3533067,13.494 C72.9631467,13.494 73.458,13.9903452 73.458,14.6020238 C73.458,15.2147321 72.9631467,15.7100476 72.3533067,15.7100476 C71.74244,15.7100476 71.2475867,15.2147321 71.2475867,14.6020238 C71.2475867,13.9903452 71.74244,13.494 72.3533067,13.494" id="Fill-38" fill="#FFFFFF"></path>
                        <path d="M44.0183333,54.499119 C44.6292,54.499119 45.1240533,54.9954643 45.1240533,55.6081726 C45.1240533,56.2198512 44.6292,56.7161964 44.0183333,56.7161964 C43.4084933,56.7161964 42.91364,56.2198512 42.91364,55.6081726 C42.91364,54.9954643 43.4084933,54.499119 44.0183333,54.499119" id="Fill-39" fill="#FFFFFF"></path>
                        <path d="M106.295933,53.6217619 C107.22096,53.6217619 107.970427,54.3724583 107.970427,55.3002738 C107.970427,56.2270595 107.22096,56.9787857 106.295933,56.9787857 C105.371933,56.9787857 104.622467,56.2270595 104.622467,55.3002738 C104.622467,54.3724583 105.371933,53.6217619 106.295933,53.6217619" id="Fill-40" fill="#FFFFFF"></path>
                        <g id="vasenkasi" transform="translate(0.000000, 68.994048)">
                            <path d="M21.5610267,6.73258333 C25.58864,6.73258333 26.0126533,0.0391309524 21.5610267,0.0381011905 C1.925,0.0350119048 -4.66722667,21.1399821 3.51941333,33.3920893 C7.67330667,39.6087619 13.51812,43.4394762 25.9900667,44.1283869 C29.48176,44.3209524 31.48068,41.5622202 30.3770133,39.2874762 C35.0432133,39.6695179 37.52672,35.6101964 35.7475067,33.0048988 C40.5184267,33.0749226 42.2894267,27.1383452 37.91172,24.674125 C40.41576,21.5457083 38.4856267,17.4760893 34.4888133,17.4760893 C32.3297333,17.4760893 24.3309733,16.8149821 19.7848933,14.549506 C14.47292,11.8999286 16.1587067,6.73258333 21.5610267,6.73258333" id="Fill-42" fill="#F7CDAF"></path>
                            <path d="M30.61212,41.2234286 C30.75072,40.590125 30.6839867,39.91975 30.3770133,39.2874762 C27.8278,38.9538333 25.36996,38.669619 22.8392267,38.0713274 C20.0487467,37.41125 17.36196,36.4885833 15.0304,35.2652262 C14.5509467,35.014994 13.9595867,35.2003512 13.7101067,35.68125 C13.4596,36.161119 13.6454267,36.7542619 14.1238533,37.004494 C16.6207067,38.315381 19.46252,39.2936548 22.39468,39.9877143 C25.11124,40.6302857 27.9212267,41.0308631 30.61212,41.2234286" id="Fill-43" fill-opacity="0.227694746" fill="#E7991D"></path>
                            <path d="M36.3234667,34.9748333 C36.3419467,34.2941607 36.16228,33.6186369 35.7577733,33.0193155 C31.9478133,33.064625 28.0043867,32.6310952 24.3730667,31.7980179 C20.3700933,30.8784405 16.76444,29.4800238 14.16184,27.7067738 C13.71524,27.402994 13.1074533,27.5203869 12.8045867,27.9683333 C12.5006933,28.4162798 12.6177333,29.0269286 13.06536,29.3307083 C15.8763733,31.2460655 19.712,32.744369 23.93468,33.713375 C27.88324,34.6195655 32.18908,35.0706012 36.3234667,34.9748333" id="Fill-44" fill-opacity="0.227694746" fill="#E7991D"></path>
                            <path d="M39.7987333,26.4504643 C39.3890933,25.772881 38.7689867,25.1560536 37.91172,24.674125 L37.9445733,24.630875 C34.1736267,24.8914048 30.3061733,24.7688631 26.7169467,24.2107321 C22.61952,23.5733095 18.8906667,22.3715774 16.10224,20.5293333 C15.6505067,20.2317321 15.0437467,20.3573631 14.74704,20.8104583 C14.45136,21.2625238 14.5755867,21.8711131 15.02732,22.1687143 C18.0631733,24.1736607 22.0599867,25.4721905 26.4181867,26.1497738 C30.7147867,26.819119 35.3696933,26.8912024 39.7987333,26.4504643" id="Fill-45" fill-opacity="0.227694746" fill="#E7991D"></path>
                        </g>
                        <g id="kattilankahvat" transform="translate(16.426667, 75.172619)" fill="#9F2100">
                            <path d="M5.13436,0.554011905 L19.0364533,0.554011905 L19.0364533,11.3840179 L19.0231067,11.3809286 L19.0077067,11.378869 L18.9060667,11.3623929 L18.8906667,11.3593036 L18.8762933,11.357244 L18.86192,11.3551845 L18.84652,11.353125 L18.8321467,11.3510655 L18.8167467,11.349006 L18.7572,11.3407679 L18.7428267,11.3387083 L18.7274267,11.3376786 L18.7130533,11.335619 L18.6976533,11.3335595 L18.6822533,11.3325298 L18.66788,11.3304702 L18.65248,11.3294405 L18.5919067,11.3222321 L18.5765067,11.3212024 L18.5621333,11.3201726 L18.5303067,11.3170833 L18.5159333,11.3160536 L18.4851333,11.313994 L18.4697333,11.3119345 L18.4543333,11.3119345 L18.4389333,11.3109048 L18.43072,11.309875 L18.4235333,11.309875 L18.4081333,11.3088452 L18.3927333,11.3078155 L18.26748,11.3016369 L18.25208,11.3006071 L18.23668,11.3006071 C18.1791867,11.2985476 18.1216933,11.2975179 18.0621467,11.2975179 C15.9030667,11.2975179 7.90430667,10.6364107 3.35822667,8.37093452 C-1.86750667,5.76460714 -0.32032,0.721863095 4.87358667,0.558130952 C4.95982667,0.556071429 5.04606667,0.554011905 5.13436,0.554011905" id="Fill-41"></path>
                            <path d="M115.267973,0.554011905 L101.364853,0.554011905 L101.364853,11.3840179 L101.380253,11.3809286 L101.394627,11.378869 L101.497293,11.3623929 L101.511667,11.3593036 L101.527067,11.357244 L101.54144,11.3551845 L101.555813,11.353125 L101.571213,11.3510655 L101.585587,11.349006 L101.645133,11.3407679 L101.660533,11.3387083 L101.674907,11.3376786 L101.690307,11.335619 L101.70468,11.3335595 L101.72008,11.3325298 L101.73548,11.3304702 L101.749853,11.3294405 L101.810427,11.3222321 L101.826853,11.3212024 L101.841227,11.3201726 L101.872027,11.3170833 L101.8864,11.3160536 L101.918227,11.313994 L101.9326,11.3119345 L101.949027,11.3119345 L101.9634,11.3109048 L101.971613,11.309875 L101.979827,11.309875 L101.995227,11.3088452 L102.0096,11.3078155 L102.133827,11.3016369 L102.150253,11.3006071 L102.16668,11.3006071 C102.223147,11.2985476 102.281667,11.2975179 102.341213,11.2975179 C104.499267,11.2975179 112.498027,10.6364107 117.045133,8.37093452 C122.270867,5.76460714 120.722653,0.721863095 115.528747,0.558130952 C115.442507,0.556071429 115.356267,0.554011905 115.267973,0.554011905" id="Fill-46"></path>
                        </g>
                        <g id="oikeakasi" transform="translate(111.906667, 68.994048)">
                            <path d="M19.7879733,6.73258333 C15.76036,6.73258333 15.3363467,0.0391309524 19.7879733,0.0381011905 C39.4250267,0.0350119048 46.0172533,21.1399821 37.8306133,33.3920893 C33.67672,39.6087619 27.8298533,43.4394762 15.3589333,44.1283869 C11.86724,44.3209524 9.86934667,41.5622202 10.9730133,39.2874762 C6.30578667,39.6695179 3.82330667,35.6101964 5.60149333,33.0048988 C0.830573333,33.0749226 -0.9394,27.1383452 3.43830667,24.674125 C0.93324,21.5457083 2.8644,17.4760893 6.86121333,17.4760893 C9.01926667,17.4760893 17.0180267,16.8149821 21.5651333,14.549506 C26.8771067,11.8999286 25.1902933,6.73258333 19.7879733,6.73258333" id="Fill-47" fill="#F7CDAF"></path>
                            <path d="M10.73688,41.2234286 C10.59828,40.590125 10.66604,39.91975 10.9730133,39.2874762 C13.5212,38.9538333 15.97904,38.669619 18.5097733,38.0713274 C21.30128,37.41125 23.98704,36.4885833 26.3196267,35.2652262 C26.79908,35.014994 27.39044,35.2003512 27.63992,35.68125 C27.8894,36.161119 27.7035733,36.7542619 27.2261733,37.004494 C24.7282933,38.315381 21.88648,39.2936548 18.9553467,39.9877143 C16.23776,40.6302857 13.4277733,41.0308631 10.73688,41.2234286" id="Fill-48" fill-opacity="0.227694746" fill="#E7991D"></path>
                            <path d="M5.02656,34.9748333 C5.00705333,34.2941607 5.18774667,33.6186369 5.59122667,33.0193155 C9.40118667,33.064625 13.3446133,32.6310952 16.9759333,31.7980179 C20.9789067,30.8784405 24.58456,29.4800238 27.1861333,27.7067738 C27.63376,27.402994 28.2425733,27.5203869 28.54544,27.9683333 C28.8493333,28.4162798 28.7312667,29.0269286 28.2846667,29.3307083 C25.4726267,31.2460655 21.637,32.744369 17.41432,33.713375 C13.46576,34.6195655 9.16094667,35.0706012 5.02656,34.9748333" id="Fill-49" fill-opacity="0.227694746" fill="#E7991D"></path>
                            <path d="M3.43830667,24.674125 L3.4034,24.630875 C7.17537333,24.8914048 11.0438533,24.7688631 14.6320533,24.2107321 C18.72948,23.5733095 22.4583333,22.3715774 25.2477867,20.5293333 C25.6984933,20.2317321 26.3052533,20.3573631 26.60196,20.8104583 C26.89764,21.2625238 26.7734133,21.8711131 26.3227067,22.1687143 C23.2868533,24.1736607 19.2890133,25.4721905 14.9308133,26.1497738 C10.6342133,26.819119 5.97930667,26.8912024 1.55026667,26.4504643 C1.95990667,25.772881 2.58104,25.1560536 3.43830667,24.674125 L3.43830667,24.674125 Z" id="Fill-50" fill-opacity="0.227694746" fill="#E7991D"></path>
                        </g>
                    </g>
                </g>
            </g>
        </g>
    </g>
</svg>