<?xml version="1.0" encoding="UTF-8" standalone="no"?>
<svg width="276px" height="310px" viewBox="0 0 276 310" version="1.1" xmlns="http://www.w3.org/2000/svg" xmlns:xlink="http://www.w3.org/1999/xlink">
    <!-- Generator: Sketch 3.7.2 (28276) - http://www.bohemiancoding.com/sketch -->
    <title>maukasta-logo-small</title>
    <desc>Created with Sketch.</desc>
    <defs></defs>
    <g id="Page-2" stroke="none" stroke-width="1" fill="none" fill-rule="evenodd">
        <g id="Group-2" transform="translate(-78.000000, -43.000000)">
            <g id="maukasta-logo-small" transform="translate(78.000000, 43.000000)">
                <g id="Page-1">
                    <g id="Mobile-Portrait">
                        <g id="Logo">
                            <g id="maukasta" transform="translate(23.987116, 262.883036)" fill="#D44319">
                                <path d="M49.0924001,0.838383921 L53.1093194,0.838383921 C54.2459396,0.838383921 55.2017339,1.62888432 55.4194631,2.74891417 L63.4274694,43.9326893 C63.5105018,44.3640396 63.4090178,44.7676206 63.1322434,45.1045552 C62.8536238,45.4433409 62.4772106,45.6210646 62.0417522,45.6210646 L58.0174523,45.6210646 C56.8549997,45.6210646 55.8807538,44.7898361 55.6943924,43.6383343 L54.6315786,37.0903251 L47.1678953,37.0903251 L45.9371718,43.693873 C45.7268232,44.821308 44.7673386,45.6210646 43.6233377,45.6210646 L39.840754,45.6210646 C39.4016053,45.6210646 39.0251921,45.4414897 38.7484177,45.1008526 C38.4697981,44.7602155 38.3701593,44.3547831 38.456882,43.9234328 L46.7841015,2.73040128 C47.0110565,1.61962788 47.9613153,0.838383921 49.0924001,0.838383921 L49.0924001,0.838383921 L49.0924001,0.838383921 Z M47.9982185,31.4457449 L53.7348295,31.4457449 L50.8305434,13.8214737 L47.9982185,31.4457449 L47.9982185,31.4457449 L47.9982185,31.4457449 Z" id="Fill-8"></path>
                                <path d="M69.5146613,0.838383921 L74.2936329,0.838383921 C75.0722915,0.838383921 75.7070275,1.47522734 75.7070275,2.25647129 L75.7070275,30.2553661 C75.7070275,32.7138779 75.0815174,40.0357259 79.0929012,40.0357259 C83.0636914,40.0357259 82.4105038,32.6842573 82.4105038,30.2553661 L82.4105038,2.25647129 C82.4105038,1.47522734 83.0452398,0.838383921 83.8220533,0.838383921 L88.6692958,0.838383921 C89.4479545,0.838383921 90.0826905,1.47522734 90.0826905,2.25647129 L90.0826905,34.8336038 C90.0826905,41.4797313 86.9459138,46.1857082 79.0929012,46.1857082 C71.3321467,46.1857082 68.1031118,41.4075311 68.1031118,34.8336038 L68.1031118,2.25647129 C68.1031118,1.47522734 68.7378478,0.838383921 69.5146613,0.838383921" id="Fill-9"></path>
                                <path d="M99.2217816,0.838383921 L104.000753,0.838383921 C104.779412,0.838383921 105.412303,1.47522734 105.412303,2.25647129 L105.412303,19.2790736 L106.5194,19.3401662 L113.123238,2.34348188 C113.483044,1.41783738 114.326284,0.838383921 115.315291,0.838383921 L119.293462,0.838383921 C119.784275,0.838383921 120.204972,1.06794376 120.474366,1.47892991 C120.74376,1.88991607 120.784353,2.36939992 120.588766,2.82111444 L112.53094,21.4117586 L121.928354,43.6512933 C122.120251,44.1011566 122.075967,44.5769379 121.806574,44.9860727 C121.53718,45.3952076 121.118328,45.6210646 120.62936,45.6210646 L116.280311,45.6210646 C115.291304,45.6210646 114.448065,45.0434627 114.088258,44.1215207 L106.589516,24.9236538 L105.412303,24.9236538 L105.412303,44.2048287 C105.412303,44.9842214 104.779412,45.6210646 104.000753,45.6210646 L99.2217816,45.6210646 C98.4449681,45.6210646 97.8102321,44.9842214 97.8102321,44.2048287 L97.8102321,2.25647129 C97.8102321,1.47522734 98.4449681,0.838383921 99.2217816,0.838383921" id="Fill-10"></path>
                                <path d="M136.768998,0.838383921 L140.784072,0.838383921 C141.920693,0.838383921 142.878332,1.62888432 143.094216,2.74891417 L151.104068,43.9326893 C151.188945,44.3640396 151.085616,44.7676206 150.806997,45.1045552 C150.530222,45.4433409 150.153809,45.6210646 149.71835,45.6210646 L145.694051,45.6210646 C144.529753,45.6210646 143.557352,44.7898361 143.369145,43.6383343 L142.308177,37.0903251 L134.844494,37.0903251 L133.61377,43.693873 C133.403421,44.821308 132.443937,45.6210646 131.299936,45.6210646 L127.515507,45.6210646 C127.078204,45.6210646 126.70179,45.4414897 126.425016,45.1008526 C126.146396,44.7602155 126.046758,44.3547831 126.131635,43.9234328 L134.462545,2.73040128 C134.68581,1.61962788 135.637914,0.838383921 136.768998,0.838383921 L136.768998,0.838383921 L136.768998,0.838383921 Z M135.672972,31.4457449 L141.411428,31.4457449 L138.505296,13.8214737 L135.672972,31.4457449 L135.672972,31.4457449 L135.672972,31.4457449 Z" id="Fill-11"></path>
                                <path d="M162.401999,33.1137563 C162.403844,35.8684744 162.651096,39.9376076 165.86537,40.0394285 C166.786106,40.0394285 167.546313,39.6728733 168.145991,38.9416141 C168.743824,38.2085037 168.92834,37.0903251 168.697695,35.5852272 C168.513178,33.8709336 167.752971,31.9900239 166.417073,29.940647 C165.773112,28.8113607 164.85053,27.4950942 163.651174,25.9899963 C160.381546,21.7653548 158.272525,18.7773743 157.329647,17.0205011 C156.383078,15.2636278 155.980833,13.1531584 156.117375,10.6853901 C156.165349,7.59188619 157.039956,5.10375378 158.744887,3.22284415 C160.449817,1.34008324 162.616038,0.357048777 165.24355,0.273740775 C168.882211,0.107124765 171.496806,1.17346723 173.087337,3.47276817 C174.450912,5.44624223 175.347661,8.00287233 175.779429,11.1463611 C175.836629,11.5666037 175.722229,11.9498205 175.445455,12.2700935 C175.166835,12.5885152 174.801493,12.7551312 174.380796,12.7551312 L170.491193,12.7551312 C169.77527,12.7551312 169.179282,12.2275139 169.090714,11.5147676 C168.810249,9.26174887 168.240094,5.91832094 165.933641,6.0442086 C164.459356,6.12751661 163.699149,7.15313069 163.651174,9.11734834 C163.514632,11.5018085 165.033201,14.5527328 168.214262,18.275675 C168.767811,18.98657 169.286301,19.6345211 169.769734,20.2195285 C170.255012,20.8045358 170.863916,21.5987388 171.600136,22.6021374 C173.076266,24.5256267 174.238718,26.5435317 175.093029,28.6558524 C175.943649,30.7663219 176.30161,32.9934226 176.163223,35.3353031 C176.022991,38.5954231 174.952796,41.2205509 172.947104,43.206984 C170.945103,45.1934169 168.561152,46.1857082 165.795254,46.1857082 C162.431522,46.1857082 159.770797,44.7528103 157.811234,41.8888662 C156.076781,39.350749 155.327645,36.3905379 155.565671,33.0137867 C155.617336,32.2695686 156.22993,31.6975203 156.97353,31.6975203 L160.988605,31.6975203 C161.767263,31.6975203 162.401999,32.3325124 162.401999,33.1137563" id="Fill-12"></path>
                                <path d="M201.309101,2.25647129 L201.309101,5.25555947 C201.309101,6.03495214 200.674365,6.67179558 199.897551,6.67179558 L193.913689,6.67179558 L193.913689,44.2048287 C193.913689,44.9842214 193.278953,45.6210646 192.500294,45.6210646 L187.653051,45.6210646 C186.874393,45.6210646 186.241502,44.9842214 186.241502,44.2048287 L186.241502,6.67179558 L180.32591,6.67179558 C179.550942,6.67179558 178.914361,6.03495214 178.914361,5.25555947 L178.914361,2.25647129 C178.914361,1.47522734 179.550942,0.838383921 180.32591,0.838383921 L199.897551,0.838383921 C200.674365,0.838383921 201.309101,1.47522734 201.309101,2.25647129" id="Fill-13"></path>
                                <path d="M212.568284,0.838383921 L216.585203,0.838383921 C217.721824,0.838383921 218.677618,1.62888432 218.895347,2.74891417 L226.903353,43.9326893 C226.988231,44.3640396 226.884902,44.7676206 226.608127,45.1045552 C226.329508,45.4433409 225.953095,45.6210646 225.517636,45.6210646 L221.493336,45.6210646 C220.329039,45.6210646 219.356638,44.7898361 219.168431,43.6383343 L218.107463,37.0903251 L210.643779,37.0903251 L209.413056,43.693873 C209.202707,44.821308 208.243223,45.6210646 207.099222,45.6210646 L203.316638,45.6210646 C202.877489,45.6210646 202.501076,45.4414897 202.224302,45.1008526 C201.945682,44.7602155 201.846043,44.3547831 201.932766,43.9234328 L210.259985,2.73040128 C210.485095,1.61962788 211.437199,0.838383921 212.568284,0.838383921 L212.568284,0.838383921 L212.568284,0.838383921 Z M211.472257,31.4457449 L217.210713,31.4457449 L214.308272,13.8214737 L211.472257,31.4457449 L211.472257,31.4457449 L211.472257,31.4457449 Z" id="Fill-14"></path>
                                <path d="M11.5710156,2.73225257 L17.0419231,29.8480825 L22.5146758,2.73225257 C22.7397857,1.61962788 23.6900445,0.838383921 24.8229744,0.838383921 L32.1408899,0.838383921 C32.9177034,0.838383921 33.5542846,1.47522734 33.5542846,2.25647129 L33.5542846,44.2048287 C33.5542846,44.9842214 32.9177034,45.6210646 32.1408899,45.6210646 L27.8471962,45.6210646 C27.0685375,45.6210646 26.4338015,44.9842214 26.4338015,44.2048287 L26.4338015,13.8214737 L26.1736336,13.8214737 L20.3502999,43.7123859 C20.1344159,44.8324157 19.1786216,45.6210646 18.0401562,45.6210646 L16.0436901,45.6210646 C14.9070698,45.6210646 13.9531207,44.8324157 13.7335463,43.7123859 L7.91390302,13.8214737 L7.65004475,13.8214737 L7.65004475,44.2048287 C7.65004475,44.9842214 7.01715393,45.6210646 6.23849525,45.6210646 L1.94480154,45.6210646 C1.16614286,45.6210646 0.533252034,44.9842214 0.533252034,44.2048287 L0.533252034,2.25647129 C0.533252034,1.47522734 1.16614286,0.838383921 1.94480154,0.838383921 L9.26456215,0.838383921 C10.3938018,0.838383921 11.3459057,1.61962788 11.5710156,2.73225257" id="Fill-15"></path>
                            </g>
                            <path d="M58.8791433,117.452874 L216.557526,117.452874 C218.408224,117.452874 219.921258,118.96908 219.921258,120.825923 L219.921258,124.824707 C219.921258,126.679698 218.408224,128.197755 216.557526,128.197755 L58.8791433,128.197755 C57.028445,128.197755 55.5154116,126.679698 55.5154116,124.824707 L55.5154116,120.825923 C55.5154116,118.96908 57.028445,117.452874 58.8791433,117.452874" id="kansi" fill="#9F2100"></path>
                            <path d="M137.719257,96.9831714 C146.385987,96.9831714 153.412366,104.03288 153.412366,112.728384 L145.939457,112.728384 C145.939457,108.172362 142.260203,104.480892 137.719257,104.480892 C133.178312,104.480892 129.499057,108.172362 129.499057,112.728384 L122.026148,112.728384 C122.026148,104.03288 129.050683,96.9831714 137.719257,96.9831714" id="nuppi" fill="#C04C29"></path>
                            <g id="kattilanrunko" transform="translate(63.680926, 132.333785)">
                                <path d="M0.0546857177,0.588459904 L148.018286,0.588459904 L148.018286,103.555303 C148.018286,112.35448 140.846139,119.552291 132.07608,119.552291 L15.998737,119.552291 C7.23052364,119.552291 0.0546857177,112.35448 0.0546857177,103.557154 L0.0546857177,0.588459904" id="Fill-18" fill="#D44319"></path>
                                <path d="M14.4045164,14.0399258 C14.4045164,11.4314596 16.5116923,9.31543627 19.1115266,9.31543627 C21.7113609,9.31543627 23.8185367,11.4314596 23.8185367,14.0399258 L23.8185367,103.557154 C23.8185367,106.163769 21.7113609,108.279792 19.1115266,108.279792 C16.5116923,108.279792 14.4045164,106.163769 14.4045164,103.557154 L14.4045164,14.0399258" id="Fill-19" fill="#E07C3E"></path>
                                <path d="M129.902479,14.0399258 L129.902479,19.81965 L134.199863,19.81965 C135.500702,19.81965 136.556135,20.876736 136.556135,22.1800435 C136.556135,23.4852023 135.500702,24.540437 134.199863,24.540437 L129.902479,24.540437 L129.902479,30.3201612 L134.199863,30.3201612 C135.500702,30.3201612 136.556135,31.3772473 136.556135,32.6805547 C136.556135,33.9857135 135.500702,35.0427995 134.199863,35.0427995 L129.902479,35.0427995 L129.902479,40.8206724 L134.199863,40.8206724 C135.500702,40.8206724 136.556135,41.8796098 136.556135,43.1829172 C136.556135,44.4862247 135.500702,45.5451622 134.199863,45.5451622 L129.902479,45.5451622 L129.902479,51.3211838 L134.199863,51.3211838 C135.500702,51.3211838 136.556135,52.3801209 136.556135,53.6834283 C136.556135,54.9867358 135.500702,56.0456733 134.199863,56.0456733 L129.902479,56.0456733 L129.902479,61.8235462 L134.199863,61.8235462 C135.500702,61.8235462 136.556135,62.880632 136.556135,64.1857912 C136.556135,65.4890986 135.500702,66.5461844 134.199863,66.5461844 L129.902479,66.5461844 L129.902479,72.3240573 L134.199863,72.3240573 C135.500702,72.3240573 136.556135,73.3811436 136.556135,74.684451 C136.556135,75.9896097 135.500702,77.0466955 134.199863,77.0466955 L129.902479,77.0466955 L129.902479,82.8245684 L134.199863,82.8245684 C135.500702,82.8245684 136.556135,83.883506 136.556135,85.1868134 C136.556135,86.4901208 135.500702,87.5490579 134.199863,87.5490579 L129.902479,87.5490579 L129.902479,93.3269312 L134.199863,93.3269312 C135.500702,93.3269312 136.556135,94.3840171 136.556135,95.6873245 C136.556135,96.9924832 135.500702,98.0495695 134.199863,98.0495695 L129.902479,98.0495695 L129.902479,103.557154 C129.902479,103.646016 129.898788,103.736729 129.893253,103.827442 L134.199863,103.827442 C135.500702,103.827442 136.556135,104.884528 136.556135,106.189687 C136.556135,107.492994 135.500702,108.550081 134.199863,108.550081 L83.0353448,108.550081 C81.7345051,108.550081 80.6809171,107.492994 80.6809171,106.189687 C80.6809171,104.884528 81.7345051,103.827442 83.0353448,103.827442 L98.4424537,103.827442 C98.4387634,103.736729 98.4350731,103.646016 98.4350731,103.557154 L98.4350731,98.0495695 L83.0353448,98.0495695 C81.7345051,98.0495695 80.6809171,96.9924832 80.6809171,95.6873245 C80.6809171,94.3840171 81.7345051,93.3269312 83.0353448,93.3269312 L98.4350731,93.3269312 L98.4350731,87.5490579 L83.0353448,87.5490579 C81.7345051,87.5490579 80.6809171,86.4901208 80.6809171,85.1868134 C80.6809171,83.883506 81.7345051,82.8245684 83.0353448,82.8245684 L98.4350731,82.8245684 L98.4350731,77.0466955 L83.0353448,77.0466955 C81.7345051,77.0466955 80.6809171,75.9896097 80.6809171,74.684451 C80.6809171,73.3811436 81.7345051,72.3240573 83.0353448,72.3240573 L98.4350731,72.3240573 L98.4350731,66.5461844 L83.0353448,66.5461844 C81.7345051,66.5461844 80.6809171,65.4890986 80.6809171,64.1857912 C80.6809171,62.880632 81.7345051,61.8235462 83.0353448,61.8235462 L98.4350731,61.8235462 L98.4350731,56.0456733 L83.0353448,56.0456733 C81.7345051,56.0456733 80.6809171,54.9867358 80.6809171,53.6834283 C80.6809171,52.3801209 81.7345051,51.3211838 83.0353448,51.3211838 L98.4350731,51.3211838 L98.4350731,45.5451622 L83.0353448,45.5451622 C81.7345051,45.5451622 80.6809171,44.4862247 80.6809171,43.1829172 C80.6809171,41.8796098 81.7345051,40.8206724 83.0353448,40.8206724 L98.4350731,40.8206724 L98.4350731,35.0427995 L83.0353448,35.0427995 C81.7345051,35.0427995 80.6809171,33.9857135 80.6809171,32.6805547 C80.6809171,31.3772473 81.7345051,30.3201612 83.0353448,30.3201612 L98.4350731,30.3201612 L98.4350731,24.540437 L83.0353448,24.540437 C81.7345051,24.540437 80.6809171,23.4852023 80.6809171,22.1800435 C80.6809171,20.876736 81.7345051,19.81965 83.0353448,19.81965 L98.4350731,19.81965 L98.4350731,14.0399258 L83.0353448,14.0399258 C81.7345051,14.0399258 80.6809171,12.9809885 80.6809171,11.677681 C80.6809171,10.3743735 81.7345051,9.31543627 83.0353448,9.31543627 L134.199863,9.31543627 C135.500702,9.31543627 136.556135,10.3743735 136.556135,11.677681 C136.556135,12.9809885 135.500702,14.0399258 134.199863,14.0399258 L129.902479,14.0399258" id="Fill-20" fill="#A52000"></path>
                            </g>
                            <g id="Group" transform="translate(44.000000, 0.118628)" fill="#A4A4A4">
                                <path d="M52.1570201,37.6989422 C51.2355664,38.468601 49.8614335,38.3480278 49.0908728,37.4276525 C48.3183003,36.5052677 48.4410266,35.132743 49.3624803,34.3630842 C50.0968267,33.7501706 50.481101,33.0749608 50.5857202,32.4278848 C50.6440655,32.058127 50.6138869,31.6803311 50.5072558,31.3206211 C50.3986128,30.9508633 50.2014459,30.5951724 49.9338621,30.2756535 C49.4147899,29.6526921 48.6321579,29.190495 47.6785136,29.0397785 C46.6222621,28.8729856 45.7209274,29.0297307 44.9906049,29.419584 C44.1033537,29.8938385 43.4052217,30.7338316 42.9424829,31.7667418 C42.4354822,32.8961106 42.2161843,34.2465302 42.3228154,35.6331217 C42.4576132,37.3653564 43.1215427,39.1237152 44.3970922,40.536431 C45.3728674,41.6155609 46.6001311,42.3450286 47.9380497,42.7449296 C49.5113615,43.2131555 51.2496498,43.2292319 52.9376403,42.8273213 C54.6417261,42.4213916 56.2834428,41.5874272 57.6414805,40.365619 C58.9894586,39.1498394 60.0638173,37.5381779 60.6533063,35.568816 C61.8302723,31.6300922 61.2649262,28.0711739 59.6211976,25.2236374 L59.6171738,25.2256469 C58.7098035,23.6581956 57.476504,22.2916996 56.0259186,21.1844359 C54.5632617,20.0671245 52.879295,19.2130645 51.0866852,18.680533 C47.431049,17.5893457 43.3408406,17.8385303 39.7717164,19.8963125 C39.1621084,20.2479842 38.5967623,20.6097038 38.0756782,20.9794615 C33.0076828,24.5765613 31.2311683,29.536138 31.4021804,34.7790617 C31.5812402,40.3093515 33.8647555,46.2053798 36.8021407,51.2855297 C37.6692729,52.7866657 38.5887147,54.2074199 39.5222399,55.5196579 C44.4333065,62.4224723 47.7630137,70.5571424 47.6020611,78.2899024 C47.4632395,84.9997998 44.7531998,91.3560157 38.2949762,96.3216209 C32.9573851,100.425128 26.4327685,101.835835 20.3246167,101.025984 C17.2584694,100.620055 14.3009651,99.6574792 11.6512827,98.2005534 C8.97745739,96.73157 6.60139441,94.7521602 4.73032027,92.3246202 C1.4931608,88.1246546 -0.220984545,82.6224985 0.642123852,76.1356617 C1.11693407,72.5606667 2.5393528,69.467965 4.54723667,66.9821479 C6.55713245,64.4923118 9.15852908,62.6033318 11.9892832,61.4337721 C14.8321088,60.2581835 17.9183751,59.8100533 20.8839271,60.2039259 C23.5396452,60.5555973 26.094768,61.5764505 28.2917712,63.3468667 C31.0983824,65.6076137 32.8588016,68.6842394 33.6233265,71.8633519 C34.2309227,74.3953886 34.2108036,76.9997695 33.5851003,79.3147742 C32.9312303,81.7423146 31.6134308,83.8865073 29.6598684,85.3655383 C27.9698659,86.6456237 25.8533391,87.4092537 23.3344306,87.4092537 C20.8316175,87.4092537 18.6044357,86.5109838 16.9566833,85.0821915 C16.0452891,84.2864084 15.306919,83.3238323 14.7958944,82.25676 C14.2768222,81.1695916 13.9931432,79.9759174 13.9931432,78.7360231 C13.9931432,76.7505849 14.7154181,74.6727068 16.3692062,72.7736793 C17.1598859,71.8673714 18.5380427,71.7709126 19.4454131,72.5626762 C20.3527834,73.3504213 20.449355,74.726965 19.6586753,75.6332734 C18.7513049,76.6742217 18.3549591,77.7493325 18.3549591,78.7360231 C18.3549591,79.3127647 18.4897569,79.8734302 18.7331978,80.3838565 C18.9846862,80.9103594 19.3568891,81.3926522 19.8216398,81.7965723 C20.7088911,82.5682408 21.9341429,83.0505336 23.3344306,83.0505336 C24.8574447,83.0505336 26.0907442,82.624508 27.0343289,81.9111171 C28.1750805,81.0470093 28.9617364,79.7247233 29.3761894,78.1914342 C29.820821,76.5436008 29.8328925,74.6847644 29.3963085,72.866119 C28.8450458,70.5732189 27.5795558,68.356682 25.5636243,66.7329632 C24.0104316,65.4830214 22.2017266,64.7595825 20.3205929,64.5103978 C18.1155421,64.2190126 15.7978244,64.562646 13.6430713,65.4508683 C11.4762467,66.3451197 9.48244622,67.7940071 7.93931302,69.7050921 C6.40422746,71.6061292 5.3157854,73.967354 4.95364202,76.6983362 C4.25752196,81.9392506 5.60751202,86.3401713 8.17269432,89.6700007 C9.66754173,91.6072098 11.5808659,93.1987756 13.7476905,94.3884312 C15.938658,95.5921534 18.3730663,96.385927 20.8879509,96.7195124 C25.9177201,97.3866842 31.2754303,96.2372196 35.6372461,92.8812662 C40.9245395,88.8139314 43.1436737,83.6453612 43.2563405,78.2055012 C43.3951622,71.4755083 40.3974197,64.2511656 35.9772585,58.0376276 C34.9572213,56.6068258 33.9633389,55.0695177 33.0358495,53.463885 C29.7886305,47.8491941 27.2616744,41.2478127 27.0564598,34.9157113 C26.8391738,28.2942343 29.10257,22.0184004 35.5547579,17.4386292 C36.1985684,16.9804511 36.8765813,16.5443781 37.5887966,16.1344294 C42.2705058,13.4335902 47.5960254,13.0979948 52.3300442,14.508701 C54.621607,15.191949 56.7823959,16.2911745 58.6675534,17.7300144 C60.5647823,19.1789021 62.1863799,20.9754424 63.383465,23.0472915 L63.383465,23.0573393 C65.5985754,26.8875472 66.3771836,31.6260731 64.8280147,36.8107198 C63.9970968,39.5899315 62.4720708,41.8707741 60.5547228,43.5969801 C58.6413986,45.3231861 56.3357524,46.496765 53.9415822,47.0674781 C51.5313168,47.6402006 49.0144203,47.6060382 46.6926789,46.9147521 C44.6123663,46.2958097 42.6970302,45.148355 41.1579208,43.4462636 C39.2003346,41.2799655 38.1843213,38.5952028 37.9791067,35.9566597 C37.8161421,33.8687342 38.168226,31.7848278 38.9709772,29.9963256 C39.8159784,28.111365 41.1639565,26.5419041 42.9444948,25.5913856 C44.4836042,24.7694784 46.3084045,24.4238353 48.3605503,24.7513925 C50.4106843,25.07694 52.1147701,26.0977929 53.2756408,27.4823749 C53.9214632,28.2540433 54.4023091,29.1442752 54.6819643,30.0947938 C54.9676552,31.0553601 55.0441077,32.0802321 54.8791312,33.1091232 C54.6195951,34.750928 53.7564867,36.3625895 52.1570201,37.6989422" id="Fill-21"></path>
                                <path d="M85.896712,68.720411 C85.2488777,67.7096058 85.5426162,66.3652153 86.5546058,65.7161295 C87.5665954,65.0690533 88.9125616,65.3624481 89.5603959,66.3712438 C90.6870642,68.1175454 91.0129932,69.8959996 90.7494333,71.5116804 C90.5925045,72.478275 90.2223135,73.3725264 89.689158,74.1542425 C89.1640501,74.9178725 88.4800015,75.5790152 87.6812741,76.0934611 C86.1421647,77.0841707 84.1584238,77.5443585 82.0559802,77.2027341 C79.9575605,76.8611101 78.3077962,75.9387252 77.0986397,74.6506018 C75.7526735,73.217791 74.9861366,71.364983 74.780922,69.3795448 C74.5817432,67.4986028 74.8935889,65.4830214 75.6882924,63.6161464 C76.6861986,61.2709982 78.4546655,59.1348435 80.9474191,57.7542809 C82.8547076,56.6992656 84.9330082,56.2350588 87.0113089,56.2732399 C89.5000387,56.3194601 91.9787089,57.0850996 94.1435216,58.4093951 C96.3002866,59.7296711 98.1693489,61.6166416 99.4408745,63.9135607 C100.607781,66.0115338 101.277746,68.4471118 101.22946,71.1037408 C101.134901,76.0331745 99.2517552,79.9437643 96.3626558,82.7370433 C94.6263794,84.4190387 92.5299716,85.6850571 90.2504802,86.5150028 C88.0072032,87.3328905 85.5748068,87.726763 83.128327,87.6805434 C78.1729984,87.5881042 73.1311577,85.6910861 69.3890094,81.8287254 C66.8821725,79.2424305 65.2263724,76.0231264 64.4477642,72.6651635 C63.645013,69.2027038 63.7777989,65.5634036 64.8742886,62.2998894 C65.3128845,60.99368 65.801778,59.6050788 66.3168264,58.1401149 C69.507712,49.0710023 73.7729563,36.9473694 72.4189424,26.4333883 C71.9622394,22.8764795 70.9321426,19.4843542 68.918223,16.4499291 C66.9002796,13.4094755 63.8683348,10.6885408 59.4018997,8.45793705 C58.327541,7.92138642 57.8949808,6.61919606 58.4301483,5.54609481 C58.9653157,4.47500306 60.2710438,4.04093961 61.3433906,4.57548073 C66.5602672,7.17986135 70.1334153,10.4112225 72.5477045,14.0485134 C74.9640056,17.6898233 76.1932812,21.7049102 76.7304606,25.8887994 C78.2152485,37.4236334 73.756861,50.0918555 70.4251419,59.5709167 C69.9100935,61.0278426 69.4252238,62.4084052 68.9986994,63.6784426 C68.1597338,66.1783268 68.0651742,68.9917007 68.6908775,71.6945494 C69.2964617,74.3109874 70.576035,76.8068525 72.5074664,78.7983193 C75.4126611,81.7965723 79.335881,83.2675652 83.19472,83.3419184 C85.112068,83.376081 87.0153327,83.0686191 88.7677043,82.4295814 C90.4798377,81.8066203 92.0451019,80.8641398 93.328699,79.622236 C95.4371782,77.5825396 96.815335,74.6988314 96.8837399,71.0354162 C96.9199542,69.1785892 96.4511797,67.4825267 95.6423928,66.0256009 C94.7390463,64.3998725 93.4131991,63.06151 91.8761016,62.11903 C90.3490637,61.1845875 88.6308945,60.6460276 86.942904,60.6138745 C85.6009616,60.5897599 84.2670668,60.8831547 83.0619341,61.5503265 C81.4685032,62.4305103 80.3357992,63.8050444 79.6919887,65.318238 C79.1869999,66.5058836 78.9858091,67.771902 79.1085355,68.9374431 C79.2191904,69.9984869 79.6034648,70.965082 80.2694062,71.6724444 C80.8468237,72.2873675 81.6717059,72.7354982 82.7561241,72.9123387 C83.7419589,73.0731031 84.6473173,72.8721475 85.329354,72.4340649 C85.6391878,72.2331099 85.8987239,71.9839252 86.093879,71.7005784 C86.2769626,71.4333077 86.4037127,71.1318749 86.4540104,70.8143656 C86.5525939,70.2114995 86.397677,69.4940891 85.896712,68.720411" id="Fill-22"></path>
                                <path d="M170.390799,68.8510324 C169.350643,69.4478694 168.022784,69.090169 167.425247,68.0492207 C166.829722,67.012291 167.18583,65.6859865 168.227998,65.0891489 C169.314428,64.4641782 169.976346,63.654328 170.270085,62.8022778 C170.439085,62.305918 170.491394,61.7874536 170.435061,61.2810462 L170.435061,61.2730077 C170.372692,60.7404763 170.197656,60.2159829 169.924036,59.7377096 C169.388869,58.8133152 168.473451,58.0336086 167.256247,57.6156215 C165.938447,57.1614628 164.737338,57.1634723 163.699194,57.5030867 C162.451811,57.9110258 161.373429,58.8233627 160.55257,60.0311044 C159.667331,61.3393234 159.095949,62.9610322 158.928961,64.6832193 C158.717711,66.8676036 159.154295,69.1966753 160.427832,71.2243142 C161.411655,72.7897558 162.779752,73.9693635 164.353064,74.7571081 C166.191948,75.6774835 168.332617,76.0733656 170.499442,75.9427447 C172.68035,75.8121234 174.873329,75.1429426 176.804761,73.9331914 C178.73418,72.7254502 180.408087,70.977139 181.554875,68.6862489 C183.759926,64.2853277 183.906795,59.9969418 182.6574,56.2852975 C181.92909,54.1210087 180.729993,52.1395899 179.186859,50.4374984 C177.627631,48.717321 175.718331,47.2784811 173.595768,46.2174372 C169.366738,44.1033874 164.294719,43.4924834 159.42389,45.1282595 C156.273243,46.1852843 153.637644,48.1486175 151.543248,50.6042914 C149.134994,53.4317324 147.430909,56.9303642 146.477264,60.4812441 C144.897917,66.3732533 145.400894,74.6264872 149.324114,82.4094859 C152.440559,88.5948898 157.717793,94.4688134 165.827792,98.610502 C166.898127,99.1571004 167.320628,100.465319 166.775401,101.532392 C166.230174,102.597455 164.91841,103.021471 163.852099,102.476882 C154.820645,97.8629485 148.92978,91.295729 145.43912,84.3688001 C141.000852,75.5569102 140.449589,66.1321071 142.268353,59.3579041 C143.370879,55.2403302 145.374739,51.1528993 148.235672,47.7949362 C150.820973,44.7625208 154.100383,42.3309617 158.04171,41.0066664 C164.067373,38.9870656 170.330442,39.7326098 175.539271,42.3369904 C178.142679,43.6371711 180.486552,45.4055777 182.407924,47.5276657 C184.349415,49.6678394 185.862369,52.1677235 186.783823,54.9067443 C188.377254,59.6512989 188.210265,65.0951779 185.439869,70.6274771 C183.910819,73.6779782 181.685649,76.0030314 179.122478,77.6106736 C176.553272,79.2203254 173.642042,80.1085478 170.754954,80.2833787 C167.851772,80.4582102 164.948589,79.9075927 162.409561,78.6375549 C160.138117,77.5041674 158.16846,75.8020758 156.746041,73.5393193 C154.929288,70.6455631 154.303585,67.3498959 154.599336,64.2732707 C154.838753,61.8115682 155.663635,59.4824965 156.941196,57.5975355 C158.283139,55.6141067 160.134094,54.0948846 162.353228,53.3674267 C164.262528,52.7424555 166.403198,52.714322 168.670618,53.4960381 C170.919931,54.2697161 172.648159,55.7708521 173.690328,57.5754304 C174.267745,58.5802071 174.633912,59.673404 174.762674,60.7887054 C174.893448,61.930132 174.77877,63.0976821 174.392483,64.2149935 C173.778852,66.0014863 172.477147,67.6513292 170.390799,68.8510324" id="Fill-23"></path>
                                <path d="M110.220676,35.9245069 C111.419773,36.0028795 112.329155,37.0398088 112.248679,38.2375023 C112.170214,39.4372055 111.130058,40.3435138 109.930961,40.2631317 C107.850649,40.122463 106.229051,39.3166323 105.100371,38.1309961 C104.434429,37.4377003 103.94956,36.611774 103.647774,35.7195325 C103.356047,34.849396 103.239356,33.9229921 103.303737,32.9925691 C103.432499,31.109618 104.289572,29.1703994 105.891051,27.6431391 C107.48247,26.1259267 109.273067,25.3482297 111.081772,25.1693795 C113.025275,24.9744528 114.942623,25.4848793 116.624578,26.5097513 C118.228068,27.4823749 119.626344,28.9352817 120.616203,30.6856023 C121.885717,32.9262539 122.505384,35.6773319 122.058741,38.5570213 C121.72074,40.7333671 120.80331,42.6946908 119.489535,44.3505624 L119.489535,44.3586007 C117.902139,46.3581059 115.723243,47.9134999 113.278776,48.8660279 C110.852415,49.8085082 108.148411,50.1541512 105.488669,49.7421931 C103.185035,49.3844926 100.919627,48.4600983 98.9057071,46.8645132 L98.8976595,46.8645132 C95.1474635,43.8964035 93.1999369,40.1284917 92.6869004,36.2078539 C92.3649952,33.7240464 92.6225194,31.2000479 93.3669252,28.7905939 C94.1012715,26.4173118 95.31244,24.146517 96.9038589,22.1409832 C100.028352,18.1982402 104.643668,15.268312 110.021497,14.5689876 C114.982861,13.9239211 119.407046,15.0552994 123.125052,17.3924095 C127.148867,19.9244462 130.307562,23.8671892 132.381839,28.4791132 C136.403643,37.4176048 133.486376,48.0099584 130.450408,59.0223087 C126.963772,71.6764634 123.310147,84.9334846 130.844742,95.5037332 C131.87685,96.9526205 133.140328,98.1623718 134.655295,98.8375816 C135.918773,99.4002561 137.409596,99.6092496 139.155932,99.2937498 C140.16591,99.1108808 141.027006,98.6305975 141.614483,97.9252441 C142.171782,97.2580729 142.501735,96.3497549 142.501735,95.2605771 C142.501735,94.0126447 141.872008,93.2289192 141.133637,92.9053813 C140.839899,92.7747599 140.540125,92.7104543 140.272541,92.7104543 C140.065315,92.7104543 139.880219,92.7506454 139.745421,92.8249991 L139.747433,92.8270086 C139.620683,92.8973428 139.548254,93.1143743 139.59654,93.5022184 C139.743409,94.6958925 138.892372,95.7830609 137.697299,95.9277488 C136.502226,96.0744462 135.413784,95.2223954 135.268927,94.0307308 C134.965129,91.6092193 136.001261,89.9352619 137.616823,89.030963 L137.62487,89.030963 C138.407503,88.5948898 139.316885,88.3738392 140.256446,88.3698202 C141.137661,88.3658007 142.047044,88.5506797 142.888021,88.9204377 C145.03875,89.8669372 146.863551,91.9930439 146.863551,95.2605771 C146.863551,97.4027607 146.155359,99.2615972 144.95425,100.700437 C143.708879,102.195544 141.94846,103.200321 139.922469,103.56606 C137.242608,104.050362 134.906783,103.706728 132.882804,102.804439 C130.583194,101.779567 128.748334,100.053361 127.29976,98.0217029 C118.570093,85.7774968 122.503372,71.5056514 126.259604,57.8808827 C129.084322,47.634172 131.798386,37.7773147 128.412345,30.2515389 C126.678081,26.3972163 124.080708,23.1296832 120.807334,21.0698914 C117.914211,19.251246 114.463789,18.3710618 110.582819,18.8754596 C106.390004,19.422058 102.774606,21.7250057 100.310019,24.829765 C99.0566002,26.4112832 98.1029559,28.1977758 97.5255384,30.06666 C96.9601924,31.9013819 96.7590016,33.802419 97.0004305,35.6451791 C97.3706215,38.4927156 98.8131593,41.2498223 101.607699,43.46234 L101.603675,43.4663591 C102.995915,44.5655846 104.56118,45.206632 106.152599,45.4517975 C108.035744,45.7431826 109.967176,45.4919885 111.7115,44.8147692 C113.437716,44.1435785 114.97079,43.0503817 116.081363,41.6537424 L116.085387,41.6577615 C116.948495,40.5685838 117.54402,39.2945272 117.763318,37.8918592 C118.049009,36.0430705 117.650651,34.2746639 116.831805,32.8297953 C116.204089,31.7225317 115.340981,30.8162233 114.35917,30.219386 C113.459847,29.6727876 112.472001,29.3974789 111.506285,29.4919279 C110.635129,29.5783386 109.737818,29.9862779 108.890805,30.7921087 C108.118232,31.5296146 107.707803,32.4278848 107.649458,33.2819448 C107.623303,33.6577312 107.663541,34.0174411 107.772184,34.3389696 C107.87278,34.6343739 108.03172,34.9056635 108.251018,35.1367622 C108.661447,35.5647969 109.315317,35.8622107 110.220676,35.9245069" id="Fill-24"></path>
                                <path d="M92.1436854,16.7634194 C91.6547918,17.8586258 90.3691828,18.3489567 89.2726931,17.8606353 C88.1762034,17.372314 87.6852979,16.0882096 88.1721796,14.9930033 C90.668957,9.40845557 94.9241418,5.41748342 99.9780539,2.98190522 C103.883167,1.10096365 108.271137,0.15446421 112.679227,0.126330465 C117.06921,0.0961871747 121.489371,0.980390475 125.483008,2.75884485 C130.91717,5.18035614 135.566689,9.25372001 138.310931,14.9327167 C138.834027,16.0138562 138.379336,17.3140369 137.29693,17.8365207 C136.216535,18.3569949 134.912819,17.902836 134.391735,16.823706 C132.124315,12.1293903 128.249381,8.74731267 123.708505,6.72570239 C120.284238,5.19844214 116.479721,4.44084067 112.697334,4.46495529 C108.935067,4.48906995 105.194931,5.29691025 101.869247,6.89852395 C97.6965506,8.90807689 94.1877836,12.1896769 92.1436854,16.7634194" id="Fill-25"></path>
                                <path d="M144.751048,41.5412074 C144.129368,42.5721081 142.791449,42.9036843 141.761353,42.2827324 C140.731256,41.6637902 140.399291,40.3254279 141.018959,39.2945272 C141.851889,37.9139643 142.803521,36.6399078 143.853737,35.4743671 C148.513315,30.295749 155.072134,27.3376871 161.771787,26.4695602 C168.45132,25.6034429 175.311925,26.8252511 180.597207,30.0023543 C181.780208,30.713736 182.890781,31.527605 183.906795,32.4399421 C184.800082,33.2437632 184.872511,34.620307 184.067747,35.5125486 C183.262984,36.4047901 181.884828,36.477134 180.993553,35.6753223 C180.190801,34.9538928 179.30355,34.3048072 178.347894,33.7300751 C173.895542,31.0533505 168.05095,30.0324976 162.315002,30.7760322 C156.59716,31.5175572 151.020152,34.0174411 147.090896,38.3862093 C146.227788,39.3427565 145.443144,40.3957622 144.751048,41.5412074" id="Fill-26"></path>
                                <path d="M124.483089,105.123463 C125.410579,105.885084 125.543365,107.253589 124.780852,108.179993 C124.020351,109.106397 122.650242,109.239028 121.722752,108.477407 C115.278612,103.184245 110.705546,94.8023988 109.148329,85.3615192 C107.719875,76.7144128 108.812341,67.1489408 113.30493,58.2385832 C113.848145,57.1654818 115.155885,56.7354372 116.228232,57.2760071 C117.300579,57.816577 117.733139,59.124796 117.191936,60.1958874 C113.139954,68.2300802 112.154119,76.8611101 113.44174,84.6642044 C114.829956,93.0741837 118.845724,100.493453 124.483089,105.123463" id="Fill-27"></path>
                                <path d="M55.8830732,86.4506971 C56.0902996,85.2650605 57.2189799,84.4732969 58.4039935,84.6782714 C59.591019,84.885255 60.3837106,86.014624 60.1784961,87.1982506 C59.3697092,91.7579262 57.0258367,96.2733917 53.8450107,99.9126924 C50.6581489,103.560031 46.5981192,106.367377 42.3590297,107.510812 C41.1961471,107.820283 40.0010739,107.131007 39.6912401,105.969485 C39.3814063,104.807963 40.0714907,103.616298 41.2343733,103.304817 C44.6224258,102.390471 47.9279902,100.079485 50.5716369,97.0551078 C53.2474741,93.9925492 55.2131079,90.2246377 55.8830732,86.4506971" id="Fill-28"></path>
                                <path d="M60.1704484,51.3518449 C60.6311753,50.642473 61.5828076,50.4415174 62.293011,50.9017052 C63.0052264,51.3618929 63.2064171,52.3124114 62.7456903,53.0217833 L62.6994164,53.0941275 L62.6933807,53.100156 C61.5023313,54.9027253 59.003542,56.5304631 56.1245021,57.227778 C53.2535098,57.9250928 49.9539812,57.7422233 47.125239,55.9557306 L47.1151795,55.9497021 L46.9763578,55.8612818 C46.2641425,55.4031036 46.0549041,54.4545946 46.5136191,53.7412032 C46.972334,53.0278123 47.9219544,52.8208283 48.6361817,53.2769965 L48.7750033,53.3674267 C50.8170896,54.6515311 53.2575336,54.7700944 55.4022272,54.2496206 C57.5388732,53.7291462 59.3334948,52.6198727 60.1261865,51.424189 L60.1241746,51.424189 L60.1704484,51.3518449" id="Fill-29"></path>
                                <path d="M67.1920063,92.1718943 C67.4233756,91.3620442 68.2724007,90.8897994 69.0872233,91.1208981 C69.900034,91.3540062 70.3728323,92.2000279 70.139451,93.0138971 C69.399069,95.5821054 68.2482578,98.0779705 66.7936485,100.334699 C65.3330036,102.603484 63.5544772,104.657247 61.5647005,106.329195 C60.9168662,106.873784 59.9511505,106.789383 59.4059235,106.142306 C58.8606965,105.49724 58.9451967,104.530645 59.5930309,103.986056 C61.3313192,102.525111 62.9006072,100.704456 64.2063352,98.6768171 C65.5140752,96.6471687 66.5421601,94.4286223 67.1920063,92.1718943" id="Fill-30"></path>
                                <path d="M55.2895604,65.3584291 C57.1002773,65.3584291 58.566958,66.825403 58.566958,68.6340003 C58.566958,70.4446076 57.1002773,71.9115815 55.2895604,71.9115815 C53.4768316,71.9115815 52.008139,70.4446076 52.008139,68.6340003 C52.008139,66.825403 53.4768316,65.3584291 55.2895604,65.3584291" id="Fill-31"></path>
                                <path d="M85.0637822,42.738901 C86.8744991,42.738901 88.3431917,44.2058747 88.3431917,46.0164819 C88.3431917,47.8250795 86.8744991,49.2920534 85.0637822,49.2920534 C83.2510534,49.2920534 81.7823608,47.8250795 81.7823608,46.0164819 C81.7823608,44.2058747 83.2510534,42.738901 85.0637822,42.738901" id="Fill-32"></path>
                                <path d="M105.225109,53.9763213 C106.420182,53.9763213 107.391934,54.9449259 107.391934,56.1386001 C107.391934,57.3342843 106.420182,58.3028888 105.225109,58.3028888 C104.030036,58.3028888 103.058285,57.3342843 103.058285,56.1386001 C103.058285,54.9449259 104.030036,53.9763213 105.225109,53.9763213" id="Fill-33"></path>
                                <path d="M134.623104,77.2549827 C135.818177,77.2549827 136.787917,78.2235873 136.787917,79.4192709 C136.787917,80.6129456 135.818177,81.5815502 134.623104,81.5815502 C133.426019,81.5815502 132.458292,80.6129456 132.458292,79.4192709 C132.458292,78.2235873 133.426019,77.2549827 134.623104,77.2549827" id="Fill-34"></path>
                                <path d="M22.4371198,49.2920534 C24.2478367,49.2920534 25.7165293,50.7590268 25.7165293,52.5676246 C25.7165293,54.3782319 24.2478367,55.8452053 22.4371198,55.8452053 C20.6264029,55.8452053 19.1556984,54.3782319 19.1556984,52.5676246 C19.1556984,50.7590268 20.6264029,49.2920534 22.4371198,49.2920534" id="Fill-35"></path>
                                <path d="M144.682643,22.3057665 C145.877716,22.3057665 146.849467,23.274371 146.849467,24.4680455 C146.849467,25.6637295 145.877716,26.632334 144.682643,26.632334 C143.487569,26.632334 142.51783,25.6637295 142.51783,24.4680455 C142.51783,23.274371 143.487569,22.3057665 144.682643,22.3057665" id="Fill-36"></path>
                                <path d="M80.557109,4.26600956 C82.3678259,4.26600956 83.8365185,5.73298321 83.8365185,7.54359042 C83.8365185,9.35218813 82.3678259,10.8191618 80.557109,10.8191618 C78.7443802,10.8191618 77.2756876,9.35218813 77.2756876,7.54359042 C77.2756876,5.73298321 78.7443802,4.26600956 80.557109,4.26600956" id="Fill-37"></path>
                                <path d="M86.1783791,24.9925388 C87.3734522,24.9925388 88.3431917,25.9611433 88.3431917,27.1548178 C88.3431917,28.3505018 87.3734522,29.3170968 86.1783791,29.3170968 C84.981294,29.3170968 84.0115545,28.3505018 84.0115545,27.1548178 C84.0115545,25.9611433 84.981294,24.9925388 86.1783791,24.9925388" id="Fill-38"></path>
                                <path d="M30.6517389,105.012937 C31.848824,105.012937 32.8185635,105.981542 32.8185635,107.177226 C32.8185635,108.370901 31.848824,109.339505 30.6517389,109.339505 C29.4566657,109.339505 28.4869262,108.370901 28.4869262,107.177226 C28.4869262,105.981542 29.4566657,105.012937 30.6517389,105.012937" id="Fill-39"></path>
                                <path d="M152.694059,103.300798 C154.506788,103.300798 155.97548,104.765763 155.97548,106.57637 C155.97548,108.384967 154.506788,109.851941 152.694059,109.851941 C150.883342,109.851941 149.41465,108.384967 149.41465,106.57637 C149.41465,104.765763 150.883342,103.300798 152.694059,103.300798" id="Fill-40"></path>
                            </g>
                            <g id="vasenkasi" transform="translate(0.000000, 134.801303)">
                                <path d="M38.7502629,12.1037275 C45.9888363,12.1037275 46.7508885,0.070348982 38.7502629,0.0684976931 C3.45968015,0.062943826 -8.38810985,38.0051119 6.3252179,60.0317483 C13.7907464,71.20798 24.2952579,78.0947754 46.710295,79.3332874 C52.9856935,79.6794785 56.5782253,74.7198754 54.5946754,70.6303782 C62.9809401,71.3172062 67.4443887,64.0194247 64.2467217,59.3356635 C72.821193,59.4615514 76.0040987,48.7888704 68.1363248,44.3587357 C72.6366767,38.7345198 69.1677708,31.4182256 61.9845522,31.4182256 C58.1041749,31.4182256 43.728512,30.2296981 35.5581313,26.1568623 C26.0112593,21.3934957 29.0410165,12.1037275 38.7502629,12.1037275" id="Fill-42" fill="#F7CDAF"></path>
                                <path d="M55.0172176,74.1108015 C55.2663146,72.9722585 55.146379,71.7670694 54.5946754,70.6303782 C50.0131363,70.0305605 45.5958167,69.5196044 41.0474905,68.4440056 C36.0323381,67.2573294 31.2035472,65.5985746 27.0131826,63.3992433 C26.1514916,62.9493797 25.0886779,63.2826121 24.6403033,64.1471639 C24.1900836,65.0098644 24.5240581,66.0762069 25.3839039,66.52607 C29.8713397,68.8827613 34.9787502,70.6414856 40.248535,71.8892543 C45.1308356,73.0444589 50.1810461,73.7646103 55.0172176,74.1108015" id="Fill-43" fill-opacity="0.227694746" fill="#E7991D"></path>
                                <path d="M65.281858,62.8771798 C65.3150709,61.6534777 64.9921675,60.4390319 64.2651733,59.3615819 C57.4177744,59.4430385 50.3305043,58.6636459 43.8041636,57.1659531 C36.6098741,55.512752 30.1296625,52.9987013 25.4521749,49.8107816 C24.6495291,49.2646514 23.5571928,49.4756984 23.0128698,50.2810094 C22.4667016,51.0863199 22.6770502,52.1841345 23.4815411,52.7302647 C28.5335967,56.1736622 35.4271248,58.8672875 43.0162791,60.6093506 C50.1127751,62.238485 57.8513876,63.0493497 65.281858,62.8771798" id="Fill-44" fill-opacity="0.227694746" fill="#E7991D"></path>
                                <path d="M71.5277339,47.5522091 C70.791514,46.3340611 69.6770357,45.225139 68.1363248,44.3587357 L68.19537,44.2809816 C61.4180872,44.7493577 54.4673591,44.5290543 48.0166702,43.5256557 C40.6526257,42.3797078 33.9509946,40.2192535 28.9395325,36.9072975 C28.1276609,36.372275 27.0371697,36.5981323 26.5039177,37.4126994 C25.9725108,38.2254153 26.1957755,39.3195271 27.0076471,39.8545496 C32.4637934,43.4590093 39.647012,45.7934847 47.4797278,47.0116327 C55.2017339,48.2149705 63.5677018,48.3445609 71.5277339,47.5522091" id="Fill-45" fill-opacity="0.227694746" fill="#E7991D"></path>
                            </g>
                            <g id="kattilankahvat" transform="translate(29.522604, 146.862882)" fill="#9F2100">
                                <path d="M9.2276589,0.0421473292 L34.2130077,0.0421473292 L34.2130077,19.5121538 L34.1890205,19.5065999 L34.1613431,19.5028973 L33.978672,19.4732767 L33.9509946,19.4677228 L33.9251623,19.4640202 L33.89933,19.4603177 L33.8716526,19.4566151 L33.8458203,19.4529125 L33.8181428,19.4492099 L33.7111234,19.4343996 L33.6852911,19.430697 L33.6576137,19.4288458 L33.6317814,19.4251432 L33.604104,19.4214406 L33.5764265,19.4195893 L33.5505942,19.4158867 L33.5229168,19.4140354 L33.4140522,19.4010764 L33.3863748,19.3992251 L33.3605425,19.3973738 L33.3033424,19.39182 L33.2775102,19.3899687 L33.2221553,19.3862661 L33.1944778,19.3825635 L33.1668004,19.3825635 L33.1391229,19.3807122 L33.1243616,19.3788609 L33.1114455,19.3788609 L33.0837681,19.3770096 L33.0560906,19.3751584 L32.8309808,19.3640506 L32.8033033,19.3621993 L32.7756259,19.3621993 C32.6722968,19.3584968 32.5689677,19.3566455 32.4619482,19.3566455 C28.581571,19.3566455 14.205908,18.1681179 6.03552735,14.0952821 C-3.35635104,9.40966965 -0.575690777,0.343907434 8.75898756,0.0495524847 C8.91398123,0.0458499069 9.0689749,0.0421473292 9.2276589,0.0421473292" id="Fill-41"></path>
                                <path d="M207.163802,0.0421473292 L182.176608,0.0421473292 L182.176608,19.5121538 L182.204286,19.5065999 L182.230118,19.5028973 L182.414634,19.4732767 L182.440467,19.4677228 L182.468144,19.4640202 L182.493976,19.4603177 L182.519809,19.4566151 L182.547486,19.4529125 L182.573318,19.4492099 L182.680338,19.4343996 L182.708015,19.430697 L182.733848,19.4288458 L182.761525,19.4251432 L182.787357,19.4214406 L182.815035,19.4195893 L182.842712,19.4158867 L182.868544,19.4140354 L182.977409,19.4010764 L183.006932,19.3992251 L183.032764,19.3973738 L183.088119,19.39182 L183.113951,19.3899687 L183.171151,19.3862661 L183.196983,19.3825635 L183.226506,19.3825635 L183.252338,19.3807122 L183.2671,19.3788609 L183.281861,19.3788609 L183.309538,19.3770096 L183.335371,19.3751584 L183.558635,19.3640506 L183.588158,19.3621993 L183.61768,19.3621993 C183.719164,19.3584968 183.824339,19.3566455 183.931358,19.3566455 C187.80989,19.3566455 202.185553,18.1681179 210.357779,14.0952821 C219.749657,9.40966965 216.967152,0.343907434 207.632474,0.0495524847 C207.47748,0.0458499069 207.322486,0.0421473292 207.163802,0.0421473292" id="Fill-46"></path>
                            </g>
                            <g id="oikeakasi" transform="translate(202.348403, 134.801303)">
                                <path d="M34.3380031,12.1037275 C27.0994296,12.1037275 26.3373774,0.070348982 34.3380031,0.0684976931 C69.6304309,0.062943826 81.4782209,38.0051119 66.7648932,60.0317483 C59.2993647,71.20798 48.7911629,78.0947754 26.377971,79.3332874 C20.1025725,79.6794785 16.5118858,74.7198754 18.4954357,70.6303782 C10.1073259,71.3172062 5.64572235,64.0194247 8.84154423,59.3356635 C0.267072946,59.4615514 -2.91398763,48.7888704 4.95378632,44.3587357 C0.451589221,38.7345198 3.92234035,31.4182256 11.1055589,31.4182256 C14.984091,31.4182256 29.359754,30.2296981 37.5319798,26.1568623 C47.0788518,21.3934957 44.0472495,12.1037275 34.3380031,12.1037275" id="Fill-47" fill="#F7CDAF"></path>
                                <path d="M18.0710483,74.1108015 C17.8219513,72.9722585 17.9437321,71.7670694 18.4954357,70.6303782 C23.0751297,70.0305605 27.4924493,69.5196044 32.0407755,68.4440056 C37.057773,67.2573294 41.8847187,65.5985746 46.0769285,63.3992433 C46.9386195,62.9493797 48.0014332,63.2826121 48.4498078,64.1471639 C48.8981823,65.0098644 48.5642079,66.0762069 47.7062072,66.52607 C43.2169262,68.8827613 38.1095157,70.6414856 32.8415761,71.8892543 C27.9574303,73.0444589 22.9072199,73.7646103 18.0710483,74.1108015" id="Fill-48" fill-opacity="0.227694746" fill="#E7991D"></path>
                                <path d="M7.80825309,62.8771798 C7.773195,61.6534777 8.09794365,60.4390319 8.82309261,59.3615819 C15.6704916,59.4430385 22.7577617,58.6636459 29.2841023,57.1659531 C36.4783919,55.512752 42.9586034,52.9987013 47.6342458,49.8107816 C48.4387368,49.2646514 49.5329183,49.4756984 50.0772413,50.2810094 C50.6234095,51.0863199 50.4112158,52.1841345 49.60857,52.7302647 C44.5546692,56.1736622 37.6611412,58.8672875 30.0719868,60.6093506 C22.9754909,62.238485 15.2387235,63.0493497 7.80825309,62.8771798" id="Fill-49" fill-opacity="0.227694746" fill="#E7991D"></path>
                                <path d="M4.95378632,44.3587357 L4.89105079,44.2809816 C11.6701787,44.7493577 18.622752,44.5290543 25.0715958,43.5256557 C32.4356403,42.3797078 39.1372714,40.2192535 44.1505786,36.9072975 C44.960605,36.372275 46.0510962,36.5981323 46.5843482,37.4126994 C47.1157551,38.2254153 46.8924904,39.3195271 46.082464,39.8545496 C40.6263177,43.4590093 33.441254,45.7934847 25.6085381,47.0116327 C17.886532,48.2149705 9.52056412,48.3445609 1.56053203,47.5522091 C2.29675197,46.3340611 3.41307543,45.225139 4.95378632,44.3587357 L4.95378632,44.3587357 Z" id="Fill-50" fill-opacity="0.227694746" fill="#E7991D"></path>
                            </g>
                        </g>
                    </g>
                </g>
            </g>
        </g>
    </g>
</svg>